<svg xmlns="http://www.w3.org/2000/svg" viewBox="0 0 229.74 49.47"><defs><style>.cls-1{fill:#d1a783;}</style></defs><title>dzhamgarova-logo-gld-ru</title><g id="Layer_2" data-name="Layer 2"><g id="Layer_1-2" data-name="Layer 1"><path class="cls-1" d="M6.55,18.12H0v-.75a7.86,7.86,0,0,1,2.12-.62V1.4L1.06,1.11A10.94,10.94,0,0,1,0,.75V0H6.55V.75a6.7,6.7,0,0,1-.88.36,10.35,10.35,0,0,1-1.06.28V12.63l-.28,1.94,1.24-2L13.15,2V1.38q-.6-.13-1.13-.29t-1-.34V0h6.57V.75a7.65,7.65,0,0,1-1,.36q-.54.16-1.11.28V16.74a8.57,8.57,0,0,1,2.12.62v.75H11.05v-.75q.41-.18.91-.35A7.33,7.33,0,0,1,13,16.74V5.54l.26-1.94L12.14,5.54,4.45,16.18v.57A10.24,10.24,0,0,1,5.58,17a6.69,6.69,0,0,1,1,.36Z"/><path class="cls-1" d="M21,15.89a7,7,0,0,0,.65-1.66A20.55,20.55,0,0,0,22.17,12q.19-1.24.3-2.6t.1-2.63a4.9,4.9,0,0,1-.94-.39,7.67,7.67,0,0,1-.79-.49V5.18H31.42v.67a5.38,5.38,0,0,1-1.71.62V16.85a8.12,8.12,0,0,1,1,.28,6.2,6.2,0,0,1,.75.34v.65H25.85v-.65a3.94,3.94,0,0,1,1.53-.62V6.31H24q0,1.37-.16,2.91t-.39,3A21.53,21.53,0,0,1,22.75,15a8.45,8.45,0,0,1-1,2.19,3,3,0,0,1-1.06,1,1.57,1.57,0,0,1-1.06.19,5.2,5.2,0,0,1-.74-1.15,3.73,3.73,0,0,1-.4-1.31l.36-.65Z"/><path class="cls-1" d="M33.49,11.65a9,9,0,0,1,.43-2.89,5.86,5.86,0,0,1,1.23-2.12,5.27,5.27,0,0,1,1.93-1.32,6.64,6.64,0,0,1,2.5-.45,7.1,7.1,0,0,1,2.77.49,4.88,4.88,0,0,1,1.9,1.38,5.75,5.75,0,0,1,1.09,2.14,10.22,10.22,0,0,1,.35,2.77,7.05,7.05,0,0,1-1.66,5,5.82,5.82,0,0,1-4.45,1.76,6.91,6.91,0,0,1-2.69-.48A4.9,4.9,0,0,1,35,16.58a5.93,5.93,0,0,1-1.13-2.15A9.68,9.68,0,0,1,33.49,11.65Zm2.48,0a10.54,10.54,0,0,0,.22,2.2,5.5,5.5,0,0,0,.7,1.8,3.5,3.5,0,0,0,1.26,1.2,3.72,3.72,0,0,0,1.86.44,2.66,2.66,0,0,0,2.29-1.37,8,8,0,0,0,.89-4.27A10.53,10.53,0,0,0,43,9.43a5.72,5.72,0,0,0-.69-1.79,3.54,3.54,0,0,0-1.19-1.2A3.28,3.28,0,0,0,39.36,6a2.85,2.85,0,0,0-2.46,1.37A7.72,7.72,0,0,0,36,11.65Z"/><path class="cls-1" d="M53.31,18.12H47.75v-.65a4.29,4.29,0,0,1,.8-.35l.91-.27V6.47l-.91-.27a4.2,4.2,0,0,1-.8-.35V5.18h5.56v.67a6,6,0,0,1-1.53.62V11h5.75V6.47A3.68,3.68,0,0,1,56,5.85V5.18h5.59v.67a4.73,4.73,0,0,1-1.71.62V16.85q.47.1.91.23a2.67,2.67,0,0,1,.8.39v.65H56v-.65a3.68,3.68,0,0,1,1.55-.62V12.14H51.79v4.71a4.49,4.49,0,0,1,.88.26,3.35,3.35,0,0,1,.65.36Z"/><path class="cls-1" d="M73.19,14.73q0,.57,0,1t.05.88l1.79.26v.54a9.56,9.56,0,0,1-1.44.6,11.24,11.24,0,0,1-1.51.39h-.65a4,4,0,0,1-.31-1.31q-.05-.71-.08-1.57h-.13a3.6,3.6,0,0,1-.4,1,3.52,3.52,0,0,1-.78.94,3.87,3.87,0,0,1-2.6.93,3.56,3.56,0,0,1-2.58-1,3.32,3.32,0,0,1-1-2.51,3.62,3.62,0,0,1,.48-2,3.25,3.25,0,0,1,1.41-1.2,8.07,8.07,0,0,1,2.3-.63q1.37-.19,3.18-.3a14.9,14.9,0,0,0,.06-2,4.82,4.82,0,0,0-.28-1.53,2.14,2.14,0,0,0-.73-1A2.08,2.08,0,0,0,68.76,6q-.36,0-.82,0a3,3,0,0,0-.89.22L65.84,9.37h-.67q-.26-.78-.45-1.6a10,10,0,0,1-.25-1.63,8.78,8.78,0,0,1,2.19-.93,10,10,0,0,1,2.68-.34,5,5,0,0,1,2.11.38,3,3,0,0,1,1.2,1,3.31,3.31,0,0,1,.54,1.32A8.21,8.21,0,0,1,73.32,9q0,1.55-.06,3T73.19,14.73Zm-5,2.1a2.41,2.41,0,0,0,1.14-.26,3.06,3.06,0,0,0,.83-.62,3.77,3.77,0,0,0,.54-.74,3.42,3.42,0,0,0,.28-.63V11.85a15.87,15.87,0,0,0-2.46.16,4.14,4.14,0,0,0-1.5.49,1.8,1.8,0,0,0-.75.84,3,3,0,0,0-.21,1.15,2.42,2.42,0,0,0,.57,1.72A2,2,0,0,0,68.2,16.82Z"/><path class="cls-1" d="M99.25,16.77q0,.52-.05,1.2t-.13,1.41q-.08.72-.17,1.42T98.72,22H98l-1.11-3.91H84.27L83.16,22h-.66a9.28,9.28,0,0,1-.23-1.19q-.09-.7-.16-1.44T82,18q-.05-.68-.05-1.2h2.15A14.4,14.4,0,0,0,85.35,14a29.65,29.65,0,0,0,1-3.73q.43-2,.69-4.28a39.1,39.1,0,0,0,.26-4.45Q86.65,1.4,86,1.22A9.41,9.41,0,0,1,84.68.75V0H98.42V.75q-.44.18-1,.35a10.37,10.37,0,0,1-1.16.3V16.77Zm-5.43,0V1.35h-5q-.16,3.18-.5,5.68t-.8,4.4a29.92,29.92,0,0,1-.93,3.22q-.48,1.32-.87,2.12Z"/><path class="cls-1" d="M113.36,5.18h4.48v.67a5.41,5.41,0,0,1-1.47.62q-.83,1.14-1.71,2.23t-1.73,2.17l.83,1.16,1.07,1.51q.58.82,1.21,1.67t1.26,1.63l1.06.62v.65h-2.74l-.72-.6q-.44-.6-.95-1.38t-1-1.59L112,13.06q-.41-.69-.67-1.07h-1.24v4.87a6.67,6.67,0,0,1,1.55.62v.65h-5.2v-.65l.71-.34q.35-.16.74-.28v-5l-1.42.26q-.23.36-.62,1.06l-.84,1.5q-.45.8-.94,1.58a9.7,9.7,0,0,1-1,1.29l-.78.6H99.67v-.65l1.19-.62q.65-.75,1.26-1.58t1.15-1.6q.54-.78,1-1.46t.82-1.15q-1-1.11-1.89-2.26t-1.73-2.32a3.44,3.44,0,0,1-1.29-.62V5.18h4.48v.67a4.5,4.5,0,0,1-1.29.62,22.23,22.23,0,0,0,1.51,2.34l1.72,2.34h1.35V6.47a3.67,3.67,0,0,1-1.45-.62V5.18h5v.67a3,3,0,0,1-.58.36,3.65,3.65,0,0,1-.79.26v4.84l1.42-.26q.91-1.24,1.64-2.29t1.46-2.29L114,6.21a2.89,2.89,0,0,1-.62-.36Z"/><path class="cls-1" d="M129,14.73c0,.38,0,.71,0,1s0,.57.05.88l1.79.26v.54a9.54,9.54,0,0,1-1.44.6,11.26,11.26,0,0,1-1.51.39h-.65a4,4,0,0,1-.31-1.31q-.05-.71-.08-1.57h-.13a3.59,3.59,0,0,1-.4,1,3.51,3.51,0,0,1-.78.94,3.87,3.87,0,0,1-2.6.93,3.56,3.56,0,0,1-2.58-1,3.32,3.32,0,0,1-1-2.51,3.62,3.62,0,0,1,.48-2,3.25,3.25,0,0,1,1.41-1.2,8.07,8.07,0,0,1,2.3-.63q1.37-.19,3.18-.3a15.05,15.05,0,0,0,.06-2,4.82,4.82,0,0,0-.29-1.53,2.14,2.14,0,0,0-.72-1A2.08,2.08,0,0,0,124.54,6q-.36,0-.82,0a3,3,0,0,0-.89.22l-1.22,3.11h-.67q-.26-.78-.45-1.6a10,10,0,0,1-.25-1.63,8.76,8.76,0,0,1,2.19-.93,10,10,0,0,1,2.68-.34,5,5,0,0,1,2.11.38,3,3,0,0,1,1.2,1A3.31,3.31,0,0,1,129,7.53,8.26,8.26,0,0,1,129.09,9q0,1.55-.06,3T129,14.73Zm-5,2.1a2.41,2.41,0,0,0,1.14-.26,3.07,3.07,0,0,0,.83-.62,3.81,3.81,0,0,0,.54-.74,3.41,3.41,0,0,0,.28-.63V11.85a15.88,15.88,0,0,0-2.46.16,4.14,4.14,0,0,0-1.5.49,1.79,1.79,0,0,0-.75.84,3,3,0,0,0-.21,1.15,2.42,2.42,0,0,0,.57,1.72A2,2,0,0,0,124,16.82Z"/><path class="cls-1" d="M136.78,18.12h-4.55v-.65a8.53,8.53,0,0,1,1.71-.62l.39-10.12a7.07,7.07,0,0,1-1-.44l-.75-.44V5.18h5l2.67,7.56.49,1.79h.08l.54-1.81,2.77-7.53h4.89v.67a4.29,4.29,0,0,1-.75.36,5.8,5.8,0,0,1-1,.26l.52,10.38a5.69,5.69,0,0,1,1.71.62v.65h-5.49v-.65l.62-.28q.36-.16.93-.34l-.52-10.48H145l-4.24,11.75H140L135.82,6.37h-.21l-.39,10.48a8.55,8.55,0,0,1,1.55.62Z"/><path class="cls-1" d="M161.08,5.18q0,1-.09,2.1t-.22,2.15h-.67L159,6.31h-3.49V16.85a13.68,13.68,0,0,1,2.33.62v.65h-6.37v-.65a4.11,4.11,0,0,1,.85-.39c.28-.09.56-.16.85-.23V6.44a4.88,4.88,0,0,1-1.71-.6V5.18Z"/><path class="cls-1" d="M172.18,14.73c0,.38,0,.71,0,1s0,.57.05.88l1.79.26v.54a9.54,9.54,0,0,1-1.44.6,11.26,11.26,0,0,1-1.51.39h-.65a4,4,0,0,1-.31-1.31q-.05-.71-.08-1.57h-.13a3.59,3.59,0,0,1-.4,1,3.51,3.51,0,0,1-.78.94,3.87,3.87,0,0,1-2.6.93,3.56,3.56,0,0,1-2.58-1,3.32,3.32,0,0,1-1-2.51,3.62,3.62,0,0,1,.48-2,3.25,3.25,0,0,1,1.41-1.2,8.07,8.07,0,0,1,2.3-.63q1.37-.19,3.18-.3a15.05,15.05,0,0,0,.06-2,4.82,4.82,0,0,0-.29-1.53,2.14,2.14,0,0,0-.72-1A2.08,2.08,0,0,0,167.76,6q-.36,0-.82,0a3,3,0,0,0-.89.22l-1.22,3.11h-.67q-.26-.78-.45-1.6a10,10,0,0,1-.25-1.63,8.76,8.76,0,0,1,2.19-.93,10,10,0,0,1,2.68-.34,5,5,0,0,1,2.11.38,3,3,0,0,1,1.2,1,3.31,3.31,0,0,1,.54,1.32A8.26,8.26,0,0,1,172.31,9q0,1.55-.06,3T172.18,14.73Zm-5,2.1a2.41,2.41,0,0,0,1.14-.26,3.07,3.07,0,0,0,.83-.62,3.81,3.81,0,0,0,.54-.74,3.41,3.41,0,0,0,.28-.63V11.85a15.88,15.88,0,0,0-2.46.16,4.14,4.14,0,0,0-1.5.49,1.79,1.79,0,0,0-.75.84,3,3,0,0,0-.21,1.15,2.42,2.42,0,0,0,.57,1.72A2,2,0,0,0,167.19,16.82Z"/><path class="cls-1" d="M181.19,23.29h-5.75v-.65a9.27,9.27,0,0,1,1.71-.62V6.68l-1.71-.21V5.8a10.92,10.92,0,0,1,1.69-.58q.87-.22,1.7-.35h.65v2.9h0A5.18,5.18,0,0,1,181,5.65a3.64,3.64,0,0,1,2.43-.79A4.39,4.39,0,0,1,187,6.39q1.27,1.53,1.27,5a9.54,9.54,0,0,1-.43,3,6.29,6.29,0,0,1-1.22,2.23,5.35,5.35,0,0,1-1.92,1.4,6.17,6.17,0,0,1-2.5.49,7.53,7.53,0,0,1-1.5-.12,6.21,6.21,0,0,1-1.19-.4V22a4.08,4.08,0,0,1,.83.19,4.51,4.51,0,0,1,.88.43Zm1.37-16.82a2.64,2.64,0,0,0-2,.8,4.62,4.62,0,0,0-1.06,2.2v7.25a3.64,3.64,0,0,0,1,.43,6.55,6.55,0,0,0,1.51.14,2.79,2.79,0,0,0,1.54-.44,3.69,3.69,0,0,0,1.17-1.24,6.71,6.71,0,0,0,.74-1.88,10.09,10.09,0,0,0,.26-2.37,10.56,10.56,0,0,0-.17-2A5,5,0,0,0,185,7.85a2.74,2.74,0,0,0-1-1A2.86,2.86,0,0,0,182.56,6.47Z"/><path class="cls-1" d="M190.35,11.65a8.94,8.94,0,0,1,.43-2.89A5.84,5.84,0,0,1,192,6.64a5.27,5.27,0,0,1,1.93-1.32,6.64,6.64,0,0,1,2.5-.45,7.1,7.1,0,0,1,2.77.49,4.88,4.88,0,0,1,1.9,1.38,5.73,5.73,0,0,1,1.09,2.14,10.2,10.2,0,0,1,.35,2.77,7.05,7.05,0,0,1-1.66,5,5.82,5.82,0,0,1-4.45,1.76,6.91,6.91,0,0,1-2.69-.48,4.9,4.9,0,0,1-1.89-1.37,5.92,5.92,0,0,1-1.13-2.15A9.69,9.69,0,0,1,190.35,11.65Zm2.48,0a10.57,10.57,0,0,0,.22,2.2,5.48,5.48,0,0,0,.7,1.8,3.49,3.49,0,0,0,1.25,1.2,3.72,3.72,0,0,0,1.86.44,2.65,2.65,0,0,0,2.29-1.37,8,8,0,0,0,.89-4.27,10.53,10.53,0,0,0-.22-2.21,5.71,5.71,0,0,0-.69-1.79A3.55,3.55,0,0,0,198,6.44,3.28,3.28,0,0,0,196.22,6a2.85,2.85,0,0,0-2.46,1.37A7.72,7.72,0,0,0,192.83,11.65Z"/><path class="cls-1" d="M216.1,14.34a3.24,3.24,0,0,1-.47,1.77,3.67,3.67,0,0,1-1.26,1.2,6.05,6.05,0,0,1-1.83.69,10.55,10.55,0,0,1-2.19.22H209l-.83,0-.57,0h-3v-.65a7.2,7.2,0,0,1,1.71-.62V6.47a5,5,0,0,1-1.71-.62V5.18H208l.83,0,.78,0h.86a7.63,7.63,0,0,1,3.57.69,2.49,2.49,0,0,1,1.28,2.39,2.34,2.34,0,0,1-.26,1.11,3,3,0,0,1-.68.85,4.07,4.07,0,0,1-.94.61,4.57,4.57,0,0,1-1,.35,5.33,5.33,0,0,1,1.39.28A4,4,0,0,1,215,12a3,3,0,0,1,.81,1A2.94,2.94,0,0,1,216.1,14.34Zm-7.45-3.11,2.91-.26a2.9,2.9,0,0,0,1-.87A2.68,2.68,0,0,0,213,8.44a1.89,1.89,0,0,0-.77-1.75A4.35,4.35,0,0,0,210,6.21h-.66a2.92,2.92,0,0,0-.65.09Zm0,5.77a4.5,4.5,0,0,0,.92.08h.92a3.37,3.37,0,0,0,2.28-.66,2.37,2.37,0,0,0,.75-1.88,2.17,2.17,0,0,0-.91-1.9,4,4,0,0,0-2.33-.63h-1.63Z"/><path class="cls-1" d="M227.88,14.73c0,.38,0,.71,0,1s0,.57.05.88l1.79.26v.54a9.54,9.54,0,0,1-1.44.6,11.26,11.26,0,0,1-1.51.39h-.65a4,4,0,0,1-.31-1.31q-.05-.71-.08-1.57h-.13a3.59,3.59,0,0,1-.4,1,3.51,3.51,0,0,1-.78.94,3.87,3.87,0,0,1-2.6.93,3.56,3.56,0,0,1-2.58-1,3.32,3.32,0,0,1-1-2.51,3.62,3.62,0,0,1,.48-2,3.25,3.25,0,0,1,1.41-1.2,8.07,8.07,0,0,1,2.3-.63q1.37-.19,3.18-.3a15.05,15.05,0,0,0,.06-2,4.82,4.82,0,0,0-.29-1.53,2.14,2.14,0,0,0-.72-1A2.08,2.08,0,0,0,223.45,6q-.36,0-.82,0a3,3,0,0,0-.89.22l-1.22,3.11h-.67q-.26-.78-.45-1.6a10,10,0,0,1-.25-1.63,8.76,8.76,0,0,1,2.19-.93A10,10,0,0,1,224,4.87a5,5,0,0,1,2.11.38,3,3,0,0,1,1.2,1,3.31,3.31,0,0,1,.54,1.32A8.26,8.26,0,0,1,228,9q0,1.55-.06,3T227.88,14.73Zm-5,2.1a2.41,2.41,0,0,0,1.14-.26,3.07,3.07,0,0,0,.83-.62,3.81,3.81,0,0,0,.54-.74,3.41,3.41,0,0,0,.28-.63V11.85a15.88,15.88,0,0,0-2.46.16,4.14,4.14,0,0,0-1.5.49,1.79,1.79,0,0,0-.75.84,3,3,0,0,0-.21,1.15,2.42,2.42,0,0,0,.57,1.72A2,2,0,0,0,222.88,16.82Z"/><path class="cls-1" d="M43.76,31.35h5.49V32a6.92,6.92,0,0,1-.66.31q-.37.16-.89.31v7.09l-.28,2.41h.13l1-1.94,5.54-8.85h3.49V32a5.38,5.38,0,0,1-1.71.62V43l.93.27a3.6,3.6,0,0,1,.78.35v.65H52.1v-.65A6.13,6.13,0,0,1,53.65,43v-7.4l.26-2h-.13l-1,1.94-5.49,8.77H43.76v-.65a8.56,8.56,0,0,1,.85-.35l.85-.27V32.64A4.19,4.19,0,0,1,43.76,32Z"/><path class="cls-1" d="M72.18,44.29H65.63v-.75a5,5,0,0,1,.91-.36,8.78,8.78,0,0,1,1.22-.26V27.57a10.7,10.7,0,0,1-1.06-.27q-.54-.17-1.06-.38v-.75H82.71v.75a4.83,4.83,0,0,1-1,.4q-.54.14-1.09.25V42.92a7.41,7.41,0,0,1,2.12.62v.75H76.17v-.75a5.91,5.91,0,0,1,1.94-.62V27.52H70.24v15.4a9.51,9.51,0,0,1,1.94.62Z"/><path class="cls-1" d="M94.07,40.9q0,.57,0,1t.05.88l1.79.26v.54a9.51,9.51,0,0,1-1.44.59,11.25,11.25,0,0,1-1.51.39h-.65A4,4,0,0,1,92,43.24Q92,42.53,92,41.68h-.13a3.6,3.6,0,0,1-.4,1,3.52,3.52,0,0,1-.78.94,3.87,3.87,0,0,1-2.6.93,3.56,3.56,0,0,1-2.58-1,3.32,3.32,0,0,1-1-2.51,3.62,3.62,0,0,1,.48-2A3.24,3.24,0,0,1,86.36,38a8.06,8.06,0,0,1,2.3-.63q1.37-.19,3.18-.3a14.9,14.9,0,0,0,.06-2,4.83,4.83,0,0,0-.28-1.53,2.14,2.14,0,0,0-.73-1,2.08,2.08,0,0,0-1.25-.35q-.36,0-.82,0a3,3,0,0,0-.89.22l-1.22,3.11h-.67q-.26-.78-.45-1.6a10,10,0,0,1-.25-1.63,8.7,8.7,0,0,1,2.19-.93A9.93,9.93,0,0,1,90.22,31a5,5,0,0,1,2.11.38,3,3,0,0,1,1.2,1,3.31,3.31,0,0,1,.54,1.32,8.21,8.21,0,0,1,.13,1.45q0,1.55-.06,3T94.07,40.9Zm-5,2.1a2.41,2.41,0,0,0,1.14-.26,3.08,3.08,0,0,0,.83-.62,3.77,3.77,0,0,0,.54-.74,3.41,3.41,0,0,0,.28-.63V38a15.87,15.87,0,0,0-2.46.16,4.15,4.15,0,0,0-1.5.49,1.8,1.8,0,0,0-.75.84A3,3,0,0,0,87,40.67a2.42,2.42,0,0,0,.57,1.72A2,2,0,0,0,89.08,43Z"/><path class="cls-1" d="M103.08,49.47H97.34v-.65A9.29,9.29,0,0,1,99,48.2V32.85l-1.71-.21V32a11,11,0,0,1,1.7-.58q.87-.22,1.7-.35h.65v2.9h0a5.18,5.18,0,0,1,1.45-2.11,3.64,3.64,0,0,1,2.43-.79,4.38,4.38,0,0,1,3.57,1.53q1.27,1.53,1.27,5a9.55,9.55,0,0,1-.43,3,6.28,6.28,0,0,1-1.22,2.23,5.33,5.33,0,0,1-1.92,1.4,6.17,6.17,0,0,1-2.5.49,7.57,7.57,0,0,1-1.5-.12,6.21,6.21,0,0,1-1.19-.4V48.2a4.05,4.05,0,0,1,.83.19,4.44,4.44,0,0,1,.88.43Zm1.37-16.82a2.63,2.63,0,0,0-2,.8,4.61,4.61,0,0,0-1.06,2.2v7.25a3.64,3.64,0,0,0,1,.43,6.58,6.58,0,0,0,1.51.14,2.79,2.79,0,0,0,1.54-.44,3.68,3.68,0,0,0,1.16-1.24,6.7,6.7,0,0,0,.74-1.88,10.12,10.12,0,0,0,.26-2.37,10.61,10.61,0,0,0-.17-2,5,5,0,0,0-.54-1.55,2.75,2.75,0,0,0-1-1A2.87,2.87,0,0,0,104.45,32.64Z"/><path class="cls-1" d="M120.47,44.29h-5.75v-.65a7.25,7.25,0,0,1,1.71-.62V32.49H114l-1.11,3.11h-.66q-.13-1.11-.2-2.19t-.1-2.06h11.39q0,.93-.09,2T123,35.59h-.66l-1.11-3.11h-2.46V43a6.48,6.48,0,0,1,1.71.62Z"/><path class="cls-1" d="M130.59,44.29H125v-.65a4.22,4.22,0,0,1,.8-.35l.91-.27V32.64l-.91-.27A4.16,4.16,0,0,1,125,32v-.67h5.56V32a6,6,0,0,1-1.53.62v4.53h5.75V32.64a3.68,3.68,0,0,1-1.55-.62v-.67h5.59V32a4.73,4.73,0,0,1-1.71.62V43q.47.1.91.23a2.69,2.69,0,0,1,.8.39v.65h-5.59v-.65a3.68,3.68,0,0,1,1.55-.62V38.31h-5.75V43a4.53,4.53,0,0,1,.88.26,3.33,3.33,0,0,1,.65.36Z"/><path class="cls-1" d="M151.4,42.48a2.59,2.59,0,0,1-.65.83,4.67,4.67,0,0,1-1,.67,6,6,0,0,1-1.24.45,5.68,5.68,0,0,1-1.37.17,7,7,0,0,1-2.69-.48,5.09,5.09,0,0,1-1.94-1.37,6,6,0,0,1-1.18-2.13,9.07,9.07,0,0,1-.4-2.79,7.41,7.41,0,0,1,1.53-5A5.45,5.45,0,0,1,146.77,31a6.61,6.61,0,0,1,1.79.25,4,4,0,0,1,2.68,2.33,5.69,5.69,0,0,1,.43,2.34q0,.44,0,.89a8.64,8.64,0,0,1-.14,1H143.4a7.3,7.3,0,0,0,.27,2,4.82,4.82,0,0,0,.82,1.64,3.82,3.82,0,0,0,1.37,1.1,4.41,4.41,0,0,0,1.94.4,6.84,6.84,0,0,0,1.84-.26,3.52,3.52,0,0,0,1.4-.67Zm-4.74-10.3a2.68,2.68,0,0,0-2.25,1,6.57,6.57,0,0,0-.93,3.51h5.69c0-.16,0-.31,0-.45s0-.29,0-.43a4.9,4.9,0,0,0-.62-2.64A2.13,2.13,0,0,0,146.66,32.18Z"/><path class="cls-1" d="M159.42,49.47h-5.75v-.65a9.27,9.27,0,0,1,1.71-.62V32.85l-1.71-.21V32a10.92,10.92,0,0,1,1.69-.58q.87-.22,1.7-.35h.65v2.9h0a5.19,5.19,0,0,1,1.45-2.11,3.64,3.64,0,0,1,2.43-.79,4.38,4.38,0,0,1,3.57,1.53q1.27,1.53,1.27,5a9.54,9.54,0,0,1-.43,3,6.28,6.28,0,0,1-1.22,2.23,5.33,5.33,0,0,1-1.92,1.4,6.17,6.17,0,0,1-2.5.49,7.57,7.57,0,0,1-1.5-.12,6.21,6.21,0,0,1-1.19-.4V48.2a4.05,4.05,0,0,1,.83.19,4.45,4.45,0,0,1,.88.43Zm1.37-16.82a2.63,2.63,0,0,0-2,.8,4.62,4.62,0,0,0-1.06,2.2v7.25a3.64,3.64,0,0,0,1,.43,6.58,6.58,0,0,0,1.51.14,2.78,2.78,0,0,0,1.54-.44A3.68,3.68,0,0,0,163,41.78a6.7,6.7,0,0,0,.74-1.88,10.09,10.09,0,0,0,.26-2.37,10.57,10.57,0,0,0-.17-2,5,5,0,0,0-.54-1.55,2.74,2.74,0,0,0-1-1A2.86,2.86,0,0,0,160.79,32.64Z"/><path class="cls-1" d="M172.57,36.63l1-.13a12.07,12.07,0,0,1,1.58-.08,5,5,0,0,1,3.13.91,3.36,3.36,0,0,1,1.18,2.85,4.19,4.19,0,0,1-.38,1.83A3.66,3.66,0,0,1,178,43.32a4.69,4.69,0,0,1-1.61.8,7.33,7.33,0,0,1-2,.27q-.7,0-1.57-.05t-1.86-.05h-2.41v-.65a4.16,4.16,0,0,1,.85-.39c.28-.09.56-.16.85-.23V32.64a4,4,0,0,1-.91-.25,8.11,8.11,0,0,1-.8-.37v-.67h5.59V32a6,6,0,0,1-1.55.62Zm0,6.55.67.05.7,0q2.93,0,2.92-3.11a3.07,3.07,0,0,0-.22-1.23,2,2,0,0,0-.6-.8,2.34,2.34,0,0,0-.87-.43,4.08,4.08,0,0,0-1-.13h-.78a4.88,4.88,0,0,0-.8.09Zm13.25,1.11h-5.56v-.65l.72-.34a7.31,7.31,0,0,1,.8-.29V32.64a3.56,3.56,0,0,1-1.55-.62v-.67h5.59V32a3,3,0,0,1-.75.35q-.44.14-1,.27V43l.85.27a8.57,8.57,0,0,1,.85.35Z"/><rect class="cls-1" x="0.1" y="36.49" width="35.83" height="1.12"/><rect class="cls-1" x="193.62" y="35.93" width="35.83" height="1.12"/></g></g></svg>