<svg xmlns="http://www.w3.org/2000/svg" viewBox="0 0 62.27 59.79"><defs><style>.cls-1{fill:none;stroke:#fff;stroke-miterlimit:10;stroke-width:2px;}.cls-2{fill:#fff;}</style></defs><title>lang-icon_1</title><g id="Layer_2" data-name="Layer 2"><g id="Layer_1-2" data-name="Layer 1"><line class="cls-1" x1="4.07" y1="57.56" x2="57.78" y2="3.85"/><path class="cls-2" d="M44.56,49.66H36.15v7.8h9.37v2.34H33.36V38.17H45v2.34H36.15v6.83h8.41Z"/><path class="cls-2" d="M49.05,48.47c0-1.6,0-2.92-.13-4.2h2.5l.16,2.57h.06a5.71,5.71,0,0,1,5.13-2.92c2.15,0,5.49,1.28,5.49,6.61v9.27H59.45v-9c0-2.5-.93-4.59-3.59-4.59a4,4,0,0,0-3.79,2.89,4.06,4.06,0,0,0-.19,1.32v9.34H49.05Z"/><path class="cls-2" d="M0,.45A29.08,29.08,0,0,1,5.36,0c3,0,4.91.54,6.26,1.76a5.38,5.38,0,0,1,1.7,4.11,5.68,5.68,0,0,1-4.07,5.52v.1c1.67.58,2.66,2.12,3.18,4.36a34.43,34.43,0,0,0,1.67,5.93H11.2a27.94,27.94,0,0,1-1.44-5.16c-.64-3-1.8-4.11-4.33-4.2H2.79v9.37H0ZM2.79,10.3H5.65c3,0,4.88-1.64,4.88-4.11,0-2.79-2-4-5-4a11.47,11.47,0,0,0-2.76.26Z"/><path class="cls-2" d="M30.16,17.55c0,1.6,0,3,.13,4.23h-2.5l-.16-2.53h-.06a5.84,5.84,0,0,1-5.13,2.89c-2.44,0-5.36-1.35-5.36-6.8V6.25h2.82v8.6c0,3,.9,4.94,3.46,4.94a4.08,4.08,0,0,0,3.72-2.57,4.13,4.13,0,0,0,.26-1.44V6.25h2.82Z"/></g></g></svg>