<svg xmlns="http://www.w3.org/2000/svg" viewBox="0 0 135.89 90.59"><defs><style>.cls-1{fill:#1b2d58;}.cls-2{fill:none;stroke:#fff;stroke-miterlimit:10;stroke-width:2px;}.cls-3{fill:#fff;}</style></defs><title>lang-icon</title><g id="Layer_2" data-name="Layer 2"><g id="Layer_1-2" data-name="Layer 1"><path class="cls-1" d="M45.3,0h0A45.3,45.3,0,0,0,0,45.3H0a45.3,45.3,0,0,0,45.3,45.3h90.59V0Z"/><line class="cls-2" x1="50.22" y1="73.57" x2="103.93" y2="19.87"/><path class="cls-3" d="M90.71,65.67H82.3v7.8h9.37v2.34H79.51V54.19H91.19v2.34H82.3v6.83h8.41Z"/><path class="cls-3" d="M95.2,64.48c0-1.6,0-2.92-.13-4.2h2.5l.16,2.57h.06a5.71,5.71,0,0,1,5.13-2.92c2.15,0,5.49,1.28,5.49,6.61v9.27H105.6v-9c0-2.5-.93-4.59-3.59-4.59a4,4,0,0,0-3.79,2.89A4.06,4.06,0,0,0,98,66.47v9.34H95.2Z"/><path class="cls-3" d="M46.15,16.46A29.08,29.08,0,0,1,51.51,16c3,0,4.91.54,6.26,1.76a5.38,5.38,0,0,1,1.7,4.11,5.68,5.68,0,0,1-4.07,5.52v.1c1.67.58,2.66,2.12,3.18,4.36a34.43,34.43,0,0,0,1.67,5.93H57.35a27.94,27.94,0,0,1-1.44-5.16c-.64-3-1.8-4.11-4.33-4.2H48.94V37.8H46.15Zm2.79,9.85H51.8c3,0,4.88-1.64,4.88-4.11,0-2.79-2-4-5-4a11.47,11.47,0,0,0-2.76.26Z"/><path class="cls-3" d="M76.31,33.56c0,1.6,0,3,.13,4.23h-2.5l-.16-2.53h-.06a5.84,5.84,0,0,1-5.13,2.89c-2.44,0-5.36-1.35-5.36-6.8V22.27H66v8.6c0,3,.9,4.94,3.46,4.94a4.08,4.08,0,0,0,3.72-2.57,4.13,4.13,0,0,0,.26-1.44V22.27h2.82Z"/></g></g></svg>