<svg xmlns="http://www.w3.org/2000/svg" viewBox="0 0 61.14 32.19"><defs><style>.cls-1{fill:#1c2c58;}</style></defs><title>arrow-right</title><g id="Layer_2" data-name="Layer 2"><g id="Layer_1-2" data-name="Layer 1"><path class="cls-1" d="M0,15.22l1.26,0H56.93c.34,0,.67-.05,1-.08l.21-.35A8.36,8.36,0,0,1,57.08,14Q51.18,8.1,45.31,2.22c-1.15-1.15-1.15-1.14.34-2.22,1.24,1.26,2.5,2.54,3.77,3.81L60.58,15a1.41,1.41,0,0,1,0,2.26L45.79,32.08a1.11,1.11,0,0,1-.19.12,1.64,1.64,0,0,1-.28-.16c-1.1-.92-1.1-.92-.07-1.95L57.73,17.65a4.65,4.65,0,0,0,.35-.49c-.5,0-.87-.1-1.23-.1H1.26L0,17Z"/></g></g></svg>