<svg xmlns="http://www.w3.org/2000/svg" viewBox="0 0 819 296"><defs><style>.cls-1{fill:#fff;}.cls-2{fill:#1c2c58;}</style></defs><title>contact-intro</title><g id="Layer_2" data-name="Layer 2"><g id="Layer_1-2" data-name="Layer 1"><rect class="cls-1" width="819" height="296"/><path class="cls-2" d="M92.39,118H84.61v-1.2a6.94,6.94,0,0,1,1.09-.55,7.23,7.23,0,0,1,1.15-.36L95,95.62H97.3l7.9,20.3a8.17,8.17,0,0,1,1.26.36,5.42,5.42,0,0,1,1.1.55V118H97.71v-1.2q.6-.28,1.29-.54a9.07,9.07,0,0,1,1.32-.38l-1.83-5h-7l-1.86,5a7.55,7.55,0,0,1,2.74.91Zm-.13-9.16h5.57l-2-6-.6-2.71h-.06l-.69,2.77Z"/><path class="cls-2" d="M119.27,114.91a4.08,4.08,0,0,1-.57,1.32,5.18,5.18,0,0,1-1,1.12,4.4,4.4,0,0,1-1.29.77,4.2,4.2,0,0,1-1.54.28,5.78,5.78,0,0,1-4.74-2q-1.62-2-1.62-6a10.62,10.62,0,0,1,.57-3.63,7.41,7.41,0,0,1,1.59-2.63,6.48,6.48,0,0,1,2.47-1.61,9.21,9.21,0,0,1,3.21-.53q.57,0,1,0l.72.08a3.07,3.07,0,0,1,.63.16l.68.24V96.94L117,96.69v-1.2a6.5,6.5,0,0,1,1.21-.35l1.62-.3,1.67-.27,1.35-.22h1.07v21.43L126,116v1.1a6.32,6.32,0,0,1-1.13.41q-.69.19-1.45.35t-1.46.27l-1.18.17h-1.07l-.28-3.43Zm-2.86,1a2.64,2.64,0,0,0,1.86-.69,4.35,4.35,0,0,0,1.1-2.36v-8.47a3.69,3.69,0,0,0-1-.41,6.23,6.23,0,0,0-1.53-.16,2.69,2.69,0,0,0-2.61,1.65,11.53,11.53,0,0,0-.79,4.8,10.11,10.11,0,0,0,.69,4.09A2.36,2.36,0,0,0,116.4,115.89Z"/><path class="cls-2" d="M138.12,114.91a4.08,4.08,0,0,1-.57,1.32,5.18,5.18,0,0,1-1,1.12,4.4,4.4,0,0,1-1.29.77,4.2,4.2,0,0,1-1.54.28,5.78,5.78,0,0,1-4.74-2q-1.62-2-1.62-6a10.62,10.62,0,0,1,.57-3.63,7.41,7.41,0,0,1,1.59-2.63,6.48,6.48,0,0,1,2.47-1.61,9.21,9.21,0,0,1,3.21-.53q.57,0,1,0l.72.08a3.07,3.07,0,0,1,.63.16l.68.24V96.94l-2.39-.25v-1.2a6.5,6.5,0,0,1,1.21-.35l1.62-.3,1.67-.27,1.35-.22h1.07v21.43l2.08.25v1.1a6.32,6.32,0,0,1-1.13.41q-.69.19-1.45.35t-1.46.27l-1.18.17h-1.07l-.28-3.43Zm-2.86,1a2.64,2.64,0,0,0,1.86-.69,4.35,4.35,0,0,0,1.1-2.36v-8.47a3.69,3.69,0,0,0-1-.41,6.23,6.23,0,0,0-1.53-.16,2.69,2.69,0,0,0-2.61,1.65,11.53,11.53,0,0,0-.79,4.8,10.11,10.11,0,0,0,.69,4.09A2.36,2.36,0,0,0,135.25,115.89Z"/><path class="cls-2" d="M154.39,105.91a4.39,4.39,0,0,0-.88.63,3.83,3.83,0,0,0-.91,1.45v8.08a7.63,7.63,0,0,1,1.26.24,5.83,5.83,0,0,1,1.26.52V118H146v-1.2a5.75,5.75,0,0,1,1.07-.47q.5-.16,1-.29V104.5l-2.08-.25V103a8.28,8.28,0,0,1,1.24-.41q.74-.19,1.53-.33t1.53-.24l1.24-.16h1.07v4.19h.13a7.29,7.29,0,0,1,.74-1.45,7.61,7.61,0,0,1,1.15-1.38,5.63,5.63,0,0,1,1.45-1,3.45,3.45,0,0,1,1.64-.35,3.93,3.93,0,0,1,.6,1.24q.25.8.41,1.53v1.23Z"/><path class="cls-2" d="M174.12,115.38a4,4,0,0,1-.8,1.09,5.62,5.62,0,0,1-1.35,1,8.33,8.33,0,0,1-1.86.69,9.29,9.29,0,0,1-2.28.27,9.59,9.59,0,0,1-3.46-.58,6.62,6.62,0,0,1-2.52-1.67,7.2,7.2,0,0,1-1.53-2.6,10.4,10.4,0,0,1-.52-3.4,8.32,8.32,0,0,1,2.11-6.14,7.91,7.91,0,0,1,5.85-2.11,10,10,0,0,1,3,.44,5.24,5.24,0,0,1,2.33,1.45,5.59,5.59,0,0,1,1.29,2.64,10.49,10.49,0,0,1,0,4h-9.66a6.09,6.09,0,0,0,1.27,4,4.52,4.52,0,0,0,3.67,1.48,7.94,7.94,0,0,0,2.16-.31,4.93,4.93,0,0,0,1.75-.82Zm-6.5-11.68a2.67,2.67,0,0,0-1.11.22,2,2,0,0,0-.84.8,5.14,5.14,0,0,0-.58,1.57,16.75,16.75,0,0,0-.31,2.5h5a8.86,8.86,0,0,0-.28-3.78A1.88,1.88,0,0,0,167.62,103.71Z"/><path class="cls-2" d="M184.79,114.6a2,2,0,0,0-.58-1.42,6.77,6.77,0,0,0-1.45-1.1q-.87-.5-1.89-1a10.72,10.72,0,0,1-1.89-1.18,6.3,6.3,0,0,1-1.45-1.59,4.07,4.07,0,0,1-.58-2.23,3.39,3.39,0,0,1,.44-1.71,4.06,4.06,0,0,1,1.2-1.31,5.89,5.89,0,0,1,1.81-.83,8.33,8.33,0,0,1,2.28-.3,17.66,17.66,0,0,1,3.16.27,12.07,12.07,0,0,1,2.57.74,11.57,11.57,0,0,1-.5,2.16q-.38,1.15-.72,2.09h-1.07L184.79,104a2.86,2.86,0,0,0-.79-.21,8.08,8.08,0,0,0-.91,0,1.78,1.78,0,0,0-1.92,1.79,1.87,1.87,0,0,0,.58,1.37A7,7,0,0,0,183.2,108q.87.5,1.89,1a12.13,12.13,0,0,1,1.89,1.15,6.09,6.09,0,0,1,1.45,1.53,3.74,3.74,0,0,1,.58,2.11,4,4,0,0,1-1.76,3.42,8,8,0,0,1-4.72,1.24,16.24,16.24,0,0,1-3.12-.31,11.29,11.29,0,0,1-2.77-.88,7.13,7.13,0,0,1,.53-2.3,16,16,0,0,1,1-2.08h1.07l1.54,3.43a1.59,1.59,0,0,0,.77.3,7.34,7.34,0,0,0,.8,0,2.82,2.82,0,0,0,1.67-.54A1.71,1.71,0,0,0,184.79,114.6Z"/><path class="cls-2" d="M199,114.6a2,2,0,0,0-.58-1.42,6.77,6.77,0,0,0-1.45-1.1q-.87-.5-1.89-1a10.72,10.72,0,0,1-1.89-1.18,6.3,6.3,0,0,1-1.45-1.59,4.07,4.07,0,0,1-.58-2.23,3.39,3.39,0,0,1,.44-1.71,4.06,4.06,0,0,1,1.2-1.31,5.89,5.89,0,0,1,1.81-.83,8.33,8.33,0,0,1,2.28-.3,17.66,17.66,0,0,1,3.16.27,12.07,12.07,0,0,1,2.57.74,11.57,11.57,0,0,1-.5,2.16q-.38,1.15-.72,2.09h-1.07L199,104a2.86,2.86,0,0,0-.79-.21,8.08,8.08,0,0,0-.91,0,1.78,1.78,0,0,0-1.92,1.79,1.87,1.87,0,0,0,.58,1.37,7,7,0,0,0,1.45,1.09q.87.5,1.89,1a12.13,12.13,0,0,1,1.89,1.15,6.09,6.09,0,0,1,1.45,1.53,3.74,3.74,0,0,1,.58,2.11,4,4,0,0,1-1.76,3.42,8,8,0,0,1-4.72,1.24,16.24,16.24,0,0,1-3.12-.31,11.29,11.29,0,0,1-2.77-.88,7.13,7.13,0,0,1,.53-2.3,16,16,0,0,1,1-2.08h1.07l1.54,3.43a1.59,1.59,0,0,0,.77.3,7.34,7.34,0,0,0,.8,0,2.82,2.82,0,0,0,1.67-.54A1.71,1.71,0,0,0,199,114.6Z"/><path class="cls-2" d="M86.78,157.1q0-4.21,1.64-6.29a5.78,5.78,0,0,1,4.84-2.08,6.43,6.43,0,0,1,1.74.19v1.4a5.55,5.55,0,0,0-1.72-.24,4.34,4.34,0,0,0-3.51,1.43,7.33,7.33,0,0,0-1.33,4.5h.12A3.74,3.74,0,0,1,92,154.3a4,4,0,0,1,3,1.16,4.38,4.38,0,0,1,1.11,3.15,4.86,4.86,0,0,1-1.22,3.5,4.33,4.33,0,0,1-3.29,1.27,4.22,4.22,0,0,1-3.52-1.67A7.36,7.36,0,0,1,86.78,157.1ZM91.57,162a2.71,2.71,0,0,0,2.15-.87,3.72,3.72,0,0,0,.77-2.52,3.25,3.25,0,0,0-.71-2.23,2.69,2.69,0,0,0-2.13-.81,3.59,3.59,0,0,0-1.61.36,3,3,0,0,0-1.17,1,2.3,2.3,0,0,0-.43,1.32,4.51,4.51,0,0,0,.39,1.88,3.31,3.31,0,0,0,1.11,1.38A2.76,2.76,0,0,0,91.57,162Z"/><path class="cls-2" d="M107.51,156a10.42,10.42,0,0,1-1.17,5.53,4.31,4.31,0,0,1-7.08,0,10.22,10.22,0,0,1-1.2-5.48,10.42,10.42,0,0,1,1.16-5.54,4.31,4.31,0,0,1,7.08.08A10.18,10.18,0,0,1,107.51,156Zm-7.8,0a10.46,10.46,0,0,0,.73,4.54,2.63,2.63,0,0,0,4.68,0,14.35,14.35,0,0,0,0-9,2.64,2.64,0,0,0-4.68,0A10.38,10.38,0,0,0,99.71,156Z"/><path class="cls-2" d="M118.33,152.28a3.26,3.26,0,0,1-.77,2.24,3.84,3.84,0,0,1-2.17,1.16v.08a4.09,4.09,0,0,1,2.55,1.09,3.22,3.22,0,0,1,.83,2.3,3.74,3.74,0,0,1-1.42,3.14,6.44,6.44,0,0,1-4,1.1,11.63,11.63,0,0,1-2.08-.17,7.14,7.14,0,0,1-1.83-.6v-1.54a9.35,9.35,0,0,0,4,.94q3.7,0,3.7-2.9,0-2.6-4.08-2.6H111.6v-1.4H113a4.3,4.3,0,0,0,2.65-.74,2.42,2.42,0,0,0,1-2,2,2,0,0,0-.72-1.64,3,3,0,0,0-1.95-.6,6,6,0,0,0-1.77.25,7.89,7.89,0,0,0-1.89.94l-.82-1.09a6.85,6.85,0,0,1,2-1.09,7.36,7.36,0,0,1,2.42-.4,4.94,4.94,0,0,1,3.23,1A3.21,3.21,0,0,1,118.33,152.28Z"/><path class="cls-2" d="M127.1,148.92h4a7.61,7.61,0,0,1,4.11.85,3,3,0,0,1,1.27,2.69,3.1,3.1,0,0,1-.71,2.09,3.41,3.41,0,0,1-2.07,1.07v.1q3.25.56,3.25,3.42a3.67,3.67,0,0,1-1.29,3,5.51,5.51,0,0,1-3.62,1.07h-5Zm1.66,6.11h2.73a4.45,4.45,0,0,0,2.53-.55,2.13,2.13,0,0,0,.77-1.86,1.88,1.88,0,0,0-.86-1.73,5.37,5.37,0,0,0-2.73-.53h-2.44Zm0,1.41v5.34h3a4.24,4.24,0,0,0,2.6-.67,2.47,2.47,0,0,0,.87-2.09,2.22,2.22,0,0,0-.89-2,4.77,4.77,0,0,0-2.72-.62Z"/><path class="cls-2" d="M144.7,152.3a6.34,6.34,0,0,1,1.28.12l-.22,1.5a5.52,5.52,0,0,0-1.17-.15,2.85,2.85,0,0,0-2.22,1.05,3.85,3.85,0,0,0-.92,2.63v5.74h-1.62V152.5h1.34l.19,2h.08a4.72,4.72,0,0,1,1.44-1.61A3.23,3.23,0,0,1,144.7,152.3Z"/><path class="cls-2" d="M147.84,149.6a1.08,1.08,0,0,1,.27-.82,1,1,0,0,1,1.36,0,1.06,1.06,0,0,1,.28.81,1.08,1.08,0,0,1-.28.82,1,1,0,0,1-1.36,0A1.1,1.1,0,0,1,147.84,149.6Zm1.76,13.6H148V152.5h1.62Z"/><path class="cls-2" d="M161.8,152.5v1l-2,.23a3.48,3.48,0,0,1,.7,2.14,3.17,3.17,0,0,1-1.07,2.51,4.33,4.33,0,0,1-2.95.94,4.94,4.94,0,0,1-.9-.08,1.59,1.59,0,0,0-1,1.38.7.7,0,0,0,.36.65,2.64,2.64,0,0,0,1.24.21h1.89a4.24,4.24,0,0,1,2.67.73,2.54,2.54,0,0,1,.93,2.13,3,3,0,0,1-1.43,2.71,7.63,7.63,0,0,1-4.16.93,5.69,5.69,0,0,1-3.24-.78A2.52,2.52,0,0,1,151.7,165a2.48,2.48,0,0,1,.63-1.69,3.18,3.18,0,0,1,1.76-1,1.7,1.7,0,0,1-.69-.58,1.53,1.53,0,0,1-.28-.91,1.73,1.73,0,0,1,.31-1,3.28,3.28,0,0,1,1-.85,2.89,2.89,0,0,1-1.35-1.16,3.41,3.41,0,0,1-.52-1.87,3.46,3.46,0,0,1,1.05-2.71,4.31,4.31,0,0,1,3-1,5.45,5.45,0,0,1,1.51.2ZM153.26,165a1.45,1.45,0,0,0,.73,1.32,4,4,0,0,0,2.1.45,5.86,5.86,0,0,0,3-.61,1.87,1.87,0,0,0,1-1.66,1.31,1.31,0,0,0-.54-1.21,4.17,4.17,0,0,0-2-.34H155.6a2.56,2.56,0,0,0-1.72.53A1.88,1.88,0,0,0,153.26,165Zm.88-9.07a2.18,2.18,0,0,0,.63,1.7,2.54,2.54,0,0,0,1.77.58,2.07,2.07,0,0,0,2.37-2.3,2.13,2.13,0,0,0-2.4-2.41,2.38,2.38,0,0,0-1.76.62A2.48,2.48,0,0,0,154.14,155.92Z"/><path class="cls-2" d="M171.32,163.2v-6.92a2.79,2.79,0,0,0-.6-2,2.43,2.43,0,0,0-1.87-.64,3.06,3.06,0,0,0-2.47.92,4.65,4.65,0,0,0-.78,3v5.6H164V148h1.62v4.6a10.07,10.07,0,0,1-.08,1.38h.1a3.31,3.31,0,0,1,1.36-1.22,4.43,4.43,0,0,1,2-.44,4.13,4.13,0,0,1,2.94.93,3.93,3.93,0,0,1,1,3v7Z"/><path class="cls-2" d="M179.73,162.06a5.34,5.34,0,0,0,.83-.06,5.26,5.26,0,0,0,.63-.13v1.24a3,3,0,0,1-.78.21,5.79,5.79,0,0,1-.92.08q-3.11,0-3.11-3.27v-6.37h-1.53V153l1.53-.67.68-2.29H178v2.48h3.11v1.26H178v6.3a2.17,2.17,0,0,0,.46,1.48A1.6,1.6,0,0,0,179.73,162.06Z"/><path class="cls-2" d="M192.57,157.84a5.9,5.9,0,0,1-1.32,4.09,4.64,4.64,0,0,1-3.64,1.47,4.82,4.82,0,0,1-2.55-.67,4.45,4.45,0,0,1-1.72-1.93,6.74,6.74,0,0,1-.61-2.95,5.9,5.9,0,0,1,1.31-4.08,4.63,4.63,0,0,1,3.63-1.46,4.53,4.53,0,0,1,3.57,1.49A5.88,5.88,0,0,1,192.57,157.84Zm-8.15,0a5.08,5.08,0,0,0,.82,3.13,3.26,3.26,0,0,0,4.83,0,5.06,5.06,0,0,0,.83-3.13,5,5,0,0,0-.83-3.1,2.9,2.9,0,0,0-2.44-1.06,2.85,2.85,0,0,0-2.4,1A5,5,0,0,0,184.41,157.84Z"/><path class="cls-2" d="M202.73,163.2v-6.92a2.79,2.79,0,0,0-.6-2,2.43,2.43,0,0,0-1.87-.64,3.08,3.08,0,0,0-2.46.91,4.59,4.59,0,0,0-.78,3v5.62h-1.62V152.5h1.32L197,154h.08a3.31,3.31,0,0,1,1.4-1.23,4.53,4.53,0,0,1,2-.43,4.06,4.06,0,0,1,2.91.93,4,4,0,0,1,1,3v7Z"/><path class="cls-2" d="M213.12,148.92h4a7.61,7.61,0,0,1,4.11.85,3,3,0,0,1,1.27,2.69,3.1,3.1,0,0,1-.71,2.09,3.41,3.41,0,0,1-2.07,1.07v.1q3.25.56,3.25,3.42a3.67,3.67,0,0,1-1.29,3,5.51,5.51,0,0,1-3.62,1.07h-5Zm1.66,6.11h2.73a4.45,4.45,0,0,0,2.53-.55,2.13,2.13,0,0,0,.77-1.86,1.88,1.88,0,0,0-.86-1.73,5.37,5.37,0,0,0-2.73-.53h-2.44Zm0,1.41v5.34h3a4.24,4.24,0,0,0,2.6-.67,2.47,2.47,0,0,0,.87-2.09,2.22,2.22,0,0,0-.89-2,4.77,4.77,0,0,0-2.72-.62Z"/><path class="cls-2" d="M230.36,163.4a4.92,4.92,0,0,1-3.75-1.45,5.59,5.59,0,0,1-1.37-4,6.2,6.2,0,0,1,1.27-4.11,4.23,4.23,0,0,1,3.42-1.52,4,4,0,0,1,3.18,1.32,5.07,5.07,0,0,1,1.17,3.49v1h-7.37a4.24,4.24,0,0,0,1,2.86,3.29,3.29,0,0,0,2.54,1,8.63,8.63,0,0,0,3.42-.72v1.45a8.62,8.62,0,0,1-1.63.53A9.14,9.14,0,0,1,230.36,163.4Zm-.44-9.74a2.65,2.65,0,0,0-2.06.84,3.87,3.87,0,0,0-.9,2.32h5.6a3.56,3.56,0,0,0-.68-2.35A2.41,2.41,0,0,0,229.92,153.66Z"/><path class="cls-2" d="M243.64,163.2l-.32-1.52h-.08a4.5,4.5,0,0,1-1.6,1.36,4.87,4.87,0,0,1-2,.36,3.57,3.57,0,0,1-2.5-.82,3,3,0,0,1-.9-2.33q0-3.24,5.19-3.4l1.82-.06v-.66a2.71,2.71,0,0,0-.54-1.86,2.23,2.23,0,0,0-1.73-.6,7.06,7.06,0,0,0-3,.82l-.5-1.24a7.65,7.65,0,0,1,1.73-.67,7.49,7.49,0,0,1,1.89-.24,4.08,4.08,0,0,1,2.84.85,3.55,3.55,0,0,1,.92,2.72v7.3ZM240,162.06a3.29,3.29,0,0,0,2.38-.83,3.07,3.07,0,0,0,.86-2.32v-1l-1.62.07a5.9,5.9,0,0,0-2.79.6,1.81,1.81,0,0,0-.85,1.66,1.67,1.67,0,0,0,.53,1.34A2.21,2.21,0,0,0,240,162.06Z"/><path class="cls-2" d="M252.46,163.4a4.57,4.57,0,0,1-3.6-1.43,5.88,5.88,0,0,1-1.27-4,6.07,6.07,0,0,1,1.29-4.15,4.66,4.66,0,0,1,3.69-1.46,7.34,7.34,0,0,1,1.54.17,5.08,5.08,0,0,1,1.21.39l-.5,1.38a7.64,7.64,0,0,0-1.17-.36,5.21,5.21,0,0,0-1.12-.14q-3.26,0-3.26,4.16a5,5,0,0,0,.8,3,2.77,2.77,0,0,0,2.36,1.05,7.22,7.22,0,0,0,2.74-.58v1.44A5.85,5.85,0,0,1,252.46,163.4Z"/><path class="cls-2" d="M265,163.2v-6.92a2.79,2.79,0,0,0-.6-2,2.43,2.43,0,0,0-1.87-.64,3.06,3.06,0,0,0-2.47.92,4.65,4.65,0,0,0-.78,3v5.6H257.7V148h1.62v4.6a10.07,10.07,0,0,1-.08,1.38h.1a3.31,3.31,0,0,1,1.36-1.22,4.43,4.43,0,0,1,2-.44,4.13,4.13,0,0,1,2.94.93,3.93,3.93,0,0,1,1,3v7Z"/><path class="cls-2" d="M284.39,163.2l-1.78-4.54h-5.72l-1.76,4.54h-1.68l5.64-14.34h1.4l5.62,14.34Zm-2.29-6-1.66-4.42q-.32-.84-.66-2.06a18.66,18.66,0,0,1-.62,2.06l-1.68,4.42Z"/><path class="cls-2" d="M290.18,163.2l-4.06-10.7h1.74l2.3,6.35a30.07,30.07,0,0,1,.92,2.89h.08a21.77,21.77,0,0,1,.68-2.14q.57-1.63,2.56-7.09h1.74l-4.06,10.7Z"/><path class="cls-2" d="M302.37,163.4a4.92,4.92,0,0,1-3.75-1.45,5.59,5.59,0,0,1-1.37-4,6.2,6.2,0,0,1,1.27-4.11A4.23,4.23,0,0,1,302,152.3a4,4,0,0,1,3.18,1.32,5.07,5.07,0,0,1,1.17,3.49v1h-7.37a4.24,4.24,0,0,0,1,2.86,3.29,3.29,0,0,0,2.54,1,8.63,8.63,0,0,0,3.42-.72v1.45a8.62,8.62,0,0,1-1.63.53A9.14,9.14,0,0,1,302.37,163.4Zm-.44-9.74a2.65,2.65,0,0,0-2.06.84,3.87,3.87,0,0,0-.9,2.32h5.6a3.56,3.56,0,0,0-.68-2.35A2.41,2.41,0,0,0,301.93,153.66Z"/><path class="cls-2" d="M308.84,162.17a1.46,1.46,0,0,1,.3-1,1.08,1.08,0,0,1,.85-.34,1.16,1.16,0,0,1,.88.34,1.39,1.39,0,0,1,.32,1,1.37,1.37,0,0,1-.32,1,1.28,1.28,0,0,1-1.7,0A1.34,1.34,0,0,1,308.84,162.17Z"/><path class="cls-2" d="M87.6,172.92h4a7.61,7.61,0,0,1,4.11.85A3,3,0,0,1,97,176.46a3.1,3.1,0,0,1-.71,2.09,3.41,3.41,0,0,1-2.07,1.07v.1q3.25.56,3.25,3.42a3.67,3.67,0,0,1-1.29,3,5.51,5.51,0,0,1-3.62,1.07h-5ZM89.26,179H92a4.45,4.45,0,0,0,2.53-.55,2.13,2.13,0,0,0,.77-1.86,1.88,1.88,0,0,0-.86-1.73,5.37,5.37,0,0,0-2.73-.53H89.26Zm0,1.41v5.34h3a4.24,4.24,0,0,0,2.6-.67,2.47,2.47,0,0,0,.87-2.09,2.22,2.22,0,0,0-.89-2,4.77,4.77,0,0,0-2.72-.62Z"/><path class="cls-2" d="M105.19,176.3a6.34,6.34,0,0,1,1.28.12l-.22,1.5a5.52,5.52,0,0,0-1.17-.15,2.85,2.85,0,0,0-2.22,1.05,3.85,3.85,0,0,0-.92,2.63v5.74h-1.62V176.5h1.34l.19,2h.08a4.72,4.72,0,0,1,1.44-1.61A3.23,3.23,0,0,1,105.19,176.3Z"/><path class="cls-2" d="M117.71,181.84a5.9,5.9,0,0,1-1.32,4.09,4.64,4.64,0,0,1-3.64,1.47,4.82,4.82,0,0,1-2.55-.67,4.45,4.45,0,0,1-1.72-1.93,6.74,6.74,0,0,1-.61-2.95,5.9,5.9,0,0,1,1.31-4.08,4.63,4.63,0,0,1,3.63-1.46,4.53,4.53,0,0,1,3.57,1.49A5.88,5.88,0,0,1,117.71,181.84Zm-8.15,0a5.08,5.08,0,0,0,.82,3.13,3.26,3.26,0,0,0,4.83,0,5.06,5.06,0,0,0,.83-3.13,5,5,0,0,0-.83-3.1,2.9,2.9,0,0,0-2.44-1.06,2.85,2.85,0,0,0-2.4,1A5,5,0,0,0,109.56,181.84Z"/><path class="cls-2" d="M129.79,181.84a5.9,5.9,0,0,1-1.32,4.09,4.64,4.64,0,0,1-3.64,1.47,4.82,4.82,0,0,1-2.55-.67,4.45,4.45,0,0,1-1.72-1.93,6.74,6.74,0,0,1-.61-2.95,5.9,5.9,0,0,1,1.31-4.08,4.63,4.63,0,0,1,3.63-1.46,4.53,4.53,0,0,1,3.57,1.49A5.88,5.88,0,0,1,129.79,181.84Zm-8.15,0a5.08,5.08,0,0,0,.82,3.13,3.26,3.26,0,0,0,4.83,0,5.06,5.06,0,0,0,.83-3.13,5,5,0,0,0-.83-3.1,2.9,2.9,0,0,0-2.44-1.06,2.85,2.85,0,0,0-2.4,1A5,5,0,0,0,121.64,181.84Z"/><path class="cls-2" d="M134.24,181.72a19,19,0,0,1,1.28-1.56L139,176.5h1.92l-4.34,4.56,4.64,6.14h-2l-3.78-5.06-1.22,1.05v4h-1.6V172h1.6v8.06q0,.54-.08,1.66Z"/><path class="cls-2" d="M144.76,187.2h-1.62V172h1.62Z"/><path class="cls-2" d="M146.49,176.5h1.74l2.34,6.1a23.25,23.25,0,0,1,1,3h.08q.13-.5.53-1.7t2.65-7.42h1.74l-4.6,12.19a6.09,6.09,0,0,1-1.6,2.56,3.39,3.39,0,0,1-2.24.76,6.54,6.54,0,0,1-1.46-.17v-1.3a5.65,5.65,0,0,0,1.2.12,2.48,2.48,0,0,0,2.38-1.87l.6-1.52Z"/><path class="cls-2" d="M165.6,187.2v-6.92a2.79,2.79,0,0,0-.6-2,2.43,2.43,0,0,0-1.87-.64,3.08,3.08,0,0,0-2.46.91,4.59,4.59,0,0,0-.78,3v5.62h-1.62V176.5h1.32l.26,1.46h.08a3.31,3.31,0,0,1,1.4-1.23,4.53,4.53,0,0,1,2-.43,4.06,4.06,0,0,1,2.91.93,4,4,0,0,1,1,3v7Z"/><path class="cls-2" d="M172.25,184.88l.15.22q-.25,1-.73,2.27t-1,2.41h-1.22q.26-1,.58-2.51t.44-2.39Z"/><path class="cls-2" d="M192,187.2h-1.89l-7.8-12h-.08q.16,2.11.16,3.87v8.12h-1.53V172.92h1.88l7.78,11.93h.08q0-.26-.09-1.69t0-2v-8.19H192Z"/><path class="cls-2" d="M199.6,180.06l3.81-7.14h1.8l-4.77,8.74v5.54h-1.68v-5.46L194,172.92h1.82Z"/><path class="cls-2" d="M217.38,187.2H215.8V177q0-1.27.08-2.4l-.46.43q-.25.22-2.32,1.9l-.86-1.11,3.78-2.92h1.37Z"/><path class="cls-2" d="M228.82,187.2h-1.58V177q0-1.27.08-2.4l-.46.43q-.25.22-2.32,1.9l-.86-1.11,3.78-2.92h1.37Z"/><path class="cls-2" d="M243.63,187.2h-9.38v-1.4L238,182a27.69,27.69,0,0,0,2.27-2.48,6.36,6.36,0,0,0,.82-1.45,4.13,4.13,0,0,0,.27-1.51,2.4,2.4,0,0,0-.69-1.81,2.65,2.65,0,0,0-1.92-.67,4.83,4.83,0,0,0-1.68.29,6.72,6.72,0,0,0-1.77,1.06l-.86-1.1a6.58,6.58,0,0,1,4.3-1.64,4.54,4.54,0,0,1,3.15,1,3.54,3.54,0,0,1,1.14,2.77,5.35,5.35,0,0,1-.76,2.69,17,17,0,0,1-2.85,3.36l-3.12,3.06v.08h7.34Z"/><path class="cls-2" d="M254.53,176.28a3.26,3.26,0,0,1-.77,2.24,3.84,3.84,0,0,1-2.17,1.16v.08a4.09,4.09,0,0,1,2.55,1.09,3.22,3.22,0,0,1,.83,2.3,3.74,3.74,0,0,1-1.42,3.14,6.44,6.44,0,0,1-4,1.1,11.63,11.63,0,0,1-2.08-.17,7.14,7.14,0,0,1-1.83-.6v-1.54a9.35,9.35,0,0,0,4,.94q3.7,0,3.7-2.9,0-2.6-4.08-2.6H247.8v-1.4h1.43a4.3,4.3,0,0,0,2.65-.74,2.42,2.42,0,0,0,1-2,2,2,0,0,0-.72-1.64,3,3,0,0,0-1.95-.6,6,6,0,0,0-1.77.25,7.89,7.89,0,0,0-1.89.94l-.82-1.09a6.85,6.85,0,0,1,2-1.09,7.36,7.36,0,0,1,2.42-.4,4.94,4.94,0,0,1,3.23,1A3.21,3.21,0,0,1,254.53,176.28Z"/><path class="cls-2" d="M261.58,178.48a5.25,5.25,0,0,1,3.55,1.12,3.83,3.83,0,0,1,1.29,3.06,4.42,4.42,0,0,1-1.41,3.48,5.64,5.64,0,0,1-3.89,1.26,7.16,7.16,0,0,1-3.68-.77v-1.56a5.6,5.6,0,0,0,1.7.69,8.39,8.39,0,0,0,2,.25,4,4,0,0,0,2.67-.81,2.91,2.91,0,0,0,1-2.34q0-3-3.66-3a14.62,14.62,0,0,0-2.48.28l-.84-.54.54-6.68h7.1v1.49h-5.71l-.36,4.29A11.41,11.41,0,0,1,261.58,178.48Z"/><path class="cls-2" d="M376.08,115.92a13.4,13.4,0,0,1,1.68.36,9.47,9.47,0,0,1,1.5.55V118H368.78v-1.2a6.51,6.51,0,0,1,1.27-.57,11.41,11.41,0,0,1,1.31-.35V98.11a8.3,8.3,0,0,1-1.38-.36,7,7,0,0,1-1.2-.55V96h4q1.26,0,2.88-.13t3-.13a15.93,15.93,0,0,1,3.26.33,8.46,8.46,0,0,1,2.83,1.12,6,6,0,0,1,2,2.09,6.43,6.43,0,0,1,.75,3.26,6.39,6.39,0,0,1-2.71,5.45,8.55,8.55,0,0,1-2.83,1.31,12.85,12.85,0,0,1-3.3.42h-.5l-.74,0-.75,0a4,4,0,0,1-.52,0Zm1.7-18.13a8.15,8.15,0,0,0-1,0,5.47,5.47,0,0,0-.71.14v9.57a3.14,3.14,0,0,0,.85.11l.91,0a4.78,4.78,0,0,0,1.64-.28,3.86,3.86,0,0,0,1.4-.88,4.4,4.4,0,0,0,1-1.54,6.1,6.1,0,0,0,.38-2.27A5,5,0,0,0,381,99,4.45,4.45,0,0,0,377.78,97.79Z"/><path class="cls-2" d="M408.06,118h-8.34v-1.2q.38-.22.79-.41a6.93,6.93,0,0,1,.94-.35V109.7a11.32,11.32,0,0,0-.52-4,2,2,0,0,0-2-1.28,2.94,2.94,0,0,0-2.14.87,5,5,0,0,0-1.26,2v8.77a7.13,7.13,0,0,1,.9.28,4.07,4.07,0,0,1,.83.47V118h-8.34v-1.2a8.73,8.73,0,0,1,2.08-.76V96.94l-2.39-.25v-1.2a10,10,0,0,1,1.21-.38q.74-.19,1.56-.33t1.64-.25l1.45-.17h1.07v11.11h0a5.71,5.71,0,0,1,.85-1.37,6.53,6.53,0,0,1,1.21-1.13,5.9,5.9,0,0,1,1.46-.77,4.89,4.89,0,0,1,1.67-.28,7.8,7.8,0,0,1,2.25.3,3.48,3.48,0,0,1,1.65,1.06,5.05,5.05,0,0,1,1,2,12.63,12.63,0,0,1,.35,3.23v7.54q.53.13,1.07.28a3.7,3.7,0,0,1,1,.47Z"/><path class="cls-2" d="M409.41,110.16a9.6,9.6,0,0,1,.58-3.45,7,7,0,0,1,4.3-4.23,10.08,10.08,0,0,1,3.49-.57,10.53,10.53,0,0,1,3.79.61,7,7,0,0,1,2.61,1.7,6.6,6.6,0,0,1,1.5,2.61,11.21,11.21,0,0,1,.47,3.32,9.85,9.85,0,0,1-.57,3.45,7,7,0,0,1-1.65,2.6,7.22,7.22,0,0,1-2.64,1.64,11.35,11.35,0,0,1-7.22,0,7.13,7.13,0,0,1-2.61-1.7,6.79,6.79,0,0,1-1.54-2.61A10.53,10.53,0,0,1,409.41,110.16Zm4.88,0a17.83,17.83,0,0,0,.17,2.6,6,6,0,0,0,.61,2,3.25,3.25,0,0,0,1.2,1.27,3.72,3.72,0,0,0,2,.46,2.46,2.46,0,0,0,1.26-.33,2.73,2.73,0,0,0,1-1.07,6.22,6.22,0,0,0,.61-2,18.21,18.21,0,0,0,.21-3,17.88,17.88,0,0,0-.17-2.61,6.31,6.31,0,0,0-.6-2,3.23,3.23,0,0,0-1.15-1.27,3.37,3.37,0,0,0-1.83-.46,2.89,2.89,0,0,0-1.42.33,2.63,2.63,0,0,0-1,1.07,6.19,6.19,0,0,0-.61,2A18.2,18.2,0,0,0,414.29,110.16Z"/><path class="cls-2" d="M447,118h-8.34v-1.2q.41-.22.8-.39c.26-.12.57-.24.93-.36v-7.41a7,7,0,0,0-.57-3.11,2.06,2.06,0,0,0-2-1.12,3,3,0,0,0-2.06.77,4.75,4.75,0,0,0-1.31,2.1v8.77a5.73,5.73,0,0,1,.9.3,6.13,6.13,0,0,1,.83.46V118h-8.34v-1.2a10.45,10.45,0,0,1,2.08-.76V104.5l-2.08-.25V103a6.68,6.68,0,0,1,1.07-.36q.66-.17,1.43-.33t1.57-.27q.8-.11,1.46-.17h1.07v3.24h0a6.29,6.29,0,0,1,2-2.28,5.32,5.32,0,0,1,3.21-1,7.52,7.52,0,0,1,2.2.3,3.6,3.6,0,0,1,1.65,1.06,5.09,5.09,0,0,1,1,2,12.1,12.1,0,0,1,.36,3.23v7.54a5.5,5.5,0,0,1,2.08.76Z"/><path class="cls-2" d="M462.69,115.38a4,4,0,0,1-.8,1.09,5.62,5.62,0,0,1-1.35,1,8.33,8.33,0,0,1-1.86.69,9.29,9.29,0,0,1-2.28.27,9.59,9.59,0,0,1-3.46-.58,6.62,6.62,0,0,1-2.52-1.67,7.2,7.2,0,0,1-1.53-2.6,10.4,10.4,0,0,1-.52-3.4,8.32,8.32,0,0,1,2.11-6.14,7.91,7.91,0,0,1,5.85-2.11,10,10,0,0,1,3,.44,5.24,5.24,0,0,1,2.33,1.45,5.59,5.59,0,0,1,1.29,2.64,10.49,10.49,0,0,1,0,4h-9.66a6.09,6.09,0,0,0,1.27,4,4.52,4.52,0,0,0,3.67,1.48,7.94,7.94,0,0,0,2.16-.31,4.93,4.93,0,0,0,1.75-.82Zm-6.5-11.68a2.67,2.67,0,0,0-1.11.22,2,2,0,0,0-.84.8,5.14,5.14,0,0,0-.58,1.57,16.75,16.75,0,0,0-.31,2.5h5a8.86,8.86,0,0,0-.28-3.78A1.88,1.88,0,0,0,456.19,103.71Z"/><path class="cls-2" d="M370,157.72a15.12,15.12,0,0,1,.76-4.84,12.05,12.05,0,0,1,2.18-4h1.58a13.76,13.76,0,0,0-2.11,4.14,15.41,15.41,0,0,0-.71,4.64,14.82,14.82,0,0,0,.72,4.58,14.2,14.2,0,0,0,2.08,4.08h-1.56a11.5,11.5,0,0,1-2.19-3.88A14.75,14.75,0,0,1,370,157.72Z"/><path class="cls-2" d="M377.87,163.2l5.92-12.78H376v-1.49h9.5v1.3l-5.84,13Z"/><path class="cls-2" d="M393.51,163.2h-1.58V153q0-1.27.08-2.4l-.46.43q-.25.22-2.32,1.9l-.86-1.11,3.78-2.92h1.37Z"/><path class="cls-2" d="M403.66,148.72a4.84,4.84,0,0,1,3.1.91,3,3,0,0,1,1.14,2.51,3.12,3.12,0,0,1-.65,1.92,5.79,5.79,0,0,1-2.09,1.58,7,7,0,0,1,2.47,1.74,3.28,3.28,0,0,1,.73,2.11,3.54,3.54,0,0,1-1.24,2.84,5.07,5.07,0,0,1-3.4,1.06,5.44,5.44,0,0,1-3.52-1,3.45,3.45,0,0,1-1.23-2.84q0-2.45,3-3.82a5.52,5.52,0,0,1-1.93-1.65,3.5,3.5,0,0,1-.59-2,3,3,0,0,1,1.15-2.48A4.76,4.76,0,0,1,403.66,148.72Zm-3.09,10.88a2.21,2.21,0,0,0,.82,1.83,3.57,3.57,0,0,0,2.29.65,3.41,3.41,0,0,0,2.27-.68,2.32,2.32,0,0,0,.81-1.87,2.28,2.28,0,0,0-.76-1.68,7.78,7.78,0,0,0-2.66-1.43,5.79,5.79,0,0,0-2.11,1.38A2.68,2.68,0,0,0,400.58,159.6Zm3.07-9.56a2.87,2.87,0,0,0-1.91.59,1.94,1.94,0,0,0-.69,1.56,2.24,2.24,0,0,0,.58,1.54,6,6,0,0,0,2.13,1.29,5.34,5.34,0,0,0,2-1.26,2.33,2.33,0,0,0,.58-1.57,1.92,1.92,0,0,0-.71-1.57A3,3,0,0,0,403.64,150Z"/><path class="cls-2" d="M414.51,157.72a14.71,14.71,0,0,1-.76,4.79,11.46,11.46,0,0,1-2.18,3.86H410a14,14,0,0,0,2.08-4.08,14.86,14.86,0,0,0,.72-4.58,15.41,15.41,0,0,0-.71-4.64,13.76,13.76,0,0,0-2.11-4.14h1.58a12,12,0,0,1,2.19,4A15.21,15.21,0,0,1,414.51,157.72Z"/><path class="cls-2" d="M423.29,163.2l5.92-12.78h-7.78v-1.49h9.5v1.3l-5.84,13Z"/><path class="cls-2" d="M441.77,152.28a3.26,3.26,0,0,1-.77,2.24,3.84,3.84,0,0,1-2.17,1.16v.08a4.09,4.09,0,0,1,2.55,1.09,3.22,3.22,0,0,1,.83,2.3,3.74,3.74,0,0,1-1.42,3.14,6.44,6.44,0,0,1-4,1.1,11.63,11.63,0,0,1-2.08-.17,7.14,7.14,0,0,1-1.83-.6v-1.54a9.35,9.35,0,0,0,4,.94q3.7,0,3.7-2.9,0-2.6-4.08-2.6H435v-1.4h1.43a4.3,4.3,0,0,0,2.65-.74,2.42,2.42,0,0,0,1-2,2,2,0,0,0-.72-1.64,3,3,0,0,0-1.95-.6,6,6,0,0,0-1.77.25,7.89,7.89,0,0,0-1.89.94l-.82-1.09a6.85,6.85,0,0,1,2-1.09,7.36,7.36,0,0,1,2.42-.4,4.94,4.94,0,0,1,3.23,1A3.21,3.21,0,0,1,441.77,152.28Z"/><path class="cls-2" d="M453.82,156a10.42,10.42,0,0,1-1.17,5.53,4.31,4.31,0,0,1-7.08,0,10.22,10.22,0,0,1-1.2-5.48,10.42,10.42,0,0,1,1.16-5.54,4.31,4.31,0,0,1,7.08.08A10.18,10.18,0,0,1,453.82,156Zm-7.8,0a10.46,10.46,0,0,0,.73,4.54,2.63,2.63,0,0,0,4.68,0,14.35,14.35,0,0,0,0-9,2.64,2.64,0,0,0-4.68,0A10.38,10.38,0,0,0,446,156Z"/><path class="cls-2" d="M455.63,158.58V157.1h4.79v1.48Z"/><path class="cls-2" d="M471.61,155q0,8.38-6.48,8.38a6.62,6.62,0,0,1-1.8-.2v-1.4a5.75,5.75,0,0,0,1.78.25,4.32,4.32,0,0,0,3.54-1.45,7.33,7.33,0,0,0,1.3-4.45h-.12a3.48,3.48,0,0,1-1.43,1.24,4.59,4.59,0,0,1-2,.42,4,4,0,0,1-3-1.13,4.32,4.32,0,0,1-1.11-3.16,4.85,4.85,0,0,1,1.25-3.52,4.76,4.76,0,0,1,5.82-.54,4.72,4.72,0,0,1,1.67,2.18A8.87,8.87,0,0,1,471.61,155Zm-4.8-4.91a2.68,2.68,0,0,0-2.16.9,3.75,3.75,0,0,0-.76,2.5,3.25,3.25,0,0,0,.7,2.21,2.69,2.69,0,0,0,2.14.81,3.7,3.7,0,0,0,1.64-.36,3,3,0,0,0,1.18-1,2.28,2.28,0,0,0,.43-1.31,4.48,4.48,0,0,0-.4-1.89,3.3,3.3,0,0,0-1.12-1.37A2.82,2.82,0,0,0,466.81,150.1Z"/><path class="cls-2" d="M483.72,159.92H481.6v3.28H480v-3.28H473.1V158.5l6.78-9.66h1.72v9.6h2.12ZM480,158.44V153.7q0-1.4.1-3.15h-.08a14.67,14.67,0,0,1-.88,1.55l-4.46,6.35Z"/><path class="cls-2" d="M494.48,155q0,8.38-6.48,8.38a6.62,6.62,0,0,1-1.8-.2v-1.4a5.75,5.75,0,0,0,1.78.25,4.32,4.32,0,0,0,3.54-1.45,7.33,7.33,0,0,0,1.3-4.45h-.12a3.48,3.48,0,0,1-1.43,1.24,4.59,4.59,0,0,1-2,.42,4,4,0,0,1-3-1.13,4.32,4.32,0,0,1-1.11-3.16A4.85,4.85,0,0,1,486.4,150a4.76,4.76,0,0,1,5.82-.54,4.72,4.72,0,0,1,1.67,2.18A8.87,8.87,0,0,1,494.48,155Zm-4.8-4.91a2.68,2.68,0,0,0-2.16.9,3.75,3.75,0,0,0-.76,2.5,3.25,3.25,0,0,0,.7,2.21,2.69,2.69,0,0,0,2.14.81,3.7,3.7,0,0,0,1.64-.36,3,3,0,0,0,1.18-1,2.28,2.28,0,0,0,.43-1.31,4.48,4.48,0,0,0-.4-1.89,3.3,3.3,0,0,0-1.12-1.37A2.82,2.82,0,0,0,489.68,150.1Z"/><path class="cls-2" d="M498.34,163.2l5.92-12.78h-7.78v-1.49H506v1.3l-5.84,13Z"/><path class="cls-2" d="M582.26,118h-9.54v-1.2a9.28,9.28,0,0,1,1.24-.54,9.64,9.64,0,0,1,1.34-.38V98.11a8.05,8.05,0,0,1-1.45-.38,5.74,5.74,0,0,1-1.13-.54V96h9.54v1.2a6.66,6.66,0,0,1-1.05.57,4.87,4.87,0,0,1-1.18.35v7.62h8.34V98.11a5.18,5.18,0,0,1-1.24-.38,8,8,0,0,1-1-.54V96h9.54v1.2a5.07,5.07,0,0,1-1.23.57,11.52,11.52,0,0,1-1.35.35v17.81a7.9,7.9,0,0,1,1.4.38,8.36,8.36,0,0,1,1.18.54V118h-9.54v-1.2a9.54,9.54,0,0,1,1-.54,5.67,5.67,0,0,1,1.2-.38v-8.15H580v8.15a6.27,6.27,0,0,1,1.17.35,6.51,6.51,0,0,1,1.07.57Z"/><path class="cls-2" d="M597.28,110.16a9.6,9.6,0,0,1,.58-3.45,7,7,0,0,1,4.3-4.23,10.08,10.08,0,0,1,3.49-.57,10.53,10.53,0,0,1,3.79.61,7,7,0,0,1,2.61,1.7,6.6,6.6,0,0,1,1.5,2.61,11.21,11.21,0,0,1,.47,3.32,9.85,9.85,0,0,1-.57,3.45,7,7,0,0,1-1.65,2.6,7.22,7.22,0,0,1-2.64,1.64,11.35,11.35,0,0,1-7.22,0,7.13,7.13,0,0,1-2.61-1.7,6.79,6.79,0,0,1-1.54-2.61A10.53,10.53,0,0,1,597.28,110.16Zm4.88,0a17.83,17.83,0,0,0,.17,2.6,6,6,0,0,0,.61,2,3.25,3.25,0,0,0,1.2,1.27,3.72,3.72,0,0,0,2,.46,2.46,2.46,0,0,0,1.26-.33,2.73,2.73,0,0,0,1-1.07,6.22,6.22,0,0,0,.61-2,18.21,18.21,0,0,0,.21-3,17.88,17.88,0,0,0-.17-2.61,6.31,6.31,0,0,0-.6-2,3.23,3.23,0,0,0-1.15-1.27,3.37,3.37,0,0,0-1.83-.46,2.89,2.89,0,0,0-1.42.33,2.63,2.63,0,0,0-1,1.07,6.19,6.19,0,0,0-.61,2A18.2,18.2,0,0,0,602.15,110.16Z"/><path class="cls-2" d="M617.23,111.78q0-2,.09-3.69t.09-3.6l-2.08-.25V103a12.22,12.22,0,0,1,1.24-.38q.74-.19,1.53-.33l1.53-.25,1.24-.17h1.07q0,2.36-.09,4.64t-.09,4.49a9.6,9.6,0,0,0,.52,3.71,1.93,1.93,0,0,0,1.94,1.13,2.67,2.67,0,0,0,1.81-.74,5.37,5.37,0,0,0,1.37-2.38V104.5l-2-.25V103a10.58,10.58,0,0,1,1.18-.38q.71-.19,1.48-.33l1.53-.25,1.32-.17h1.07v13.88L634,116v1.1a9.44,9.44,0,0,1-1.1.38q-.66.19-1.38.36t-1.43.28l-1.27.17h-1.07l-.22-3.75h-.12a4.72,4.72,0,0,1-.57,1.34,5,5,0,0,1-1.05,1.23,5.31,5.31,0,0,1-3.48,1.24,6.93,6.93,0,0,1-2.12-.3,3.5,3.5,0,0,1-1.59-1.06,5.05,5.05,0,0,1-1-2A12.59,12.59,0,0,1,617.23,111.78Z"/><path class="cls-2" d="M643.7,105.91a4.39,4.39,0,0,0-.88.63,3.83,3.83,0,0,0-.91,1.45v8.08a7.63,7.63,0,0,1,1.26.24,5.83,5.83,0,0,1,1.26.52V118h-9.13v-1.2a5.75,5.75,0,0,1,1.07-.47q.5-.16,1-.29V104.5l-2.08-.25V103a8.28,8.28,0,0,1,1.24-.41q.74-.19,1.53-.33t1.53-.24l1.24-.16h1.07v4.19H642a7.29,7.29,0,0,1,.74-1.45,7.61,7.61,0,0,1,1.15-1.38,5.63,5.63,0,0,1,1.45-1,3.45,3.45,0,0,1,1.64-.35,3.93,3.93,0,0,1,.6,1.24q.25.8.41,1.53v1.23Z"/><path class="cls-2" d="M657.2,114.6a2,2,0,0,0-.58-1.42,6.77,6.77,0,0,0-1.45-1.1q-.87-.5-1.89-1a10.72,10.72,0,0,1-1.89-1.18,6.3,6.3,0,0,1-1.45-1.59,4.07,4.07,0,0,1-.58-2.23,3.39,3.39,0,0,1,.44-1.71A4.06,4.06,0,0,1,651,103a5.89,5.89,0,0,1,1.81-.83,8.33,8.33,0,0,1,2.28-.3,17.66,17.66,0,0,1,3.16.27,12.07,12.07,0,0,1,2.57.74,11.57,11.57,0,0,1-.5,2.16q-.38,1.15-.72,2.09h-1.07L657.2,104a2.86,2.86,0,0,0-.79-.21,8.08,8.08,0,0,0-.91,0,1.78,1.78,0,0,0-1.92,1.79,1.87,1.87,0,0,0,.58,1.37,7,7,0,0,0,1.45,1.09q.87.5,1.89,1a12.13,12.13,0,0,1,1.89,1.15,6.09,6.09,0,0,1,1.45,1.53,3.74,3.74,0,0,1,.58,2.11,4,4,0,0,1-1.76,3.42,8,8,0,0,1-4.72,1.24,16.24,16.24,0,0,1-3.12-.31,11.29,11.29,0,0,1-2.77-.88,7.13,7.13,0,0,1,.53-2.3,16,16,0,0,1,1-2.08h1.07l1.54,3.43a1.59,1.59,0,0,0,.77.3,7.34,7.34,0,0,0,.8,0,2.82,2.82,0,0,0,1.67-.54A1.71,1.71,0,0,0,657.2,114.6Z"/><path class="cls-2" d="M583.48,155q0,8.38-6.48,8.38a6.62,6.62,0,0,1-1.8-.2v-1.4a5.75,5.75,0,0,0,1.78.25,4.32,4.32,0,0,0,3.54-1.45,7.33,7.33,0,0,0,1.3-4.45h-.12a3.48,3.48,0,0,1-1.43,1.24,4.59,4.59,0,0,1-2,.42,4,4,0,0,1-3-1.13,4.32,4.32,0,0,1-1.11-3.16A4.85,4.85,0,0,1,575.4,150a4.76,4.76,0,0,1,5.82-.54,4.72,4.72,0,0,1,1.67,2.18A8.87,8.87,0,0,1,583.48,155Zm-4.8-4.91a2.68,2.68,0,0,0-2.16.9,3.75,3.75,0,0,0-.76,2.5,3.25,3.25,0,0,0,.7,2.21,2.69,2.69,0,0,0,2.14.81,3.7,3.7,0,0,0,1.64-.36,3,3,0,0,0,1.18-1,2.28,2.28,0,0,0,.43-1.31,4.48,4.48,0,0,0-.4-1.89,3.3,3.3,0,0,0-1.12-1.37A2.82,2.82,0,0,0,578.68,150.1Z"/><path class="cls-2" d="M595.49,163.2l-1.78-4.54H588l-1.76,4.54h-1.68l5.64-14.34h1.4l5.62,14.34Zm-2.29-6-1.66-4.42q-.32-.84-.66-2.06a18.66,18.66,0,0,1-.62,2.06l-1.68,4.42Z"/><path class="cls-2" d="M605.49,163.2l-4.84-12.66h-.08q.14,1.5.14,3.57v9.08h-1.53V148.92h2.5l4.52,11.78h.08l4.56-11.78h2.48V163.2h-1.66V154q0-1.58.14-3.44h-.08l-4.88,12.64Z"/><path class="cls-2" d="M621.28,158.58V157.1h4.79v1.48Z"/><path class="cls-2" d="M634.88,163.2l5.92-12.78H633v-1.49h9.5v1.3l-5.84,13Z"/><path class="cls-2" d="M654.54,153.08a4,4,0,0,1-1.48,3.33,6.7,6.7,0,0,1-4.23,1.17h-1.68v5.62h-1.66V148.92h3.7Q654.54,148.92,654.54,153.08Zm-7.39,3.08h1.49a5.55,5.55,0,0,0,3.19-.71,2.63,2.63,0,0,0,1-2.29,2.46,2.46,0,0,0-.93-2.11,4.85,4.85,0,0,0-2.89-.69h-1.86Z"/><path class="cls-2" d="M663.85,163.2,659,150.54h-.08q.14,1.5.14,3.57v9.08h-1.53V148.92H660l4.52,11.78h.08l4.56-11.78h2.48V163.2H670V154q0-1.58.14-3.44h-.08l-4.88,12.64Z"/></g></g></svg>