<svg xmlns="http://www.w3.org/2000/svg" viewBox="0 0 819 296"><defs><style>.cls-1{fill:#fff;}.cls-2{fill:#1c2c58;}.cls-3{fill:#636464;}.cls-4{fill:none;stroke:#231f20;stroke-miterlimit:10;stroke-width:0.5px;}</style></defs><title>contact-intro</title><g id="Layer_2" data-name="Layer 2"><g id="Layer_1-2" data-name="Layer 1"><rect class="cls-1" width="819" height="296"/><path class="cls-2" d="M92.39,67.95H84.61v-1.2a6.94,6.94,0,0,1,1.09-.55,7.23,7.23,0,0,1,1.15-.36L95,45.54H97.3l7.9,20.3a8.17,8.17,0,0,1,1.26.36,5.42,5.42,0,0,1,1.1.55v1.2H97.71v-1.2q.6-.28,1.29-.54a9.07,9.07,0,0,1,1.32-.38l-1.83-5h-7l-1.86,5a7.55,7.55,0,0,1,2.74.91Zm-.13-9.16h5.57l-2-6-.6-2.71h-.06l-.69,2.77Z"/><path class="cls-2" d="M119.26,64.83a4.08,4.08,0,0,1-.57,1.32,5.18,5.18,0,0,1-1,1.12,4.4,4.4,0,0,1-1.29.77,4.2,4.2,0,0,1-1.54.28,5.78,5.78,0,0,1-4.74-2q-1.62-2-1.62-6a10.62,10.62,0,0,1,.57-3.63,7.41,7.41,0,0,1,1.59-2.63,6.48,6.48,0,0,1,2.47-1.61,9.21,9.21,0,0,1,3.21-.53q.57,0,1,0l.72.08a3.07,3.07,0,0,1,.63.16l.68.24V46.87L117,46.61v-1.2a6.5,6.5,0,0,1,1.21-.35l1.62-.3,1.67-.27,1.35-.22h1.07V65.72L126,66v1.1a6.32,6.32,0,0,1-1.13.41q-.69.19-1.45.35t-1.46.27l-1.18.17h-1.07l-.28-3.43Zm-2.86,1a2.64,2.64,0,0,0,1.86-.69,4.35,4.35,0,0,0,1.1-2.36V54.29a3.69,3.69,0,0,0-1-.41,6.23,6.23,0,0,0-1.53-.16,2.69,2.69,0,0,0-2.61,1.65,11.53,11.53,0,0,0-.79,4.8,10.11,10.11,0,0,0,.69,4.09A2.36,2.36,0,0,0,116.4,65.81Z"/><path class="cls-2" d="M138.12,64.83a4.08,4.08,0,0,1-.57,1.32,5.18,5.18,0,0,1-1,1.12,4.4,4.4,0,0,1-1.29.77,4.2,4.2,0,0,1-1.54.28,5.78,5.78,0,0,1-4.74-2q-1.62-2-1.62-6A10.62,10.62,0,0,1,128,56.7a7.41,7.41,0,0,1,1.59-2.63A6.48,6.48,0,0,1,132,52.47a9.21,9.21,0,0,1,3.21-.53q.57,0,1,0l.72.08a3.07,3.07,0,0,1,.63.16l.68.24V46.87l-2.39-.25v-1.2a6.5,6.5,0,0,1,1.21-.35l1.62-.3,1.67-.27,1.35-.22h1.07V65.72l2.08.25v1.1a6.32,6.32,0,0,1-1.13.41q-.69.19-1.45.35t-1.46.27l-1.18.17h-1.07l-.28-3.43Zm-2.86,1a2.64,2.64,0,0,0,1.86-.69,4.35,4.35,0,0,0,1.1-2.36V54.29a3.69,3.69,0,0,0-1-.41,6.23,6.23,0,0,0-1.53-.16A2.69,2.69,0,0,0,133,55.38a11.53,11.53,0,0,0-.79,4.8,10.11,10.11,0,0,0,.69,4.09A2.36,2.36,0,0,0,135.25,65.81Z"/><path class="cls-2" d="M154.39,55.83a4.39,4.39,0,0,0-.88.63,3.83,3.83,0,0,0-.91,1.45V66a7.63,7.63,0,0,1,1.26.24,5.83,5.83,0,0,1,1.26.52v1.2H146v-1.2a5.75,5.75,0,0,1,1.07-.47q.5-.16,1-.29V54.42L146,54.17V53a8.28,8.28,0,0,1,1.24-.41q.74-.19,1.53-.33t1.53-.24l1.24-.16h1.07V56h.13a7.29,7.29,0,0,1,.74-1.45,7.61,7.61,0,0,1,1.15-1.38,5.63,5.63,0,0,1,1.45-1,3.45,3.45,0,0,1,1.64-.35,3.93,3.93,0,0,1,.6,1.24q.25.8.41,1.53v1.23Z"/><path class="cls-2" d="M174.12,65.31a4,4,0,0,1-.8,1.09,5.62,5.62,0,0,1-1.35,1,8.33,8.33,0,0,1-1.86.69,9.29,9.29,0,0,1-2.28.27,9.59,9.59,0,0,1-3.46-.58,6.62,6.62,0,0,1-2.52-1.67,7.2,7.2,0,0,1-1.53-2.6,10.4,10.4,0,0,1-.52-3.4,8.32,8.32,0,0,1,2.11-6.14,7.91,7.91,0,0,1,5.85-2.11,10,10,0,0,1,3,.44,5.24,5.24,0,0,1,2.33,1.45,5.59,5.59,0,0,1,1.29,2.64,10.49,10.49,0,0,1,0,4h-9.66a6.09,6.09,0,0,0,1.27,4,4.52,4.52,0,0,0,3.67,1.48,7.94,7.94,0,0,0,2.16-.31,4.93,4.93,0,0,0,1.75-.82Zm-6.5-11.68a2.67,2.67,0,0,0-1.11.22,2,2,0,0,0-.84.8,5.14,5.14,0,0,0-.58,1.57,16.75,16.75,0,0,0-.31,2.5h5a8.86,8.86,0,0,0-.28-3.78A1.88,1.88,0,0,0,167.62,53.63Z"/><path class="cls-2" d="M184.79,64.52a2,2,0,0,0-.58-1.42,6.77,6.77,0,0,0-1.45-1.1q-.87-.5-1.89-1A10.72,10.72,0,0,1,179,59.81a6.3,6.3,0,0,1-1.45-1.59A4.07,4.07,0,0,1,177,56a3.39,3.39,0,0,1,.44-1.71,4.06,4.06,0,0,1,1.2-1.31,5.89,5.89,0,0,1,1.81-.83,8.33,8.33,0,0,1,2.28-.3,17.66,17.66,0,0,1,3.16.27,12.07,12.07,0,0,1,2.57.74,11.57,11.57,0,0,1-.5,2.16q-.38,1.15-.72,2.09h-1.07l-1.32-3.21a2.86,2.86,0,0,0-.79-.21,8.08,8.08,0,0,0-.91,0,1.78,1.78,0,0,0-1.92,1.79,1.87,1.87,0,0,0,.58,1.37,7,7,0,0,0,1.45,1.09q.87.5,1.89,1A12.13,12.13,0,0,1,187,60a6.09,6.09,0,0,1,1.45,1.53,3.74,3.74,0,0,1,.58,2.11,4,4,0,0,1-1.76,3.42,8,8,0,0,1-4.72,1.24,16.24,16.24,0,0,1-3.12-.31,11.29,11.29,0,0,1-2.77-.88,7.13,7.13,0,0,1,.53-2.3,16,16,0,0,1,1-2.08h1.07l1.54,3.43a1.59,1.59,0,0,0,.77.3,7.34,7.34,0,0,0,.8,0A2.82,2.82,0,0,0,184,66,1.71,1.71,0,0,0,184.79,64.52Z"/><path class="cls-2" d="M199,64.52a2,2,0,0,0-.58-1.42A6.77,6.77,0,0,0,197,62q-.87-.5-1.89-1a10.72,10.72,0,0,1-1.89-1.18,6.3,6.3,0,0,1-1.45-1.59,4.07,4.07,0,0,1-.58-2.23,3.39,3.39,0,0,1,.44-1.71,4.06,4.06,0,0,1,1.2-1.31,5.89,5.89,0,0,1,1.81-.83,8.33,8.33,0,0,1,2.28-.3,17.66,17.66,0,0,1,3.16.27,12.07,12.07,0,0,1,2.57.74,11.57,11.57,0,0,1-.5,2.16q-.38,1.15-.72,2.09h-1.07L199,53.88a2.86,2.86,0,0,0-.79-.21,8.08,8.08,0,0,0-.91,0,1.78,1.78,0,0,0-1.92,1.79,1.87,1.87,0,0,0,.58,1.37,7,7,0,0,0,1.45,1.09q.87.5,1.89,1A12.13,12.13,0,0,1,201.2,60a6.09,6.09,0,0,1,1.45,1.53,3.74,3.74,0,0,1,.58,2.11,4,4,0,0,1-1.76,3.42,8,8,0,0,1-4.72,1.24,16.24,16.24,0,0,1-3.12-.31,11.29,11.29,0,0,1-2.77-.88,7.13,7.13,0,0,1,.53-2.3,16,16,0,0,1,1-2.08h1.07L195,66.19a1.59,1.59,0,0,0,.77.3,7.34,7.34,0,0,0,.8,0,2.82,2.82,0,0,0,1.67-.54A1.71,1.71,0,0,0,199,64.52Z"/><path class="cls-3" d="M86.78,133.74q0-4.21,1.64-6.29a5.78,5.78,0,0,1,4.84-2.08,6.43,6.43,0,0,1,1.74.19v1.4a5.55,5.55,0,0,0-1.72-.24,4.34,4.34,0,0,0-3.51,1.43,7.33,7.33,0,0,0-1.33,4.5h.12a3.74,3.74,0,0,1,3.4-1.68,4,4,0,0,1,3,1.16,4.38,4.38,0,0,1,1.11,3.15,4.86,4.86,0,0,1-1.22,3.5A4.33,4.33,0,0,1,91.59,140a4.22,4.22,0,0,1-3.52-1.67A7.36,7.36,0,0,1,86.78,133.74Zm4.79,4.92a2.71,2.71,0,0,0,2.15-.87,3.72,3.72,0,0,0,.77-2.52,3.25,3.25,0,0,0-.71-2.23,2.69,2.69,0,0,0-2.13-.81,3.59,3.59,0,0,0-1.61.36,3,3,0,0,0-1.17,1,2.3,2.3,0,0,0-.43,1.32,4.51,4.51,0,0,0,.39,1.88,3.31,3.31,0,0,0,1.11,1.38A2.76,2.76,0,0,0,91.57,138.66Z"/><path class="cls-3" d="M107.51,132.68a10.42,10.42,0,0,1-1.17,5.53,4.31,4.31,0,0,1-7.08,0,10.22,10.22,0,0,1-1.2-5.48,10.42,10.42,0,0,1,1.16-5.54,4.31,4.31,0,0,1,7.08.08A10.18,10.18,0,0,1,107.51,132.68Zm-7.8,0a10.46,10.46,0,0,0,.73,4.54,2.63,2.63,0,0,0,4.68,0,14.35,14.35,0,0,0,0-9,2.64,2.64,0,0,0-4.68,0A10.38,10.38,0,0,0,99.71,132.68Z"/><path class="cls-3" d="M118.33,128.93a3.26,3.26,0,0,1-.77,2.24,3.84,3.84,0,0,1-2.17,1.16v.08a4.09,4.09,0,0,1,2.55,1.09,3.22,3.22,0,0,1,.83,2.3,3.74,3.74,0,0,1-1.42,3.14,6.44,6.44,0,0,1-4,1.1,11.63,11.63,0,0,1-2.08-.17,7.14,7.14,0,0,1-1.83-.6v-1.54a9.35,9.35,0,0,0,4,.94q3.7,0,3.7-2.9,0-2.6-4.08-2.6H111.6v-1.4H113a4.3,4.3,0,0,0,2.65-.74,2.42,2.42,0,0,0,1-2,2,2,0,0,0-.72-1.64,3,3,0,0,0-1.95-.6,6,6,0,0,0-1.77.25,7.89,7.89,0,0,0-1.89.94l-.82-1.09a6.85,6.85,0,0,1,2-1.09,7.36,7.36,0,0,1,2.42-.4,4.94,4.94,0,0,1,3.23,1A3.21,3.21,0,0,1,118.33,128.93Z"/><path class="cls-3" d="M127.1,125.57h4a7.61,7.61,0,0,1,4.11.85,3,3,0,0,1,1.27,2.69,3.1,3.1,0,0,1-.71,2.09,3.41,3.41,0,0,1-2.07,1.07v.1q3.25.56,3.25,3.42a3.67,3.67,0,0,1-1.29,3,5.51,5.51,0,0,1-3.62,1.07h-5Zm1.66,6.11h2.73a4.45,4.45,0,0,0,2.53-.55,2.13,2.13,0,0,0,.77-1.86,1.88,1.88,0,0,0-.86-1.73,5.37,5.37,0,0,0-2.73-.53h-2.44Zm0,1.41v5.34h3a4.24,4.24,0,0,0,2.6-.67,2.47,2.47,0,0,0,.87-2.09,2.22,2.22,0,0,0-.89-2,4.77,4.77,0,0,0-2.72-.62Z"/><path class="cls-3" d="M144.7,128.94a6.34,6.34,0,0,1,1.28.12l-.22,1.5a5.52,5.52,0,0,0-1.17-.15,2.85,2.85,0,0,0-2.22,1.05,3.85,3.85,0,0,0-.92,2.63v5.74h-1.62v-10.7h1.34l.19,2h.08a4.72,4.72,0,0,1,1.44-1.61A3.23,3.23,0,0,1,144.7,128.94Z"/><path class="cls-3" d="M147.84,126.24a1.08,1.08,0,0,1,.27-.82,1,1,0,0,1,1.36,0,1.06,1.06,0,0,1,.28.81,1.08,1.08,0,0,1-.28.82,1,1,0,0,1-1.36,0A1.1,1.1,0,0,1,147.84,126.24Zm1.76,13.6H148v-10.7h1.62Z"/><path class="cls-3" d="M161.8,129.14v1l-2,.23a3.48,3.48,0,0,1,.7,2.14,3.17,3.17,0,0,1-1.07,2.51,4.33,4.33,0,0,1-2.95.94,4.94,4.94,0,0,1-.9-.08,1.59,1.59,0,0,0-1,1.38.7.7,0,0,0,.36.65,2.64,2.64,0,0,0,1.24.21h1.89a4.24,4.24,0,0,1,2.67.73,2.54,2.54,0,0,1,.93,2.13,3,3,0,0,1-1.43,2.71,7.63,7.63,0,0,1-4.16.93,5.69,5.69,0,0,1-3.24-.78,2.52,2.52,0,0,1-1.14-2.21,2.48,2.48,0,0,1,.63-1.69,3.18,3.18,0,0,1,1.76-1,1.7,1.7,0,0,1-.69-.58,1.53,1.53,0,0,1-.28-.91,1.73,1.73,0,0,1,.31-1,3.28,3.28,0,0,1,1-.85,2.89,2.89,0,0,1-1.35-1.16,3.41,3.41,0,0,1-.52-1.87,3.46,3.46,0,0,1,1.05-2.71,4.31,4.31,0,0,1,3-1,5.45,5.45,0,0,1,1.51.2Zm-8.54,12.5A1.45,1.45,0,0,0,154,143a4,4,0,0,0,2.1.45,5.86,5.86,0,0,0,3-.61,1.87,1.87,0,0,0,1-1.66,1.31,1.31,0,0,0-.54-1.21,4.17,4.17,0,0,0-2-.34H155.6a2.56,2.56,0,0,0-1.72.53A1.88,1.88,0,0,0,153.26,141.64Zm.88-9.07a2.18,2.18,0,0,0,.63,1.7,2.54,2.54,0,0,0,1.77.58,2.07,2.07,0,0,0,2.37-2.3,2.13,2.13,0,0,0-2.4-2.41,2.38,2.38,0,0,0-1.76.62A2.48,2.48,0,0,0,154.14,132.57Z"/><path class="cls-3" d="M171.32,139.84v-6.92a2.79,2.79,0,0,0-.6-2,2.43,2.43,0,0,0-1.87-.64,3.06,3.06,0,0,0-2.47.92,4.65,4.65,0,0,0-.78,3v5.6H164v-15.2h1.62v4.6a10.07,10.07,0,0,1-.08,1.38h.1a3.31,3.31,0,0,1,1.36-1.22,4.43,4.43,0,0,1,2-.44,4.13,4.13,0,0,1,2.94.93,3.93,3.93,0,0,1,1,3v7Z"/><path class="cls-3" d="M179.73,138.7a5.34,5.34,0,0,0,.83-.06,5.26,5.26,0,0,0,.63-.13v1.24a3,3,0,0,1-.78.21,5.79,5.79,0,0,1-.92.08q-3.11,0-3.11-3.27V130.4h-1.53v-.78l1.53-.67.68-2.29H178v2.48h3.11v1.26H178v6.3a2.17,2.17,0,0,0,.46,1.48A1.6,1.6,0,0,0,179.73,138.7Z"/><path class="cls-3" d="M192.57,134.48a5.9,5.9,0,0,1-1.32,4.09,4.64,4.64,0,0,1-3.64,1.47,4.82,4.82,0,0,1-2.55-.67,4.45,4.45,0,0,1-1.72-1.93,6.74,6.74,0,0,1-.61-2.95A5.9,5.9,0,0,1,184,130.4a4.63,4.63,0,0,1,3.63-1.46,4.53,4.53,0,0,1,3.57,1.49A5.88,5.88,0,0,1,192.57,134.48Zm-8.15,0a5.08,5.08,0,0,0,.82,3.13,3.26,3.26,0,0,0,4.83,0,5.06,5.06,0,0,0,.83-3.13,5,5,0,0,0-.83-3.1,2.9,2.9,0,0,0-2.44-1.06,2.85,2.85,0,0,0-2.4,1A5,5,0,0,0,184.41,134.48Z"/><path class="cls-3" d="M202.73,139.84v-6.92a2.79,2.79,0,0,0-.6-2,2.43,2.43,0,0,0-1.87-.64,3.08,3.08,0,0,0-2.46.91,4.59,4.59,0,0,0-.78,3v5.62h-1.62v-10.7h1.32l.26,1.46h.08a3.31,3.31,0,0,1,1.4-1.23,4.53,4.53,0,0,1,2-.43,4.06,4.06,0,0,1,2.91.93,4,4,0,0,1,1,3v7Z"/><path class="cls-3" d="M213.12,125.57h4a7.61,7.61,0,0,1,4.11.85,3,3,0,0,1,1.27,2.69,3.1,3.1,0,0,1-.71,2.09,3.41,3.41,0,0,1-2.07,1.07v.1q3.25.56,3.25,3.42a3.67,3.67,0,0,1-1.29,3,5.51,5.51,0,0,1-3.62,1.07h-5Zm1.66,6.11h2.73a4.45,4.45,0,0,0,2.53-.55,2.13,2.13,0,0,0,.77-1.86,1.88,1.88,0,0,0-.86-1.73,5.37,5.37,0,0,0-2.73-.53h-2.44Zm0,1.41v5.34h3a4.24,4.24,0,0,0,2.6-.67,2.47,2.47,0,0,0,.87-2.09,2.22,2.22,0,0,0-.89-2,4.77,4.77,0,0,0-2.72-.62Z"/><path class="cls-3" d="M230.36,140a4.92,4.92,0,0,1-3.75-1.45,5.59,5.59,0,0,1-1.37-4,6.2,6.2,0,0,1,1.27-4.11,4.23,4.23,0,0,1,3.42-1.52,4,4,0,0,1,3.18,1.32,5.07,5.07,0,0,1,1.17,3.49v1h-7.37a4.24,4.24,0,0,0,1,2.86,3.29,3.29,0,0,0,2.54,1,8.63,8.63,0,0,0,3.42-.72v1.45a8.62,8.62,0,0,1-1.63.53A9.14,9.14,0,0,1,230.36,140Zm-.44-9.74a2.65,2.65,0,0,0-2.06.84,3.87,3.87,0,0,0-.9,2.32h5.6a3.56,3.56,0,0,0-.68-2.35A2.41,2.41,0,0,0,229.92,130.3Z"/><path class="cls-3" d="M243.64,139.84l-.32-1.52h-.08a4.5,4.5,0,0,1-1.6,1.36,4.87,4.87,0,0,1-2,.36,3.57,3.57,0,0,1-2.5-.82,3,3,0,0,1-.9-2.33q0-3.24,5.19-3.4l1.82-.06v-.66a2.71,2.71,0,0,0-.54-1.86,2.23,2.23,0,0,0-1.73-.6,7.06,7.06,0,0,0-3,.82l-.5-1.24a7.65,7.65,0,0,1,1.73-.67,7.49,7.49,0,0,1,1.89-.24,4.08,4.08,0,0,1,2.84.85,3.55,3.55,0,0,1,.92,2.72v7.3ZM240,138.7a3.29,3.29,0,0,0,2.38-.83,3.07,3.07,0,0,0,.86-2.32v-1l-1.62.07a5.9,5.9,0,0,0-2.79.6,1.81,1.81,0,0,0-.85,1.66,1.67,1.67,0,0,0,.53,1.34A2.21,2.21,0,0,0,240,138.7Z"/><path class="cls-3" d="M252.46,140a4.57,4.57,0,0,1-3.6-1.43,5.88,5.88,0,0,1-1.27-4,6.07,6.07,0,0,1,1.29-4.15,4.66,4.66,0,0,1,3.69-1.46,7.34,7.34,0,0,1,1.54.17,5.08,5.08,0,0,1,1.21.39l-.5,1.38a7.64,7.64,0,0,0-1.17-.36,5.21,5.21,0,0,0-1.12-.14q-3.26,0-3.26,4.16a5,5,0,0,0,.8,3,2.77,2.77,0,0,0,2.36,1.05,7.22,7.22,0,0,0,2.74-.58v1.44A5.85,5.85,0,0,1,252.46,140Z"/><path class="cls-3" d="M265,139.84v-6.92a2.79,2.79,0,0,0-.6-2,2.43,2.43,0,0,0-1.87-.64,3.06,3.06,0,0,0-2.47.92,4.65,4.65,0,0,0-.78,3v5.6H257.7v-15.2h1.62v4.6a10.07,10.07,0,0,1-.08,1.38h.1a3.31,3.31,0,0,1,1.36-1.22,4.43,4.43,0,0,1,2-.44,4.13,4.13,0,0,1,2.94.93,3.93,3.93,0,0,1,1,3v7Z"/><path class="cls-3" d="M284.39,139.84l-1.78-4.54h-5.72l-1.76,4.54h-1.68l5.64-14.34h1.4l5.62,14.34Zm-2.29-6-1.66-4.42q-.32-.84-.66-2.06a18.66,18.66,0,0,1-.62,2.06l-1.68,4.42Z"/><path class="cls-3" d="M290.18,139.84l-4.06-10.7h1.74l2.3,6.35a30.07,30.07,0,0,1,.92,2.89h.08a21.77,21.77,0,0,1,.68-2.14q.57-1.63,2.56-7.09h1.74l-4.06,10.7Z"/><path class="cls-3" d="M302.37,140a4.92,4.92,0,0,1-3.75-1.45,5.59,5.59,0,0,1-1.37-4,6.2,6.2,0,0,1,1.27-4.11,4.23,4.23,0,0,1,3.42-1.52,4,4,0,0,1,3.18,1.32,5.07,5.07,0,0,1,1.17,3.49v1h-7.37a4.24,4.24,0,0,0,1,2.86,3.29,3.29,0,0,0,2.54,1,8.63,8.63,0,0,0,3.42-.72v1.45a8.62,8.62,0,0,1-1.63.53A9.14,9.14,0,0,1,302.37,140Zm-.44-9.74a2.65,2.65,0,0,0-2.06.84,3.87,3.87,0,0,0-.9,2.32h5.6a3.56,3.56,0,0,0-.68-2.35A2.41,2.41,0,0,0,301.93,130.3Z"/><path class="cls-3" d="M308.84,138.81a1.46,1.46,0,0,1,.3-1,1.08,1.08,0,0,1,.85-.34,1.16,1.16,0,0,1,.88.34,1.39,1.39,0,0,1,.32,1,1.37,1.37,0,0,1-.32,1,1.28,1.28,0,0,1-1.7,0A1.34,1.34,0,0,1,308.84,138.81Z"/><path class="cls-3" d="M87.6,149.57h4a7.61,7.61,0,0,1,4.11.85A3,3,0,0,1,97,153.1a3.1,3.1,0,0,1-.71,2.09,3.41,3.41,0,0,1-2.07,1.07v.1q3.25.56,3.25,3.42a3.67,3.67,0,0,1-1.29,3,5.51,5.51,0,0,1-3.62,1.07h-5Zm1.66,6.11H92a4.45,4.45,0,0,0,2.53-.55,2.13,2.13,0,0,0,.77-1.86,1.88,1.88,0,0,0-.86-1.73A5.37,5.37,0,0,0,91.7,151H89.26Zm0,1.41v5.34h3a4.24,4.24,0,0,0,2.6-.67,2.47,2.47,0,0,0,.87-2.09,2.22,2.22,0,0,0-.89-2,4.77,4.77,0,0,0-2.72-.62Z"/><path class="cls-3" d="M105.2,152.94a6.34,6.34,0,0,1,1.28.12l-.22,1.5a5.52,5.52,0,0,0-1.17-.15,2.85,2.85,0,0,0-2.22,1.05,3.85,3.85,0,0,0-.92,2.63v5.74h-1.62v-10.7h1.34l.19,2h.08a4.72,4.72,0,0,1,1.44-1.61A3.23,3.23,0,0,1,105.2,152.94Z"/><path class="cls-3" d="M117.71,158.48a5.9,5.9,0,0,1-1.32,4.09,4.64,4.64,0,0,1-3.64,1.47,4.82,4.82,0,0,1-2.55-.67,4.45,4.45,0,0,1-1.72-1.93,6.74,6.74,0,0,1-.61-2.95,5.9,5.9,0,0,1,1.31-4.08,4.63,4.63,0,0,1,3.63-1.46,4.53,4.53,0,0,1,3.57,1.49A5.88,5.88,0,0,1,117.71,158.48Zm-8.15,0a5.08,5.08,0,0,0,.82,3.13,3.26,3.26,0,0,0,4.83,0,5.06,5.06,0,0,0,.83-3.13,5,5,0,0,0-.83-3.1,2.9,2.9,0,0,0-2.44-1.06,2.85,2.85,0,0,0-2.4,1A5,5,0,0,0,109.56,158.48Z"/><path class="cls-3" d="M129.79,158.48a5.9,5.9,0,0,1-1.32,4.09,4.64,4.64,0,0,1-3.64,1.47,4.82,4.82,0,0,1-2.55-.67,4.45,4.45,0,0,1-1.72-1.93,6.74,6.74,0,0,1-.61-2.95,5.9,5.9,0,0,1,1.31-4.08,4.63,4.63,0,0,1,3.63-1.46,4.53,4.53,0,0,1,3.57,1.49A5.88,5.88,0,0,1,129.79,158.48Zm-8.15,0a5.08,5.08,0,0,0,.82,3.13,3.26,3.26,0,0,0,4.83,0,5.06,5.06,0,0,0,.83-3.13,5,5,0,0,0-.83-3.1,2.9,2.9,0,0,0-2.44-1.06,2.85,2.85,0,0,0-2.4,1A5,5,0,0,0,121.64,158.48Z"/><path class="cls-3" d="M134.24,158.36a19,19,0,0,1,1.28-1.56l3.46-3.66h1.92l-4.34,4.56,4.64,6.14h-2l-3.78-5.06-1.22,1.05v4h-1.6v-15.2h1.6v8.06q0,.54-.08,1.66Z"/><path class="cls-3" d="M144.76,163.84h-1.62v-15.2h1.62Z"/><path class="cls-3" d="M146.49,153.14h1.74l2.34,6.1a23.25,23.25,0,0,1,1,3h.08q.13-.5.53-1.7t2.65-7.42h1.74l-4.6,12.19a6.09,6.09,0,0,1-1.6,2.56,3.39,3.39,0,0,1-2.24.76,6.54,6.54,0,0,1-1.46-.17v-1.3a5.65,5.65,0,0,0,1.2.12,2.48,2.48,0,0,0,2.38-1.87l.6-1.52Z"/><path class="cls-3" d="M165.6,163.84v-6.92a2.79,2.79,0,0,0-.6-2,2.43,2.43,0,0,0-1.87-.64,3.08,3.08,0,0,0-2.46.91,4.59,4.59,0,0,0-.78,3v5.62h-1.62v-10.7h1.32l.26,1.46h.08a3.31,3.31,0,0,1,1.4-1.23,4.53,4.53,0,0,1,2-.43,4.06,4.06,0,0,1,2.91.93,4,4,0,0,1,1,3v7Z"/><path class="cls-3" d="M172.25,161.52l.15.22q-.25,1-.73,2.27t-1,2.41h-1.22q.26-1,.58-2.51t.44-2.39Z"/><path class="cls-3" d="M192,163.84h-1.89l-7.8-12h-.08q.16,2.11.16,3.87v8.12h-1.53V149.57h1.88l7.78,11.93h.08q0-.26-.09-1.69t0-2v-8.19H192Z"/><path class="cls-3" d="M199.6,156.7l3.81-7.14h1.8l-4.77,8.74v5.54h-1.68v-5.46L194,149.57h1.82Z"/><path class="cls-3" d="M217.38,163.84H215.8V153.67q0-1.27.08-2.4l-.46.43q-.25.22-2.32,1.9l-.86-1.11,3.78-2.92h1.37Z"/><path class="cls-3" d="M228.82,163.84h-1.58V153.67q0-1.27.08-2.4l-.46.43q-.25.22-2.32,1.9l-.86-1.11,3.78-2.92h1.37Z"/><path class="cls-3" d="M243.63,163.84h-9.38v-1.4l3.76-3.78a27.69,27.69,0,0,0,2.27-2.48,6.36,6.36,0,0,0,.82-1.45,4.13,4.13,0,0,0,.27-1.51,2.4,2.4,0,0,0-.69-1.81,2.65,2.65,0,0,0-1.92-.67,4.83,4.83,0,0,0-1.68.29,6.72,6.72,0,0,0-1.77,1.06l-.86-1.1a6.58,6.58,0,0,1,4.3-1.64,4.54,4.54,0,0,1,3.15,1,3.54,3.54,0,0,1,1.14,2.77,5.35,5.35,0,0,1-.76,2.69,17,17,0,0,1-2.85,3.36l-3.12,3.06v.08h7.34Z"/><path class="cls-3" d="M254.53,152.93a3.26,3.26,0,0,1-.77,2.24,3.84,3.84,0,0,1-2.17,1.16v.08a4.09,4.09,0,0,1,2.55,1.09,3.22,3.22,0,0,1,.83,2.3,3.74,3.74,0,0,1-1.42,3.14,6.44,6.44,0,0,1-4,1.1,11.63,11.63,0,0,1-2.08-.17,7.14,7.14,0,0,1-1.83-.6v-1.54a9.35,9.35,0,0,0,4,.94q3.7,0,3.7-2.9,0-2.6-4.08-2.6H247.8v-1.4h1.43a4.3,4.3,0,0,0,2.65-.74,2.42,2.42,0,0,0,1-2,2,2,0,0,0-.72-1.64,3,3,0,0,0-1.95-.6,6,6,0,0,0-1.77.25,7.89,7.89,0,0,0-1.89.94l-.82-1.09a6.85,6.85,0,0,1,2-1.09,7.36,7.36,0,0,1,2.42-.4,4.94,4.94,0,0,1,3.23,1A3.21,3.21,0,0,1,254.53,152.93Z"/><path class="cls-3" d="M261.58,155.12a5.25,5.25,0,0,1,3.55,1.12,3.83,3.83,0,0,1,1.29,3.06,4.42,4.42,0,0,1-1.41,3.48,5.64,5.64,0,0,1-3.89,1.26,7.16,7.16,0,0,1-3.68-.77V161.7a5.6,5.6,0,0,0,1.7.69,8.39,8.39,0,0,0,2,.25,4,4,0,0,0,2.67-.81,2.91,2.91,0,0,0,1-2.34q0-3-3.66-3a14.62,14.62,0,0,0-2.48.28l-.84-.54.54-6.68h7.1v1.49h-5.71l-.36,4.29A11.41,11.41,0,0,1,261.58,155.12Z"/><path class="cls-2" d="M100.1,110.13H96.25L90,99.33H90q.19,2.86.19,4.08v6.72H87.43V95.85h3.82l6.2,10.69h.07q-.15-2.78-.15-3.94V95.85h2.72Z"/><path class="cls-2" d="M108.4,110.32a5.64,5.64,0,0,1-4.12-1.46,5.51,5.51,0,0,1-1.48-4.12,6.06,6.06,0,0,1,1.37-4.24A4.89,4.89,0,0,1,108,99a4.81,4.81,0,0,1,3.6,1.32,5,5,0,0,1,1.29,3.64v1.45h-7a2.87,2.87,0,0,0,.75,2,2.64,2.64,0,0,0,2,.71,8.19,8.19,0,0,0,1.87-.21,9.3,9.3,0,0,0,1.84-.65v2.3a7,7,0,0,1-1.67.58A10.53,10.53,0,0,1,108.4,110.32Zm-.42-9.2a1.89,1.89,0,0,0-1.48.6,2.78,2.78,0,0,0-.62,1.7h4.18a2.48,2.48,0,0,0-.58-1.7A2,2,0,0,0,108,101.12Z"/><path class="cls-2" d="M124.25,110.13l-.84-3.82-1.13-4.82h-.07l-2,8.64H117l-3.11-10.92h3l1.26,4.83q.3,1.3.62,3.58h.06a20.06,20.06,0,0,1,.34-2.35l.16-.83,1.35-5.23h3.28l1.28,5.23.12.63q.08.42.16.89c.05.32.1.63.14.93s.07.54.07.73h.06q.09-.7.31-1.93t.32-1.66l1.31-4.83h2.92l-3.14,10.92Z"/><path class="cls-2" d="M142.27,101.73l3-5.88h3.26l-4.74,8.72v5.56h-3v-5.46L136,95.85h3.28Z"/><path class="cls-2" d="M160,104.65a5.87,5.87,0,0,1-1.41,4.17,5.1,5.1,0,0,1-3.92,1.5,5.48,5.48,0,0,1-2.77-.69,4.58,4.58,0,0,1-1.85-2,6.65,6.65,0,0,1-.64-3,5.84,5.84,0,0,1,1.4-4.16A5.13,5.13,0,0,1,154.73,99a5.51,5.51,0,0,1,2.77.68,4.57,4.57,0,0,1,1.85,2A6.58,6.58,0,0,1,160,104.65Zm-7.55,0a4.59,4.59,0,0,0,.53,2.45,1.9,1.9,0,0,0,1.73.83,1.87,1.87,0,0,0,1.71-.83,4.65,4.65,0,0,0,.52-2.46,4.51,4.51,0,0,0-.53-2.43,2.24,2.24,0,0,0-3.45,0A4.51,4.51,0,0,0,152.44,104.65Z"/><path class="cls-2" d="M168.54,99a4.8,4.8,0,0,1,1,.09l-.22,2.79a3.4,3.4,0,0,0-.88-.1,3.16,3.16,0,0,0-2.22.73,2.65,2.65,0,0,0-.8,2.05v5.56h-3V99.21h2.26l.44,1.84h.15a4.1,4.1,0,0,1,1.37-1.48A3.39,3.39,0,0,1,168.54,99Z"/><path class="cls-2" d="M174.39,104.19l1.3-1.66,3.06-3.32h3.36l-4.34,4.74,4.6,6.18h-3.44l-3.14-4.42-1.28,1v3.4h-3V94.93h3v6.78l-.16,2.48Z"/><path class="cls-2" d="M93.48,205.28,90,194.08H90q.19,3.42.19,4.56v6.64H87.43V191h4.12l3.38,10.92H95L98.57,191h4.12v14.28H99.87v-6.76c0-.32,0-.69,0-1.1s.05-1.52.13-3.32h-.09l-3.68,11.18Z"/><path class="cls-2" d="M105.93,191.54q0-1.45,1.62-1.46t1.62,1.46a1.42,1.42,0,0,1-.41,1.08,1.71,1.71,0,0,1-1.22.39Q105.93,193,105.93,191.54ZM109,205.28h-3V194.36h3Z"/><path class="cls-2" d="M119.09,205.28l-.58-1.48h-.08a4.4,4.4,0,0,1-1.55,1.31,5,5,0,0,1-2.08.37,3.36,3.36,0,0,1-2.48-.9,3.45,3.45,0,0,1-.9-2.56,2.88,2.88,0,0,1,1.22-2.56,7,7,0,0,1,3.67-.91l1.89-.06V198a1.49,1.49,0,0,0-1.7-1.66,7.75,7.75,0,0,0-3.08.79l-1-2a8.88,8.88,0,0,1,4.18-1,5.21,5.21,0,0,1,3.37,1,3.54,3.54,0,0,1,1.17,2.91v7.28Zm-.88-5.06-1.15,0a3.69,3.69,0,0,0-1.93.47,1.47,1.47,0,0,0-.63,1.31q0,1.26,1.45,1.26a2.29,2.29,0,0,0,1.66-.6,2.09,2.09,0,0,0,.62-1.58Z"/><path class="cls-2" d="M134,205.28h-3V198.9a3.21,3.21,0,0,0-.4-1.77,1.39,1.39,0,0,0-1.25-.59,1.8,1.8,0,0,0-1.66.84,5.51,5.51,0,0,0-.52,2.76v5.14h-3V194.36h2.28l.4,1.4h.17a3,3,0,0,1,1.27-1.18,4.12,4.12,0,0,1,1.9-.42,3.43,3.43,0,0,1,3.32,1.6h.26a3,3,0,0,1,1.29-1.18,4.31,4.31,0,0,1,1.93-.42,3.81,3.81,0,0,1,2.81,1,4.18,4.18,0,0,1,1,3.05v7.12h-3V198.9a3.21,3.21,0,0,0-.4-1.77,1.39,1.39,0,0,0-1.25-.59,1.86,1.86,0,0,0-1.64.78,4.43,4.43,0,0,0-.54,2.48Z"/><path class="cls-2" d="M143.75,191.54q0-1.45,1.62-1.46t1.62,1.46a1.42,1.42,0,0,1-.41,1.08,1.71,1.71,0,0,1-1.22.39Q143.75,193,143.75,191.54Zm3.11,13.74h-3V194.36h3Z"/><path class="cls-2" d="M393.08,65.84a13.4,13.4,0,0,1,1.68.36,9.47,9.47,0,0,1,1.5.55v1.2H385.78v-1.2a6.51,6.51,0,0,1,1.27-.57,11.41,11.41,0,0,1,1.31-.35V48a8.3,8.3,0,0,1-1.38-.36,7,7,0,0,1-1.2-.55v-1.2h4q1.26,0,2.88-.13t3-.13a15.93,15.93,0,0,1,3.26.33,8.46,8.46,0,0,1,2.83,1.12,6,6,0,0,1,2,2.09,6.43,6.43,0,0,1,.75,3.26,6.39,6.39,0,0,1-2.71,5.45,8.55,8.55,0,0,1-2.83,1.31,12.85,12.85,0,0,1-3.3.42h-.5l-.74,0-.75,0a4,4,0,0,1-.52,0Zm1.7-18.13a8.15,8.15,0,0,0-1,0,5.47,5.47,0,0,0-.71.14v9.57a3.14,3.14,0,0,0,.85.11l.91,0a4.78,4.78,0,0,0,1.64-.28,3.86,3.86,0,0,0,1.4-.88,4.4,4.4,0,0,0,1-1.54,6.1,6.1,0,0,0,.38-2.27A5,5,0,0,0,398,48.91,4.45,4.45,0,0,0,394.78,47.71Z"/><path class="cls-2" d="M425.06,67.95h-8.34v-1.2q.38-.22.79-.41a6.93,6.93,0,0,1,.94-.35V59.62a11.32,11.32,0,0,0-.52-4,2,2,0,0,0-2-1.28,2.94,2.94,0,0,0-2.14.87,5,5,0,0,0-1.26,2V66a7.13,7.13,0,0,1,.9.28,4.07,4.07,0,0,1,.83.47v1.2h-8.34v-1.2A8.73,8.73,0,0,1,408,66V46.86l-2.39-.25v-1.2a10,10,0,0,1,1.21-.38q.74-.19,1.56-.33t1.64-.25l1.45-.17h1.07V55.39h0a5.71,5.71,0,0,1,.85-1.37,6.53,6.53,0,0,1,1.21-1.13,5.9,5.9,0,0,1,1.46-.77,4.89,4.89,0,0,1,1.67-.28,7.8,7.8,0,0,1,2.25.3,3.48,3.48,0,0,1,1.65,1.06,5.05,5.05,0,0,1,1,2,12.63,12.63,0,0,1,.35,3.23V66q.53.13,1.07.28a3.7,3.7,0,0,1,1,.47Z"/><path class="cls-2" d="M426.41,60.08a9.6,9.6,0,0,1,.58-3.45,7,7,0,0,1,4.3-4.23,10.08,10.08,0,0,1,3.49-.57,10.53,10.53,0,0,1,3.79.61,7,7,0,0,1,2.61,1.7,6.6,6.6,0,0,1,1.5,2.61,11.21,11.21,0,0,1,.47,3.32,9.85,9.85,0,0,1-.57,3.45,7,7,0,0,1-1.65,2.6,7.22,7.22,0,0,1-2.64,1.64,11.35,11.35,0,0,1-7.22,0,7.13,7.13,0,0,1-2.61-1.7,6.79,6.79,0,0,1-1.54-2.61A10.53,10.53,0,0,1,426.41,60.08Zm4.88,0a17.83,17.83,0,0,0,.17,2.6,6,6,0,0,0,.61,2,3.25,3.25,0,0,0,1.2,1.27,3.72,3.72,0,0,0,2,.46,2.46,2.46,0,0,0,1.26-.33,2.73,2.73,0,0,0,1-1.07,6.22,6.22,0,0,0,.61-2,18.21,18.21,0,0,0,.21-3,17.88,17.88,0,0,0-.17-2.61,6.31,6.31,0,0,0-.6-2,3.23,3.23,0,0,0-1.15-1.27,3.37,3.37,0,0,0-1.83-.46,2.89,2.89,0,0,0-1.42.33,2.63,2.63,0,0,0-1,1.07,6.19,6.19,0,0,0-.61,2A18.2,18.2,0,0,0,431.29,60.08Z"/><path class="cls-2" d="M464,67.95h-8.34v-1.2q.41-.22.8-.39c.26-.12.57-.24.93-.36V58.58a7,7,0,0,0-.57-3.11,2.06,2.06,0,0,0-2-1.12,3,3,0,0,0-2.06.77,4.75,4.75,0,0,0-1.31,2.1V66a5.73,5.73,0,0,1,.9.3,6.13,6.13,0,0,1,.83.46v1.2h-8.34v-1.2a10.45,10.45,0,0,1,2.08-.76V54.42l-2.08-.25V53a6.68,6.68,0,0,1,1.07-.36q.66-.17,1.43-.33t1.57-.27q.8-.11,1.46-.17h1.07v3.24h0a6.29,6.29,0,0,1,2-2.28,5.32,5.32,0,0,1,3.21-1,7.52,7.52,0,0,1,2.2.3,3.6,3.6,0,0,1,1.65,1.06,5.09,5.09,0,0,1,1,2,12.1,12.1,0,0,1,.36,3.23V66a5.5,5.5,0,0,1,2.08.76Z"/><path class="cls-2" d="M479.69,65.31a4,4,0,0,1-.8,1.09,5.62,5.62,0,0,1-1.35,1,8.33,8.33,0,0,1-1.86.69,9.29,9.29,0,0,1-2.28.27,9.59,9.59,0,0,1-3.46-.58,6.62,6.62,0,0,1-2.52-1.67,7.2,7.2,0,0,1-1.53-2.6,10.4,10.4,0,0,1-.52-3.4,8.32,8.32,0,0,1,2.11-6.14,7.91,7.91,0,0,1,5.85-2.11,10,10,0,0,1,3,.44,5.24,5.24,0,0,1,2.33,1.45A5.59,5.59,0,0,1,480,56.37a10.49,10.49,0,0,1,0,4h-9.66a6.09,6.09,0,0,0,1.27,4,4.52,4.52,0,0,0,3.67,1.48,7.94,7.94,0,0,0,2.16-.31,4.93,4.93,0,0,0,1.75-.82Zm-6.5-11.68a2.67,2.67,0,0,0-1.11.22,2,2,0,0,0-.84.8,5.14,5.14,0,0,0-.58,1.57,16.75,16.75,0,0,0-.31,2.5h5A8.86,8.86,0,0,0,475.1,55,1.88,1.88,0,0,0,473.19,53.63Z"/><path class="cls-3" d="M387,134.36a15.12,15.12,0,0,1,.76-4.84,12.05,12.05,0,0,1,2.18-4h1.58a13.76,13.76,0,0,0-2.11,4.14,15.41,15.41,0,0,0-.71,4.64,14.82,14.82,0,0,0,.72,4.58,14.2,14.2,0,0,0,2.08,4.08h-1.56a11.5,11.5,0,0,1-2.19-3.88A14.75,14.75,0,0,1,387,134.36Z"/><path class="cls-3" d="M394.87,139.84l5.92-12.78H393v-1.49h9.5v1.3l-5.84,13Z"/><path class="cls-3" d="M410.51,139.84h-1.58V129.67q0-1.27.08-2.4l-.46.43q-.25.22-2.32,1.9l-.86-1.11,3.78-2.92h1.37Z"/><path class="cls-3" d="M420.66,125.36a4.84,4.84,0,0,1,3.1.91,3,3,0,0,1,1.14,2.51,3.12,3.12,0,0,1-.65,1.92,5.79,5.79,0,0,1-2.09,1.58,7,7,0,0,1,2.47,1.74,3.28,3.28,0,0,1,.73,2.11,3.54,3.54,0,0,1-1.24,2.84,5.07,5.07,0,0,1-3.4,1.06,5.44,5.44,0,0,1-3.52-1A3.45,3.45,0,0,1,416,136.2q0-2.45,3-3.82a5.52,5.52,0,0,1-1.93-1.65,3.5,3.5,0,0,1-.59-2,3,3,0,0,1,1.15-2.48A4.76,4.76,0,0,1,420.66,125.36Zm-3.09,10.88a2.21,2.21,0,0,0,.82,1.83,3.57,3.57,0,0,0,2.29.65,3.41,3.41,0,0,0,2.27-.68,2.32,2.32,0,0,0,.81-1.87,2.28,2.28,0,0,0-.76-1.68,7.78,7.78,0,0,0-2.66-1.43,5.79,5.79,0,0,0-2.11,1.38A2.68,2.68,0,0,0,417.58,136.24Zm3.07-9.56a2.87,2.87,0,0,0-1.91.59,1.94,1.94,0,0,0-.69,1.56,2.24,2.24,0,0,0,.58,1.54,6,6,0,0,0,2.13,1.29,5.34,5.34,0,0,0,2-1.26,2.33,2.33,0,0,0,.58-1.57,1.92,1.92,0,0,0-.71-1.57A3,3,0,0,0,420.64,126.68Z"/><path class="cls-3" d="M431.51,134.36a14.71,14.71,0,0,1-.76,4.79,11.46,11.46,0,0,1-2.18,3.86H427a14,14,0,0,0,2.08-4.08,14.86,14.86,0,0,0,.72-4.58,15.41,15.41,0,0,0-.71-4.64,13.76,13.76,0,0,0-2.11-4.14h1.58a12,12,0,0,1,2.19,4A15.21,15.21,0,0,1,431.51,134.36Z"/><path class="cls-3" d="M440.29,139.84l5.92-12.78h-7.78v-1.49h9.5v1.3l-5.84,13Z"/><path class="cls-3" d="M458.77,128.93a3.26,3.26,0,0,1-.77,2.24,3.84,3.84,0,0,1-2.17,1.16v.08a4.09,4.09,0,0,1,2.55,1.09,3.22,3.22,0,0,1,.83,2.3,3.74,3.74,0,0,1-1.42,3.14,6.44,6.44,0,0,1-4,1.1,11.63,11.63,0,0,1-2.08-.17,7.14,7.14,0,0,1-1.83-.6v-1.54a9.35,9.35,0,0,0,4,.94q3.7,0,3.7-2.9,0-2.6-4.08-2.6H452v-1.4h1.43a4.3,4.3,0,0,0,2.65-.74,2.42,2.42,0,0,0,1-2,2,2,0,0,0-.72-1.64,3,3,0,0,0-1.95-.6,6,6,0,0,0-1.77.25,7.89,7.89,0,0,0-1.89.94l-.82-1.09a6.85,6.85,0,0,1,2-1.09,7.36,7.36,0,0,1,2.42-.4,4.94,4.94,0,0,1,3.23,1A3.21,3.21,0,0,1,458.77,128.93Z"/><path class="cls-3" d="M470.82,132.68a10.42,10.42,0,0,1-1.17,5.53,4.31,4.31,0,0,1-7.08,0,10.22,10.22,0,0,1-1.2-5.48,10.42,10.42,0,0,1,1.16-5.54,4.31,4.31,0,0,1,7.08.08A10.18,10.18,0,0,1,470.82,132.68Zm-7.8,0a10.46,10.46,0,0,0,.73,4.54,2.63,2.63,0,0,0,4.68,0,14.35,14.35,0,0,0,0-9,2.64,2.64,0,0,0-4.68,0A10.38,10.38,0,0,0,463,132.68Z"/><path class="cls-3" d="M472.63,135.22v-1.48h4.79v1.48Z"/><path class="cls-3" d="M488.61,131.66q0,8.38-6.48,8.38a6.62,6.62,0,0,1-1.8-.2v-1.4a5.75,5.75,0,0,0,1.78.25,4.32,4.32,0,0,0,3.54-1.45,7.33,7.33,0,0,0,1.3-4.45h-.12a3.48,3.48,0,0,1-1.43,1.24,4.59,4.59,0,0,1-2,.42,4,4,0,0,1-3-1.13,4.32,4.32,0,0,1-1.11-3.16,4.85,4.85,0,0,1,1.25-3.52,4.76,4.76,0,0,1,5.82-.54,4.72,4.72,0,0,1,1.67,2.18A8.87,8.87,0,0,1,488.61,131.66Zm-4.8-4.91a2.68,2.68,0,0,0-2.16.9,3.75,3.75,0,0,0-.76,2.5,3.25,3.25,0,0,0,.7,2.21,2.69,2.69,0,0,0,2.14.81,3.7,3.7,0,0,0,1.64-.36,3,3,0,0,0,1.18-1,2.28,2.28,0,0,0,.43-1.31,4.48,4.48,0,0,0-.4-1.89,3.3,3.3,0,0,0-1.12-1.37A2.82,2.82,0,0,0,483.81,126.75Z"/><path class="cls-3" d="M500.72,136.56H498.6v3.28H497v-3.28h-6.94v-1.42l6.78-9.66h1.72v9.6h2.12ZM497,135.09v-4.75q0-1.4.1-3.15h-.08a14.67,14.67,0,0,1-.88,1.55l-4.46,6.35Z"/><path class="cls-3" d="M511.48,131.66q0,8.38-6.48,8.38a6.62,6.62,0,0,1-1.8-.2v-1.4a5.75,5.75,0,0,0,1.78.25,4.32,4.32,0,0,0,3.54-1.45,7.33,7.33,0,0,0,1.3-4.45h-.12a3.48,3.48,0,0,1-1.43,1.24,4.59,4.59,0,0,1-2,.42,4,4,0,0,1-3-1.13,4.32,4.32,0,0,1-1.11-3.16,4.85,4.85,0,0,1,1.25-3.52,4.76,4.76,0,0,1,5.82-.54,4.72,4.72,0,0,1,1.67,2.18A8.87,8.87,0,0,1,511.48,131.66Zm-4.8-4.91a2.68,2.68,0,0,0-2.16.9,3.75,3.75,0,0,0-.76,2.5,3.25,3.25,0,0,0,.7,2.21,2.69,2.69,0,0,0,2.14.81,3.7,3.7,0,0,0,1.64-.36,3,3,0,0,0,1.18-1,2.28,2.28,0,0,0,.43-1.31,4.48,4.48,0,0,0-.4-1.89,3.3,3.3,0,0,0-1.12-1.37A2.82,2.82,0,0,0,506.68,126.75Z"/><path class="cls-3" d="M515.34,139.84l5.92-12.78h-7.78v-1.49H523v1.3l-5.84,13Z"/><path class="cls-2" d="M582.26,67.95h-9.54v-1.2a9.41,9.41,0,0,1,1.24-.54,9.76,9.76,0,0,1,1.34-.38V48a8.13,8.13,0,0,1-1.45-.38,5.69,5.69,0,0,1-1.13-.54v-1.2h9.54v1.2a6.59,6.59,0,0,1-1.05.57A4.87,4.87,0,0,1,580,48v7.62h8.34V48a5.22,5.22,0,0,1-1.24-.38,7.82,7.82,0,0,1-1-.54v-1.2h9.54v1.2a5,5,0,0,1-1.23.57,11.53,11.53,0,0,1-1.35.35V65.84a8,8,0,0,1,1.4.38,8.48,8.48,0,0,1,1.18.54v1.2h-9.54v-1.2a9.72,9.72,0,0,1,1-.54,5.72,5.72,0,0,1,1.2-.38V57.69H580v8.15a6.35,6.35,0,0,1,1.17.35,6.66,6.66,0,0,1,1.07.57Z"/><path class="cls-2" d="M597.28,60.08a9.6,9.6,0,0,1,.58-3.45,7,7,0,0,1,4.3-4.23,10.1,10.1,0,0,1,3.49-.57,10.53,10.53,0,0,1,3.79.61,7,7,0,0,1,2.61,1.7,6.6,6.6,0,0,1,1.5,2.61,11.2,11.2,0,0,1,.47,3.32,9.85,9.85,0,0,1-.57,3.45,7,7,0,0,1-1.65,2.6,7.22,7.22,0,0,1-2.64,1.64,11.35,11.35,0,0,1-7.22,0,7.14,7.14,0,0,1-2.61-1.7,6.79,6.79,0,0,1-1.54-2.61A10.53,10.53,0,0,1,597.28,60.08Zm4.88,0a17.84,17.84,0,0,0,.17,2.6,6,6,0,0,0,.61,2,3.25,3.25,0,0,0,1.2,1.27,3.72,3.72,0,0,0,2,.46,2.45,2.45,0,0,0,1.26-.33,2.72,2.72,0,0,0,1-1.07,6.22,6.22,0,0,0,.61-2,18.19,18.19,0,0,0,.21-3,17.9,17.9,0,0,0-.17-2.61,6.3,6.3,0,0,0-.6-2,3.22,3.22,0,0,0-1.15-1.27,3.36,3.36,0,0,0-1.83-.46,2.88,2.88,0,0,0-1.42.33,2.63,2.63,0,0,0-1,1.07,6.2,6.2,0,0,0-.61,2A18.22,18.22,0,0,0,602.15,60.08Z"/><path class="cls-2" d="M617.23,61.7q0-2,.09-3.69t.09-3.6l-2.08-.25V53a12.22,12.22,0,0,1,1.24-.38q.74-.19,1.53-.33l1.53-.25,1.24-.17h1.07q0,2.36-.09,4.64T621.76,61a9.6,9.6,0,0,0,.52,3.71,1.93,1.93,0,0,0,1.94,1.13,2.67,2.67,0,0,0,1.81-.74,5.36,5.36,0,0,0,1.37-2.38V54.42l-2-.25V53a10.58,10.58,0,0,1,1.18-.38q.71-.19,1.48-.33l1.53-.25,1.32-.17h1.07V65.72L634,66v1.1a9.44,9.44,0,0,1-1.1.38q-.66.19-1.38.36t-1.43.28l-1.27.17h-1.07l-.22-3.75h-.12a4.73,4.73,0,0,1-.57,1.34,5,5,0,0,1-1.05,1.23,5.3,5.3,0,0,1-3.48,1.24,6.93,6.93,0,0,1-2.12-.3A3.52,3.52,0,0,1,618.58,67a5.06,5.06,0,0,1-1-2A12.59,12.59,0,0,1,617.23,61.7Z"/><path class="cls-2" d="M643.7,55.83a4.4,4.4,0,0,0-.88.63,3.82,3.82,0,0,0-.91,1.45V66a7.63,7.63,0,0,1,1.26.24,5.82,5.82,0,0,1,1.26.52v1.2h-9.13v-1.2a5.75,5.75,0,0,1,1.07-.47q.5-.16,1-.29V54.42l-2.08-.25V53a8.28,8.28,0,0,1,1.24-.41q.74-.19,1.53-.33t1.53-.24l1.24-.16h1.07V56H642a7.29,7.29,0,0,1,.74-1.45,7.64,7.64,0,0,1,1.15-1.38,5.65,5.65,0,0,1,1.45-1,3.44,3.44,0,0,1,1.64-.35,4,4,0,0,1,.6,1.24q.25.8.41,1.53v1.23Z"/><path class="cls-2" d="M657.2,64.52a2,2,0,0,0-.58-1.42,6.77,6.77,0,0,0-1.45-1.1q-.87-.5-1.89-1a10.78,10.78,0,0,1-1.89-1.18,6.29,6.29,0,0,1-1.45-1.59,4.07,4.07,0,0,1-.58-2.24,3.39,3.39,0,0,1,.44-1.71A4.05,4.05,0,0,1,651,53a5.87,5.87,0,0,1,1.81-.83,8.33,8.33,0,0,1,2.28-.3,17.66,17.66,0,0,1,3.16.27,12,12,0,0,1,2.57.74,11.56,11.56,0,0,1-.5,2.16q-.38,1.15-.72,2.09h-1.07l-1.32-3.21a2.9,2.9,0,0,0-.79-.2,7.85,7.85,0,0,0-.91,0,1.78,1.78,0,0,0-1.92,1.79,1.87,1.87,0,0,0,.58,1.37,7,7,0,0,0,1.45,1.09q.87.5,1.89,1A12.06,12.06,0,0,1,659.39,60a6.05,6.05,0,0,1,1.45,1.53,3.74,3.74,0,0,1,.58,2.11,4,4,0,0,1-1.76,3.42,8,8,0,0,1-4.72,1.24,16.16,16.16,0,0,1-3.12-.31,11.25,11.25,0,0,1-2.77-.88,7.13,7.13,0,0,1,.53-2.3,16.11,16.11,0,0,1,1-2.08h1.07l1.54,3.43a1.58,1.58,0,0,0,.77.3,7.35,7.35,0,0,0,.8,0,2.82,2.82,0,0,0,1.67-.54A1.71,1.71,0,0,0,657.2,64.52Z"/><path class="cls-3" d="M583.48,131.66q0,8.38-6.48,8.38a6.62,6.62,0,0,1-1.8-.2v-1.4a5.75,5.75,0,0,0,1.78.25,4.32,4.32,0,0,0,3.54-1.45,7.33,7.33,0,0,0,1.3-4.45h-.12a3.48,3.48,0,0,1-1.43,1.24,4.59,4.59,0,0,1-2,.42,4,4,0,0,1-3-1.13,4.32,4.32,0,0,1-1.11-3.16,4.85,4.85,0,0,1,1.25-3.52,4.76,4.76,0,0,1,5.82-.54,4.72,4.72,0,0,1,1.67,2.18A8.87,8.87,0,0,1,583.48,131.66Zm-4.8-4.91a2.68,2.68,0,0,0-2.16.9,3.75,3.75,0,0,0-.76,2.5,3.25,3.25,0,0,0,.7,2.21,2.69,2.69,0,0,0,2.14.81,3.7,3.7,0,0,0,1.64-.36,3,3,0,0,0,1.18-1,2.28,2.28,0,0,0,.43-1.31,4.48,4.48,0,0,0-.4-1.89,3.3,3.3,0,0,0-1.12-1.37A2.82,2.82,0,0,0,578.68,126.75Z"/><path class="cls-3" d="M595.49,139.84l-1.78-4.54H588l-1.76,4.54h-1.68l5.64-14.34h1.4l5.62,14.34Zm-2.29-6-1.66-4.42q-.32-.84-.66-2.06a18.66,18.66,0,0,1-.62,2.06l-1.68,4.42Z"/><path class="cls-3" d="M605.49,139.84l-4.84-12.66h-.08q.14,1.5.14,3.57v9.08h-1.53V125.57h2.5l4.52,11.78h.08l4.56-11.78h2.48v14.28h-1.66v-9.2q0-1.58.14-3.44h-.08l-4.88,12.64Z"/><path class="cls-3" d="M621.28,135.22v-1.48h4.79v1.48Z"/><path class="cls-3" d="M634.88,139.84l5.92-12.78H633v-1.49h9.5v1.3l-5.84,13Z"/><path class="cls-3" d="M654.54,129.73a4,4,0,0,1-1.48,3.33,6.7,6.7,0,0,1-4.23,1.17h-1.68v5.62h-1.66V125.57h3.7Q654.54,125.57,654.54,129.73Zm-7.39,3.08h1.49a5.55,5.55,0,0,0,3.19-.71,2.63,2.63,0,0,0,1-2.29,2.46,2.46,0,0,0-.93-2.11A4.85,4.85,0,0,0,649,127h-1.86Z"/><path class="cls-3" d="M663.85,139.84,659,127.19h-.08q.14,1.5.14,3.57v9.08h-1.53V125.57H660l4.52,11.78h.08l4.56-11.78h2.48v14.28H670v-9.2q0-1.58.14-3.44h-.08l-4.88,12.64Z"/><path class="cls-3" d="M92.62,231H91V220.8q0-1.27.08-2.4l-.46.43q-.25.22-2.32,1.9l-.86-1.11,3.78-2.92h1.37Z"/><path class="cls-3" d="M102.77,216.49a4.84,4.84,0,0,1,3.1.91,3,3,0,0,1,1.14,2.51,3.12,3.12,0,0,1-.65,1.92,5.79,5.79,0,0,1-2.09,1.58,7,7,0,0,1,2.47,1.74,3.28,3.28,0,0,1,.73,2.11,3.54,3.54,0,0,1-1.24,2.84,5.07,5.07,0,0,1-3.4,1.06,5.44,5.44,0,0,1-3.52-1,3.45,3.45,0,0,1-1.23-2.84q0-2.45,3-3.82a5.52,5.52,0,0,1-1.93-1.65,3.5,3.5,0,0,1-.59-2,3,3,0,0,1,1.15-2.48A4.76,4.76,0,0,1,102.77,216.49Zm-3.09,10.88a2.21,2.21,0,0,0,.82,1.83,3.57,3.57,0,0,0,2.29.65,3.41,3.41,0,0,0,2.27-.68,2.32,2.32,0,0,0,.81-1.87,2.28,2.28,0,0,0-.76-1.68,7.78,7.78,0,0,0-2.66-1.43,5.79,5.79,0,0,0-2.11,1.38A2.68,2.68,0,0,0,99.69,227.37Zm3.07-9.56a2.87,2.87,0,0,0-1.91.59,1.94,1.94,0,0,0-.69,1.56,2.24,2.24,0,0,0,.58,1.54,6,6,0,0,0,2.13,1.29,5.34,5.34,0,0,0,2-1.26,2.33,2.33,0,0,0,.58-1.57,1.92,1.92,0,0,0-.71-1.57A3,3,0,0,0,102.75,217.81Z"/><path class="cls-3" d="M118.87,231h-9.38v-1.4l3.76-3.78a27.69,27.69,0,0,0,2.27-2.48,6.36,6.36,0,0,0,.82-1.45,4.13,4.13,0,0,0,.27-1.51,2.4,2.4,0,0,0-.69-1.81,2.65,2.65,0,0,0-1.92-.67,4.83,4.83,0,0,0-1.68.29,6.72,6.72,0,0,0-1.77,1.06l-.86-1.1a6.58,6.58,0,0,1,4.3-1.64,4.54,4.54,0,0,1,3.15,1,3.54,3.54,0,0,1,1.14,2.77,5.35,5.35,0,0,1-.76,2.69,17,17,0,0,1-2.85,3.36l-3.12,3.06v.08h7.34Z"/><path class="cls-3" d="M131,227.69h-2.12V231H127.3v-3.28h-6.94v-1.42l6.78-9.66h1.72v9.6H131Zm-3.67-1.47v-4.75q0-1.4.1-3.15h-.08a14.67,14.67,0,0,1-.88,1.55L122,226.22Z"/><path class="cls-3" d="M132.52,224.87q0-4.21,1.64-6.29a5.78,5.78,0,0,1,4.84-2.08,6.43,6.43,0,0,1,1.74.19v1.4a5.55,5.55,0,0,0-1.72-.24,4.34,4.34,0,0,0-3.51,1.43,7.33,7.33,0,0,0-1.33,4.5h.12a3.74,3.74,0,0,1,3.4-1.68,4,4,0,0,1,3,1.16,4.38,4.38,0,0,1,1.11,3.15,4.86,4.86,0,0,1-1.22,3.5,4.33,4.33,0,0,1-3.29,1.27,4.22,4.22,0,0,1-3.52-1.67A7.36,7.36,0,0,1,132.52,224.87Zm4.79,4.92a2.71,2.71,0,0,0,2.15-.87,3.72,3.72,0,0,0,.77-2.52,3.25,3.25,0,0,0-.71-2.23,2.69,2.69,0,0,0-2.13-.81,3.59,3.59,0,0,0-1.61.36,3,3,0,0,0-1.17,1,2.3,2.3,0,0,0-.43,1.32,4.51,4.51,0,0,0,.39,1.88,3.31,3.31,0,0,0,1.11,1.38A2.76,2.76,0,0,0,137.31,229.79Z"/><path class="cls-3" d="M156.08,218a4.67,4.67,0,0,0-3.72,1.57,6.32,6.32,0,0,0-1.36,4.29,6.45,6.45,0,0,0,1.31,4.33,4.67,4.67,0,0,0,3.75,1.53,12.78,12.78,0,0,0,3.41-.54v1.46a10.49,10.49,0,0,1-3.66.56,6.19,6.19,0,0,1-4.87-1.91,7.88,7.88,0,0,1-1.71-5.44,8.59,8.59,0,0,1,.83-3.87,5.92,5.92,0,0,1,2.38-2.56,7.21,7.21,0,0,1,3.67-.9,8.85,8.85,0,0,1,3.93.82l-.7,1.43A7.57,7.57,0,0,0,156.08,218Z"/><path class="cls-3" d="M171.58,225.61a5.9,5.9,0,0,1-1.32,4.09,4.64,4.64,0,0,1-3.64,1.47,4.82,4.82,0,0,1-2.55-.67,4.45,4.45,0,0,1-1.72-1.93,6.74,6.74,0,0,1-.61-2.95,5.9,5.9,0,0,1,1.31-4.08,4.63,4.63,0,0,1,3.63-1.46,4.53,4.53,0,0,1,3.57,1.49A5.88,5.88,0,0,1,171.58,225.61Zm-8.15,0a5.08,5.08,0,0,0,.82,3.13,3.26,3.26,0,0,0,4.83,0,5.06,5.06,0,0,0,.83-3.13,5,5,0,0,0-.83-3.1,2.9,2.9,0,0,0-2.44-1.06,2.85,2.85,0,0,0-2.4,1A5,5,0,0,0,163.43,225.61Z"/><path class="cls-3" d="M176,231h-1.62v-15.2H176Z"/><path class="cls-3" d="M181.1,231h-1.62v-15.2h1.62Z"/><path class="cls-3" d="M184.4,217.37a1.08,1.08,0,0,1,.27-.82,1,1,0,0,1,1.36,0,1.06,1.06,0,0,1,.28.81,1.08,1.08,0,0,1-.28.82,1,1,0,0,1-1.36,0A1.1,1.1,0,0,1,184.4,217.37Zm1.76,13.6h-1.62v-10.7h1.62Z"/><path class="cls-3" d="M196.92,231v-6.92a2.79,2.79,0,0,0-.6-2,2.43,2.43,0,0,0-1.87-.64,3.08,3.08,0,0,0-2.46.91,4.59,4.59,0,0,0-.78,3V231H189.6v-10.7h1.32l.26,1.46h.08a3.31,3.31,0,0,1,1.4-1.23,4.53,4.53,0,0,1,2-.43,4.06,4.06,0,0,1,2.91.93,4,4,0,0,1,1,3v7Z"/><path class="cls-3" d="M208.78,228.06a2.68,2.68,0,0,1-1.11,2.3,5.24,5.24,0,0,1-3.12.81,6.8,6.8,0,0,1-3.32-.67V229a8,8,0,0,0,1.66.62,6.93,6.93,0,0,0,1.7.22,3.86,3.86,0,0,0,2-.41,1.4,1.4,0,0,0,.14-2.3,8.53,8.53,0,0,0-2.11-1,11.49,11.49,0,0,1-2.12-1,2.9,2.9,0,0,1-.94-.94,2.46,2.46,0,0,1-.31-1.26,2.4,2.4,0,0,1,1.06-2.07,5,5,0,0,1,2.92-.76,8.54,8.54,0,0,1,3.38.7L208,222.1a7.76,7.76,0,0,0-2.92-.66,3.36,3.36,0,0,0-1.74.36,1.12,1.12,0,0,0-.59,1,1.21,1.21,0,0,0,.22.73,2.17,2.17,0,0,0,.71.58,15.66,15.66,0,0,0,1.88.79,7,7,0,0,1,2.57,1.4A2.46,2.46,0,0,1,208.78,228.06Z"/><path class="cls-3" d="M225.83,231l-1.78-4.54h-5.72L216.57,231h-1.68l5.64-14.34h1.4L227.55,231Zm-2.29-6-1.66-4.42q-.32-.84-.66-2.06a18.66,18.66,0,0,1-.62,2.06l-1.68,4.42Z"/><path class="cls-3" d="M231.61,231l-4.06-10.7h1.74l2.3,6.35a30.07,30.07,0,0,1,.92,2.89h.08a21.77,21.77,0,0,1,.68-2.14q.57-1.63,2.56-7.09h1.74L233.51,231Z"/><path class="cls-3" d="M243.81,231.17a4.92,4.92,0,0,1-3.75-1.45,5.59,5.59,0,0,1-1.37-4A6.2,6.2,0,0,1,240,221.6a4.23,4.23,0,0,1,3.42-1.52,4,4,0,0,1,3.18,1.32,5.07,5.07,0,0,1,1.17,3.49v1h-7.37a4.24,4.24,0,0,0,1,2.86,3.29,3.29,0,0,0,2.54,1,8.63,8.63,0,0,0,3.42-.72v1.45a8.62,8.62,0,0,1-1.63.53A9.14,9.14,0,0,1,243.81,231.17Zm-.44-9.74a2.65,2.65,0,0,0-2.06.84,3.87,3.87,0,0,0-.9,2.32H246a3.56,3.56,0,0,0-.68-2.35A2.41,2.41,0,0,0,243.37,221.43Z"/><path class="cls-3" d="M95.65,251.18a3.5,3.5,0,0,1-1.37,2.94,5.93,5.93,0,0,1-3.71,1.05,9.29,9.29,0,0,1-3.91-.65v-1.6a10.33,10.33,0,0,0,1.91.59,10.05,10.05,0,0,0,2.05.21,4.14,4.14,0,0,0,2.5-.63,2.07,2.07,0,0,0,.84-1.75,2.25,2.25,0,0,0-.3-1.22,2.76,2.76,0,0,0-1-.87,14,14,0,0,0-2.12-.91,6.78,6.78,0,0,1-2.85-1.69,3.73,3.73,0,0,1-.85-2.55,3.17,3.17,0,0,1,1.24-2.63,5.15,5.15,0,0,1,3.28-1,9.68,9.68,0,0,1,3.92.78l-.52,1.45a8.85,8.85,0,0,0-3.44-.74,3.33,3.33,0,0,0-2.06.57,1.87,1.87,0,0,0-.74,1.57,2.4,2.4,0,0,0,.27,1.22,2.58,2.58,0,0,0,.92.87,11.49,11.49,0,0,0,2,.87,7.87,7.87,0,0,1,3.09,1.72A3.38,3.38,0,0,1,95.65,251.18Z"/><path class="cls-3" d="M99.85,244.27v6.94a2.79,2.79,0,0,0,.6,2,2.43,2.43,0,0,0,1.87.64,3,3,0,0,0,2.46-.92,4.63,4.63,0,0,0,.78-3v-5.62h1.62V255h-1.34l-.23-1.44h-.09a3.24,3.24,0,0,1-1.38,1.21,4.64,4.64,0,0,1-2,.42,4.09,4.09,0,0,1-2.92-.93,4,4,0,0,1-1-3v-7Z"/><path class="cls-3" d="M117.93,255v-6.92a2.79,2.79,0,0,0-.6-2,2.43,2.43,0,0,0-1.87-.64,3.08,3.08,0,0,0-2.46.91,4.59,4.59,0,0,0-.78,3V255h-1.62v-10.7h1.32l.26,1.46h.08a3.31,3.31,0,0,1,1.4-1.23,4.53,4.53,0,0,1,2-.43,4.06,4.06,0,0,1,2.91.93,4,4,0,0,1,1,3v7Z"/><path class="cls-3" d="M130.2,255v-6.92a2.79,2.79,0,0,0-.6-2,2.43,2.43,0,0,0-1.87-.64,3.08,3.08,0,0,0-2.46.91,4.59,4.59,0,0,0-.78,3V255h-1.62v-10.7h1.32l.26,1.46h.08a3.31,3.31,0,0,1,1.4-1.23,4.53,4.53,0,0,1,2-.43,4.06,4.06,0,0,1,2.91.93,4,4,0,0,1,1,3v7Z"/><path class="cls-3" d="M133.46,244.27h1.74l2.34,6.1a23.25,23.25,0,0,1,1,3h.08q.13-.5.53-1.7t2.65-7.42h1.74l-4.6,12.19a6.09,6.09,0,0,1-1.6,2.56,3.39,3.39,0,0,1-2.24.76,6.54,6.54,0,0,1-1.46-.17v-1.3a5.65,5.65,0,0,0,1.2.12,2.48,2.48,0,0,0,2.38-1.87l.6-1.52Z"/><path class="cls-3" d="M150.67,255V240.7h1.66V255Z"/><path class="cls-3" d="M162.91,252.06a2.68,2.68,0,0,1-1.11,2.3,5.24,5.24,0,0,1-3.12.81,6.8,6.8,0,0,1-3.32-.67V253a8,8,0,0,0,1.66.62,6.93,6.93,0,0,0,1.7.22,3.86,3.86,0,0,0,2-.41,1.4,1.4,0,0,0,.14-2.3,8.53,8.53,0,0,0-2.11-1,11.49,11.49,0,0,1-2.12-1,2.9,2.9,0,0,1-.94-.94,2.46,2.46,0,0,1-.31-1.26,2.4,2.4,0,0,1,1.06-2.07,5,5,0,0,1,2.92-.76,8.54,8.54,0,0,1,3.38.7l-.58,1.32a7.76,7.76,0,0,0-2.92-.66,3.36,3.36,0,0,0-1.74.36,1.12,1.12,0,0,0-.59,1,1.21,1.21,0,0,0,.22.73,2.17,2.17,0,0,0,.71.58,15.66,15.66,0,0,0,1.88.79,7,7,0,0,1,2.57,1.4A2.46,2.46,0,0,1,162.91,252.06Z"/><path class="cls-3" d="M167.17,255h-1.62v-15.2h1.62Z"/><path class="cls-3" d="M175.13,255.17a4.92,4.92,0,0,1-3.75-1.45,5.59,5.59,0,0,1-1.37-4,6.2,6.2,0,0,1,1.27-4.11,4.23,4.23,0,0,1,3.42-1.52,4,4,0,0,1,3.18,1.32,5.07,5.07,0,0,1,1.17,3.49v1h-7.37a4.24,4.24,0,0,0,1,2.86,3.29,3.29,0,0,0,2.54,1,8.63,8.63,0,0,0,3.42-.72v1.45A8.62,8.62,0,0,1,177,255,9.14,9.14,0,0,1,175.13,255.17Zm-.44-9.74a2.65,2.65,0,0,0-2.06.84,3.87,3.87,0,0,0-.9,2.32h5.6a3.56,3.56,0,0,0-.68-2.35A2.41,2.41,0,0,0,174.69,245.43Z"/><path class="cls-3" d="M188.73,252.06a2.68,2.68,0,0,1-1.11,2.3,5.24,5.24,0,0,1-3.12.81,6.8,6.8,0,0,1-3.32-.67V253a8,8,0,0,0,1.66.62,6.93,6.93,0,0,0,1.7.22,3.86,3.86,0,0,0,2-.41,1.4,1.4,0,0,0,.14-2.3,8.53,8.53,0,0,0-2.11-1,11.49,11.49,0,0,1-2.12-1,2.9,2.9,0,0,1-.94-.94,2.46,2.46,0,0,1-.31-1.26,2.4,2.4,0,0,1,1.06-2.07,5,5,0,0,1,2.92-.76,8.54,8.54,0,0,1,3.38.7l-.58,1.32a7.76,7.76,0,0,0-2.92-.66,3.36,3.36,0,0,0-1.74.36,1.12,1.12,0,0,0-.59,1,1.21,1.21,0,0,0,.22.73,2.17,2.17,0,0,0,.71.58,15.66,15.66,0,0,0,1.88.79,7,7,0,0,1,2.57,1.4A2.46,2.46,0,0,1,188.73,252.06Z"/><path class="cls-3" d="M196.81,240.7h4a7.61,7.61,0,0,1,4.11.85,3,3,0,0,1,1.27,2.69,3.1,3.1,0,0,1-.71,2.09,3.41,3.41,0,0,1-2.07,1.07v.1q3.25.56,3.25,3.42a3.67,3.67,0,0,1-1.29,3,5.51,5.51,0,0,1-3.62,1.07h-5Zm1.66,6.11h2.73a4.45,4.45,0,0,0,2.53-.55,2.13,2.13,0,0,0,.77-1.86,1.88,1.88,0,0,0-.86-1.73,5.37,5.37,0,0,0-2.73-.53h-2.44Zm0,1.41v5.34h3a4.24,4.24,0,0,0,2.6-.67,2.47,2.47,0,0,0,.87-2.09,2.22,2.22,0,0,0-.89-2,4.77,4.77,0,0,0-2.72-.62Z"/><path class="cls-3" d="M214,255.17a4.92,4.92,0,0,1-3.75-1.45,5.59,5.59,0,0,1-1.37-4,6.2,6.2,0,0,1,1.27-4.11,4.23,4.23,0,0,1,3.42-1.52,4,4,0,0,1,3.18,1.32,5.07,5.07,0,0,1,1.17,3.49v1h-7.37a4.24,4.24,0,0,0,1,2.86,3.29,3.29,0,0,0,2.54,1,8.63,8.63,0,0,0,3.42-.72v1.45a8.62,8.62,0,0,1-1.63.53A9.14,9.14,0,0,1,214,255.17Zm-.44-9.74a2.65,2.65,0,0,0-2.06.84,3.87,3.87,0,0,0-.9,2.32h5.6a3.56,3.56,0,0,0-.68-2.35A2.41,2.41,0,0,0,213.6,245.43Z"/><path class="cls-3" d="M227.32,255l-.32-1.52h-.08a4.5,4.5,0,0,1-1.6,1.36,4.87,4.87,0,0,1-2,.36,3.57,3.57,0,0,1-2.5-.82,3,3,0,0,1-.9-2.33q0-3.24,5.19-3.4l1.82-.06v-.66a2.71,2.71,0,0,0-.54-1.86,2.23,2.23,0,0,0-1.73-.6,7.06,7.06,0,0,0-3,.82l-.5-1.24a7.65,7.65,0,0,1,1.73-.67,7.49,7.49,0,0,1,1.89-.24,4.08,4.08,0,0,1,2.84.85,3.55,3.55,0,0,1,.92,2.72V255Zm-3.66-1.14A3.29,3.29,0,0,0,226,253a3.07,3.07,0,0,0,.86-2.32v-1l-1.62.07a5.9,5.9,0,0,0-2.79.6,1.81,1.81,0,0,0-.85,1.66,1.67,1.67,0,0,0,.53,1.34A2.21,2.21,0,0,0,223.66,253.83Z"/><path class="cls-3" d="M236.14,255.17a4.57,4.57,0,0,1-3.6-1.43,5.88,5.88,0,0,1-1.27-4,6.07,6.07,0,0,1,1.29-4.15,4.66,4.66,0,0,1,3.69-1.46,7.34,7.34,0,0,1,1.54.17,5.08,5.08,0,0,1,1.21.39l-.5,1.38a7.64,7.64,0,0,0-1.17-.36,5.21,5.21,0,0,0-1.12-.14q-3.26,0-3.26,4.16a5,5,0,0,0,.8,3,2.77,2.77,0,0,0,2.36,1.05,7.22,7.22,0,0,0,2.74-.58v1.44A5.85,5.85,0,0,1,236.14,255.17Z"/><path class="cls-3" d="M248.71,255v-6.92a2.79,2.79,0,0,0-.6-2,2.43,2.43,0,0,0-1.87-.64,3.06,3.06,0,0,0-2.47.92,4.65,4.65,0,0,0-.78,3V255h-1.62v-15.2H243v4.6a10.07,10.07,0,0,1-.08,1.38h.1a3.31,3.31,0,0,1,1.36-1.22,4.43,4.43,0,0,1,2-.44,4.13,4.13,0,0,1,2.94.93,3.93,3.93,0,0,1,1,3v7Z"/><path class="cls-3" d="M255.36,252.65l.15.22q-.25,1-.73,2.27t-1,2.41h-1.22q.26-1,.58-2.51t.44-2.39Z"/><path class="cls-3" d="M265.66,255H264V240.7h8v1.47h-6.3v5.22h5.92v1.47h-5.92Z"/><path class="cls-3" d="M274.33,255V240.7H276v12.77h6.3V255Z"/><path class="cls-3" d="M297.76,244.06a3.26,3.26,0,0,1-.77,2.24,3.84,3.84,0,0,1-2.17,1.16v.08a4.09,4.09,0,0,1,2.55,1.09,3.22,3.22,0,0,1,.83,2.3,3.74,3.74,0,0,1-1.42,3.14,6.44,6.44,0,0,1-4,1.1,11.63,11.63,0,0,1-2.08-.17,7.14,7.14,0,0,1-1.83-.6v-1.54a9.35,9.35,0,0,0,4,.94q3.7,0,3.7-2.9,0-2.6-4.08-2.6H291v-1.4h1.43a4.3,4.3,0,0,0,2.65-.74,2.42,2.42,0,0,0,1-2,2,2,0,0,0-.72-1.64,3,3,0,0,0-1.95-.6,6,6,0,0,0-1.77.25,7.89,7.89,0,0,0-1.89.94l-.82-1.09a6.85,6.85,0,0,1,2-1.09,7.36,7.36,0,0,1,2.42-.4,4.94,4.94,0,0,1,3.23,1A3.21,3.21,0,0,1,297.76,244.06Z"/><path class="cls-3" d="M309.2,244.06a3.26,3.26,0,0,1-.77,2.24,3.84,3.84,0,0,1-2.17,1.16v.08a4.09,4.09,0,0,1,2.55,1.09,3.22,3.22,0,0,1,.83,2.3,3.74,3.74,0,0,1-1.42,3.14,6.44,6.44,0,0,1-4,1.1,11.63,11.63,0,0,1-2.08-.17,7.14,7.14,0,0,1-1.83-.6v-1.54a9.35,9.35,0,0,0,4,.94q3.7,0,3.7-2.9,0-2.6-4.08-2.6h-1.41v-1.4h1.43a4.3,4.3,0,0,0,2.65-.74,2.42,2.42,0,0,0,1-2,2,2,0,0,0-.72-1.64,3,3,0,0,0-1.95-.6,6,6,0,0,0-1.77.25,7.89,7.89,0,0,0-1.89.94l-.82-1.09a6.85,6.85,0,0,1,2-1.09,7.36,7.36,0,0,1,2.42-.4,4.94,4.94,0,0,1,3.23,1A3.21,3.21,0,0,1,309.2,244.06Z"/><path class="cls-3" d="M317.79,255h-1.58V244.8q0-1.27.08-2.4l-.46.43q-.25.22-2.32,1.9l-.86-1.11,3.78-2.92h1.37Z"/><path class="cls-3" d="M323.39,248.87q0-4.21,1.64-6.29a5.78,5.78,0,0,1,4.84-2.08,6.43,6.43,0,0,1,1.74.19v1.4a5.55,5.55,0,0,0-1.72-.24,4.34,4.34,0,0,0-3.51,1.43,7.33,7.33,0,0,0-1.33,4.5h.12a3.74,3.74,0,0,1,3.4-1.68,4,4,0,0,1,3,1.16,4.38,4.38,0,0,1,1.11,3.15,4.86,4.86,0,0,1-1.22,3.5,4.33,4.33,0,0,1-3.29,1.27,4.22,4.22,0,0,1-3.52-1.67A7.36,7.36,0,0,1,323.39,248.87Zm4.79,4.92a2.71,2.71,0,0,0,2.15-.87,3.72,3.72,0,0,0,.77-2.52,3.25,3.25,0,0,0-.71-2.23,2.69,2.69,0,0,0-2.13-.81,3.59,3.59,0,0,0-1.61.36,3,3,0,0,0-1.17,1A2.3,2.3,0,0,0,325,250a4.51,4.51,0,0,0,.39,1.88,3.31,3.31,0,0,0,1.11,1.38A2.76,2.76,0,0,0,328.18,253.79Z"/><path class="cls-3" d="M344.12,247.82a10.42,10.42,0,0,1-1.17,5.53,4.31,4.31,0,0,1-7.08,0,10.22,10.22,0,0,1-1.2-5.48,10.42,10.42,0,0,1,1.16-5.54,4.31,4.31,0,0,1,7.08.08A10.18,10.18,0,0,1,344.12,247.82Zm-7.8,0a10.46,10.46,0,0,0,.73,4.54,2.63,2.63,0,0,0,4.68,0,14.35,14.35,0,0,0,0-9,2.64,2.64,0,0,0-4.68,0A10.38,10.38,0,0,0,336.32,247.82Z"/><path class="cls-3" d="M387,225.5a15.12,15.12,0,0,1,.76-4.84,12.05,12.05,0,0,1,2.18-4h1.58a13.76,13.76,0,0,0-2.11,4.14,15.41,15.41,0,0,0-.71,4.64,14.82,14.82,0,0,0,.72,4.58,14.2,14.2,0,0,0,2.08,4.08h-1.56a11.5,11.5,0,0,1-2.19-3.88A14.75,14.75,0,0,1,387,225.5Z"/><path class="cls-3" d="M394.87,231l5.92-12.78H393V216.7h9.5V218l-5.84,13Z"/><path class="cls-3" d="M409.23,216.49a4.84,4.84,0,0,1,3.1.91,3,3,0,0,1,1.14,2.51,3.12,3.12,0,0,1-.65,1.92,5.79,5.79,0,0,1-2.09,1.58,7,7,0,0,1,2.47,1.74,3.28,3.28,0,0,1,.73,2.11,3.54,3.54,0,0,1-1.24,2.84,5.07,5.07,0,0,1-3.4,1.06,5.44,5.44,0,0,1-3.52-1,3.45,3.45,0,0,1-1.23-2.84q0-2.45,3-3.82a5.52,5.52,0,0,1-1.93-1.65,3.5,3.5,0,0,1-.59-2,3,3,0,0,1,1.15-2.48A4.76,4.76,0,0,1,409.23,216.49Zm-3.09,10.88a2.21,2.21,0,0,0,.82,1.83,3.57,3.57,0,0,0,2.29.65,3.41,3.41,0,0,0,2.27-.68,2.32,2.32,0,0,0,.81-1.87,2.28,2.28,0,0,0-.76-1.68,7.78,7.78,0,0,0-2.66-1.43,5.79,5.79,0,0,0-2.11,1.38A2.68,2.68,0,0,0,406.14,227.37Zm3.07-9.56a2.87,2.87,0,0,0-1.91.59,1.94,1.94,0,0,0-.69,1.56,2.24,2.24,0,0,0,.58,1.54,6,6,0,0,0,2.13,1.29,5.34,5.34,0,0,0,2-1.26,2.33,2.33,0,0,0,.58-1.57,1.92,1.92,0,0,0-.71-1.57A3,3,0,0,0,409.21,217.81Z"/><path class="cls-3" d="M416.1,224.87q0-4.21,1.64-6.29a5.78,5.78,0,0,1,4.84-2.08,6.43,6.43,0,0,1,1.74.19v1.4a5.55,5.55,0,0,0-1.72-.24,4.34,4.34,0,0,0-3.51,1.43,7.33,7.33,0,0,0-1.33,4.5h.12a3.74,3.74,0,0,1,3.4-1.68,4,4,0,0,1,3,1.16,4.38,4.38,0,0,1,1.11,3.15,4.86,4.86,0,0,1-1.22,3.5,4.33,4.33,0,0,1-3.29,1.27,4.22,4.22,0,0,1-3.52-1.67A7.36,7.36,0,0,1,416.1,224.87Zm4.79,4.92a2.71,2.71,0,0,0,2.15-.87,3.72,3.72,0,0,0,.77-2.52,3.25,3.25,0,0,0-.71-2.23,2.69,2.69,0,0,0-2.13-.81,3.59,3.59,0,0,0-1.61.36,3,3,0,0,0-1.17,1,2.3,2.3,0,0,0-.43,1.32,4.51,4.51,0,0,0,.39,1.88,3.31,3.31,0,0,0,1.11,1.38A2.76,2.76,0,0,0,420.9,229.79Z"/><path class="cls-3" d="M431.51,225.5a14.71,14.71,0,0,1-.76,4.79,11.46,11.46,0,0,1-2.18,3.86H427a14,14,0,0,0,2.08-4.08,14.86,14.86,0,0,0,.72-4.58,15.41,15.41,0,0,0-.71-4.64A13.76,13.76,0,0,0,427,216.7h1.58a12,12,0,0,1,2.19,4A15.21,15.21,0,0,1,431.51,225.5Z"/><path class="cls-3" d="M447.87,222.79q0,8.38-6.48,8.38a6.62,6.62,0,0,1-1.8-.2v-1.4a5.75,5.75,0,0,0,1.78.25,4.32,4.32,0,0,0,3.54-1.45,7.33,7.33,0,0,0,1.3-4.45h-.12a3.48,3.48,0,0,1-1.43,1.24,4.59,4.59,0,0,1-2,.42,4,4,0,0,1-3-1.13,4.32,4.32,0,0,1-1.11-3.16,4.85,4.85,0,0,1,1.25-3.52,4.76,4.76,0,0,1,5.82-.54,4.72,4.72,0,0,1,1.67,2.18A8.87,8.87,0,0,1,447.87,222.79Zm-4.8-4.91a2.68,2.68,0,0,0-2.16.9,3.75,3.75,0,0,0-.76,2.5,3.25,3.25,0,0,0,.7,2.21,2.69,2.69,0,0,0,2.14.81,3.7,3.7,0,0,0,1.64-.36,3,3,0,0,0,1.18-1,2.28,2.28,0,0,0,.43-1.31,4.48,4.48,0,0,0-.4-1.89,3.3,3.3,0,0,0-1.12-1.37A2.82,2.82,0,0,0,443.06,217.88Z"/><path class="cls-3" d="M459.38,223.82a10.42,10.42,0,0,1-1.17,5.53,4.31,4.31,0,0,1-7.08,0,10.22,10.22,0,0,1-1.2-5.48,10.42,10.42,0,0,1,1.16-5.54,4.31,4.31,0,0,1,7.08.08A10.18,10.18,0,0,1,459.38,223.82Zm-7.8,0a10.46,10.46,0,0,0,.73,4.54,2.63,2.63,0,0,0,4.68,0,14.35,14.35,0,0,0,0-9,2.64,2.64,0,0,0-4.68,0A10.38,10.38,0,0,0,451.58,223.82Z"/><path class="cls-3" d="M470.74,222.79q0,8.38-6.48,8.38a6.62,6.62,0,0,1-1.8-.2v-1.4a5.75,5.75,0,0,0,1.78.25,4.32,4.32,0,0,0,3.54-1.45,7.33,7.33,0,0,0,1.3-4.45H469a3.48,3.48,0,0,1-1.43,1.24,4.59,4.59,0,0,1-2,.42,4,4,0,0,1-3-1.13,4.32,4.32,0,0,1-1.11-3.16,4.85,4.85,0,0,1,1.25-3.52,4.76,4.76,0,0,1,5.82-.54,4.72,4.72,0,0,1,1.67,2.18A8.87,8.87,0,0,1,470.74,222.79Zm-4.8-4.91a2.68,2.68,0,0,0-2.16.9,3.75,3.75,0,0,0-.76,2.5,3.25,3.25,0,0,0,.7,2.21,2.69,2.69,0,0,0,2.14.81,3.7,3.7,0,0,0,1.64-.36,3,3,0,0,0,1.18-1,2.28,2.28,0,0,0,.43-1.31,4.48,4.48,0,0,0-.4-1.89,3.3,3.3,0,0,0-1.12-1.37A2.82,2.82,0,0,0,465.94,217.88Z"/><path class="cls-3" d="M472.63,226.36v-1.48h4.79v1.48Z"/><path class="cls-3" d="M484,216.49a4.84,4.84,0,0,1,3.1.91,3,3,0,0,1,1.14,2.51,3.12,3.12,0,0,1-.65,1.92,5.79,5.79,0,0,1-2.09,1.58,7,7,0,0,1,2.47,1.74,3.28,3.28,0,0,1,.73,2.11,3.54,3.54,0,0,1-1.24,2.84,5.07,5.07,0,0,1-3.4,1.06,5.44,5.44,0,0,1-3.52-1,3.45,3.45,0,0,1-1.23-2.84q0-2.45,3-3.82a5.52,5.52,0,0,1-1.93-1.65,3.5,3.5,0,0,1-.59-2,3,3,0,0,1,1.15-2.48A4.76,4.76,0,0,1,484,216.49Zm-3.09,10.88a2.21,2.21,0,0,0,.82,1.83,3.57,3.57,0,0,0,2.29.65,3.41,3.41,0,0,0,2.27-.68,2.32,2.32,0,0,0,.81-1.87,2.28,2.28,0,0,0-.76-1.68,7.78,7.78,0,0,0-2.66-1.43,5.79,5.79,0,0,0-2.11,1.38A2.68,2.68,0,0,0,480.87,227.37Zm3.07-9.56a2.87,2.87,0,0,0-1.91.59,1.94,1.94,0,0,0-.69,1.56,2.24,2.24,0,0,0,.58,1.54,6,6,0,0,0,2.13,1.29,5.34,5.34,0,0,0,2-1.26,2.33,2.33,0,0,0,.58-1.57,1.92,1.92,0,0,0-.71-1.57A3,3,0,0,0,483.93,217.81Z"/><path class="cls-3" d="M495.39,216.49a4.84,4.84,0,0,1,3.1.91,3,3,0,0,1,1.14,2.51,3.12,3.12,0,0,1-.65,1.92,5.79,5.79,0,0,1-2.09,1.58,7,7,0,0,1,2.47,1.74,3.28,3.28,0,0,1,.73,2.11,3.54,3.54,0,0,1-1.24,2.84,5.07,5.07,0,0,1-3.4,1.06,5.44,5.44,0,0,1-3.52-1,3.45,3.45,0,0,1-1.23-2.84q0-2.45,3-3.82a5.52,5.52,0,0,1-1.93-1.65,3.5,3.5,0,0,1-.59-2,3,3,0,0,1,1.15-2.48A4.76,4.76,0,0,1,495.39,216.49Zm-3.09,10.88a2.21,2.21,0,0,0,.82,1.83,3.57,3.57,0,0,0,2.29.65,3.41,3.41,0,0,0,2.27-.68,2.32,2.32,0,0,0,.81-1.87,2.28,2.28,0,0,0-.76-1.68,7.78,7.78,0,0,0-2.66-1.43,5.79,5.79,0,0,0-2.11,1.38A2.68,2.68,0,0,0,492.3,227.37Zm3.07-9.56a2.87,2.87,0,0,0-1.91.59,1.94,1.94,0,0,0-.69,1.56,2.24,2.24,0,0,0,.58,1.54,6,6,0,0,0,2.13,1.29,5.34,5.34,0,0,0,2-1.26A2.33,2.33,0,0,0,498,220a1.92,1.92,0,0,0-.71-1.57A3,3,0,0,0,495.37,217.81Z"/><path class="cls-3" d="M506.82,216.49a4.84,4.84,0,0,1,3.1.91,3,3,0,0,1,1.14,2.51,3.12,3.12,0,0,1-.65,1.92,5.79,5.79,0,0,1-2.09,1.58,7,7,0,0,1,2.47,1.74,3.28,3.28,0,0,1,.73,2.11,3.54,3.54,0,0,1-1.24,2.84,5.07,5.07,0,0,1-3.4,1.06,5.44,5.44,0,0,1-3.52-1,3.45,3.45,0,0,1-1.23-2.84q0-2.45,3-3.82a5.52,5.52,0,0,1-1.93-1.65,3.5,3.5,0,0,1-.59-2,3,3,0,0,1,1.15-2.48A4.76,4.76,0,0,1,506.82,216.49Zm-3.09,10.88a2.21,2.21,0,0,0,.82,1.83,3.57,3.57,0,0,0,2.29.65,3.41,3.41,0,0,0,2.27-.68,2.32,2.32,0,0,0,.81-1.87,2.28,2.28,0,0,0-.76-1.68,7.78,7.78,0,0,0-2.66-1.43,5.79,5.79,0,0,0-2.11,1.38A2.68,2.68,0,0,0,503.74,227.37Zm3.07-9.56a2.87,2.87,0,0,0-1.91.59,1.94,1.94,0,0,0-.69,1.56,2.24,2.24,0,0,0,.58,1.54,6,6,0,0,0,2.13,1.29,5.34,5.34,0,0,0,2-1.26,2.33,2.33,0,0,0,.58-1.57,1.92,1.92,0,0,0-.71-1.57A3,3,0,0,0,506.8,217.81Z"/><path class="cls-3" d="M522.38,220.06a3.26,3.26,0,0,1-.77,2.24,3.84,3.84,0,0,1-2.17,1.16v.08a4.09,4.09,0,0,1,2.55,1.09,3.22,3.22,0,0,1,.83,2.3,3.74,3.74,0,0,1-1.42,3.14,6.44,6.44,0,0,1-4,1.1,11.63,11.63,0,0,1-2.08-.17,7.14,7.14,0,0,1-1.83-.6v-1.54a9.35,9.35,0,0,0,4,.94q3.7,0,3.7-2.9,0-2.6-4.08-2.6h-1.41v-1.4h1.43a4.3,4.3,0,0,0,2.65-.74,2.42,2.42,0,0,0,1-2,2,2,0,0,0-.72-1.64,3,3,0,0,0-1.95-.6,6,6,0,0,0-1.77.25,7.89,7.89,0,0,0-1.89.94l-.82-1.09a6.85,6.85,0,0,1,2-1.09,7.36,7.36,0,0,1,2.42-.4,4.94,4.94,0,0,1,3.23,1A3.21,3.21,0,0,1,522.38,220.06Z"/><path class="cls-3" d="M582.46,222.79q0,8.38-6.48,8.38a6.62,6.62,0,0,1-1.8-.2v-1.4a5.75,5.75,0,0,0,1.78.25,4.32,4.32,0,0,0,3.54-1.45,7.33,7.33,0,0,0,1.3-4.45h-.12a3.48,3.48,0,0,1-1.43,1.24,4.59,4.59,0,0,1-2,.42,4,4,0,0,1-3-1.13,4.32,4.32,0,0,1-1.11-3.16,4.85,4.85,0,0,1,1.25-3.52,4.76,4.76,0,0,1,5.82-.54,4.72,4.72,0,0,1,1.67,2.18A8.87,8.87,0,0,1,582.46,222.79Zm-4.8-4.91a2.68,2.68,0,0,0-2.16.9,3.75,3.75,0,0,0-.76,2.5,3.25,3.25,0,0,0,.7,2.21,2.69,2.69,0,0,0,2.14.81,3.7,3.7,0,0,0,1.64-.36,3,3,0,0,0,1.18-1,2.28,2.28,0,0,0,.43-1.31,4.48,4.48,0,0,0-.4-1.89,3.3,3.3,0,0,0-1.12-1.37A2.82,2.82,0,0,0,577.66,217.88Z"/><path class="cls-3" d="M594.47,231l-1.78-4.54H587L585.21,231h-1.68l5.64-14.34h1.4L596.19,231Zm-2.29-6-1.66-4.42q-.32-.84-.66-2.06a18.66,18.66,0,0,1-.62,2.06l-1.68,4.42Z"/><path class="cls-3" d="M604.47,231l-4.84-12.66h-.08q.14,1.5.14,3.57V231h-1.53V216.7h2.5l4.52,11.78h.08l4.56-11.78h2.48V231h-1.66v-9.2q0-1.58.14-3.44h-.08L605.81,231Z"/><path class="cls-3" d="M620.26,226.36v-1.48h4.79v1.48Z"/><path class="cls-3" d="M633.86,231l5.92-12.78H632V216.7h9.5V218l-5.84,13Z"/><path class="cls-3" d="M653.52,220.86a4,4,0,0,1-1.48,3.33,6.7,6.7,0,0,1-4.23,1.17h-1.68V231h-1.66V216.7h3.7Q653.52,216.7,653.52,220.86Zm-7.39,3.08h1.49a5.55,5.55,0,0,0,3.19-.71,2.63,2.63,0,0,0,1-2.29,2.46,2.46,0,0,0-.93-2.11,4.85,4.85,0,0,0-2.89-.69h-1.86Z"/><path class="cls-3" d="M662.83,231,658,218.32h-.08q.14,1.5.14,3.57V231h-1.53V216.7H659l4.52,11.78h.08l4.56-11.78h2.48V231H669v-9.2q0-1.58.14-3.44h-.08L664.17,231Z"/><line class="cls-4" x1="84.61" y1="81.91" x2="680.69" y2="81.91"/><line class="cls-4" x1="84.61" y1="177.77" x2="680.69" y2="177.77"/></g></g></svg>