<svg xmlns="http://www.w3.org/2000/svg" viewBox="0 0 406.95 60.98"><defs><style>.cls-1{fill:#1c2c58;}</style></defs><title>dzhamgarova-logo-v2</title><g id="Layer_2" data-name="Layer 2"><g id="Layer_1-2" data-name="Layer 1"><path class="cls-1" d="M171.59,59.45l-1.52-1a13.08,13.08,0,0,1-2-1.65,6.94,6.94,0,0,1-1,1.08,7.23,7.23,0,0,1-1.42,1,8.38,8.38,0,0,1-1.82.69,8.78,8.78,0,0,1-2.18.26,7.88,7.88,0,0,1-2.76-.46,6.46,6.46,0,0,1-2.1-1.24,5.57,5.57,0,0,1-1.34-1.78,4.85,4.85,0,0,1-.47-2.1,6.07,6.07,0,0,1,.52-2.54,8.51,8.51,0,0,1,1.24-2,9.55,9.55,0,0,1,1.49-1.44l1.29-1a8.53,8.53,0,0,1-1.41-2.15,5.48,5.48,0,0,1-.57-2.3,3.73,3.73,0,0,1,.29-1.42,3.52,3.52,0,0,1,.85-1.24,4.34,4.34,0,0,1,1.38-.86,4.93,4.93,0,0,1,1.85-.33,5.21,5.21,0,0,1,3.06.82,2.72,2.72,0,0,1,1.16,2.37,4.68,4.68,0,0,1-.33,1.77,6.61,6.61,0,0,1-.85,1.51,8.52,8.52,0,0,1-1.16,1.26q-.65.57-1.28,1.06a37.77,37.77,0,0,0,2.73,3q1.55,1.55,3.28,3.1a6.84,6.84,0,0,0,.57-1.06,13.37,13.37,0,0,0,.65-1.75,16.62,16.62,0,0,0,.49-2.2,10.42,10.42,0,0,0,.1-2.37,5.11,5.11,0,0,1-1.7-.69v-.75h5.83v.75a5.26,5.26,0,0,1-1.9.69,23.92,23.92,0,0,1-.66,3.07A24.47,24.47,0,0,1,171,52q-.43,1.05-.82,1.78t-.62,1.08q1.09.89,2.14,1.65A26.85,26.85,0,0,0,174.09,58l1.58.69v.72Zm-4.51-3.53q-.86-.77-1.88-1.82t-2-2.14q-.95-1.09-1.75-2.1t-1.26-1.67a8.6,8.6,0,0,0-1.83,2.34,6,6,0,0,0-.56,2.66,5.55,5.55,0,0,0,.36,2,5,5,0,0,0,1,1.62,4.47,4.47,0,0,0,1.53,1.08,4.82,4.82,0,0,0,1.94.39,5.17,5.17,0,0,0,2.43-.59A5.76,5.76,0,0,0,167.08,55.92Zm-7.41-13.18a3.38,3.38,0,0,0,.2,1.1A6.5,6.5,0,0,0,160.4,45q.33.57.72,1.11t.76,1a7.21,7.21,0,0,0,1.68-2,4.4,4.4,0,0,0,.5-2.66,2.61,2.61,0,0,0-.57-1.54,2,2,0,0,0-1.64-.63,2.28,2.28,0,0,0-1,.21,1.88,1.88,0,0,0-.68.57,2.17,2.17,0,0,0-.36.8A4,4,0,0,0,159.66,42.74Z"/><path class="cls-1" d="M189.89,59.45h-6.38v-.83a10.92,10.92,0,0,1,2.07-.69L192.85,39h.83L201,57.93q.57.11,1.14.26a4,4,0,0,1,1,.43v.83h-7.41v-.83a12.2,12.2,0,0,1,1.18-.4q.6-.17,1.18-.29l-1.94-5.26h-6.83l-1.89,5.26a10.44,10.44,0,0,1,2.47.69Zm0-8.28h5.77l-2.26-6.09-.54-2.47h-.06l-.71,2.53Z"/><path class="cls-1" d="M207.45,57.47a2.93,2.93,0,0,0,.89.59,4.19,4.19,0,0,0,1.64.24,5.9,5.9,0,0,0,1.72-.24,4.09,4.09,0,0,0,1.39-.72,3.51,3.51,0,0,0,.93-1.15,3.34,3.34,0,0,0,.34-1.54,2.76,2.76,0,0,0-.7-1.93,7.19,7.19,0,0,0-1.75-1.38q-1-.6-2.28-1.18a12.65,12.65,0,0,1-2.28-1.37,7.17,7.17,0,0,1-1.75-1.9,5.07,5.07,0,0,1-.7-2.77,5.16,5.16,0,0,1,.43-2.16,4.51,4.51,0,0,1,1.22-1.61,5.64,5.64,0,0,1,1.88-1,7.79,7.79,0,0,1,2.44-.36,17.32,17.32,0,0,1,3.2.27,9.42,9.42,0,0,1,2.28.67,10.55,10.55,0,0,1-.07,1.13q-.07.65-.17,1.34t-.22,1.34q-.12.65-.23,1.13h-.75l-1.15-3.94a5.12,5.12,0,0,0-1.32-.34,12,12,0,0,0-1.7-.12,3.39,3.39,0,0,0-2.38.82,2.93,2.93,0,0,0-.9,2.28,2.89,2.89,0,0,0,.71,2A7.26,7.26,0,0,0,210,47q1.07.63,2.3,1.22a14.83,14.83,0,0,1,2.3,1.36,7.2,7.2,0,0,1,1.78,1.84,4.67,4.67,0,0,1,.71,2.64,5.72,5.72,0,0,1-.47,2.36,5,5,0,0,1-1.36,1.81A6.21,6.21,0,0,1,213,59.39a9.84,9.84,0,0,1-2.93.4,11.3,11.3,0,0,1-3.25-.43,6.2,6.2,0,0,1-2-.92q0-.49.1-1.18t.17-1.42q.1-.73.22-1.42c.08-.46.15-.85.23-1.18h.75Z"/><path class="cls-1" d="M222.85,57.47a2.93,2.93,0,0,0,.89.59,4.19,4.19,0,0,0,1.64.24,5.9,5.9,0,0,0,1.72-.24,4.09,4.09,0,0,0,1.39-.72,3.51,3.51,0,0,0,.93-1.15,3.34,3.34,0,0,0,.34-1.54,2.76,2.76,0,0,0-.7-1.93,7.19,7.19,0,0,0-1.75-1.38q-1-.6-2.28-1.18a12.65,12.65,0,0,1-2.28-1.37,7.17,7.17,0,0,1-1.75-1.9,5.07,5.07,0,0,1-.7-2.77,5.16,5.16,0,0,1,.43-2.16,4.51,4.51,0,0,1,1.22-1.61,5.64,5.64,0,0,1,1.88-1,7.79,7.79,0,0,1,2.44-.36,17.32,17.32,0,0,1,3.2.27,9.42,9.42,0,0,1,2.28.67,10.55,10.55,0,0,1-.07,1.13q-.07.65-.17,1.34t-.22,1.34q-.12.65-.23,1.13h-.75l-1.15-3.94a5.12,5.12,0,0,0-1.32-.34,12,12,0,0,0-1.7-.12,3.39,3.39,0,0,0-2.38.82,2.93,2.93,0,0,0-.9,2.28,2.89,2.89,0,0,0,.71,2A7.26,7.26,0,0,0,225.36,47q1.07.63,2.3,1.22A14.83,14.83,0,0,1,230,49.6a7.2,7.2,0,0,1,1.78,1.84,4.67,4.67,0,0,1,.71,2.64,5.72,5.72,0,0,1-.47,2.36,5,5,0,0,1-1.36,1.81,6.21,6.21,0,0,1-2.18,1.15,9.84,9.84,0,0,1-2.93.4,11.3,11.3,0,0,1-3.25-.43,6.2,6.2,0,0,1-2-.92q0-.49.1-1.18t.17-1.42q.1-.73.22-1.42c.08-.46.15-.85.23-1.18h.75Z"/><path class="cls-1" d="M235.46,49.4a13.41,13.41,0,0,1,.62-4.15,9.8,9.8,0,0,1,1.78-3.3,8,8,0,0,1,2.86-2.17,9.93,9.93,0,0,1,7.7,0,8,8,0,0,1,2.86,2.17,9.8,9.8,0,0,1,1.78,3.3,14.25,14.25,0,0,1,0,8.3,9.79,9.79,0,0,1-1.78,3.3A8,8,0,0,1,248.42,59a9.95,9.95,0,0,1-7.7,0,8,8,0,0,1-2.86-2.17,9.78,9.78,0,0,1-1.78-3.3A13.42,13.42,0,0,1,235.46,49.4Zm3.07,0a14.85,14.85,0,0,0,.39,3.46,9.1,9.1,0,0,0,1.16,2.83,5.89,5.89,0,0,0,2,1.91,5.33,5.33,0,0,0,2.79.7,4.61,4.61,0,0,0,2.56-.7,5.56,5.56,0,0,0,1.8-1.91,9.79,9.79,0,0,0,1.06-2.83,16,16,0,0,0,.36-3.46,15.41,15.41,0,0,0-.37-3.46,8.85,8.85,0,0,0-1.15-2.83,5.91,5.91,0,0,0-2-1.91,5.34,5.34,0,0,0-2.79-.7,4.91,4.91,0,0,0-2.69.7,5.39,5.39,0,0,0-1.8,1.91,9.22,9.22,0,0,0-1,2.83A18.08,18.08,0,0,0,238.54,49.4Z"/><path class="cls-1" d="M270.92,54.22h.75q.14.81.26,2a16.59,16.59,0,0,1,.06,2.37,3.57,3.57,0,0,1-1,.56,10,10,0,0,1-1.28.36,11,11,0,0,1-1.38.2q-.7.06-1.34.06a13.92,13.92,0,0,1-4.31-.62,8.17,8.17,0,0,1-3.2-1.88,8.29,8.29,0,0,1-2-3.23,13.87,13.87,0,0,1-.7-4.67,13.07,13.07,0,0,1,.78-4.78,8.77,8.77,0,0,1,2.1-3.22,8.08,8.08,0,0,1,3.08-1.82,11.7,11.7,0,0,1,3.68-.58,17.63,17.63,0,0,1,3.19.24,8.69,8.69,0,0,1,2.27.73q0,.46,0,1.08t-.09,1.31q-.06.69-.14,1.35t-.17,1.21h-.75l-1.49-4.14a2.79,2.79,0,0,0-1-.23q-.73-.06-1.45-.06a7,7,0,0,0-2.71.53,6,6,0,0,0-2.23,1.64,8.26,8.26,0,0,0-1.53,2.79,13.69,13.69,0,0,0-.06,7.64,8.08,8.08,0,0,0,1.49,2.82A6.45,6.45,0,0,0,264,57.69a7.82,7.82,0,0,0,3.18.62,7.19,7.19,0,0,0,1.58-.14,1.6,1.6,0,0,0,.83-.37Z"/><path class="cls-1" d="M282.44,59.45h-7.36v-.83a8.36,8.36,0,0,1,2.3-.69v-17a10,10,0,0,1-1.15-.3q-.57-.19-1.15-.42v-.83h7.36v.83a9.84,9.84,0,0,1-1.12.42,11.61,11.61,0,0,1-1.18.3v17q.6.11,1.21.29a7.27,7.27,0,0,1,1.09.4Z"/><path class="cls-1" d="M290.2,59.45h-6.38v-.83a10.92,10.92,0,0,1,2.07-.69L293.16,39H294l7.27,18.94q.58.11,1.14.26a4,4,0,0,1,1,.43v.83H296v-.83a12.2,12.2,0,0,1,1.18-.4q.6-.17,1.18-.29l-1.94-5.26h-6.83l-1.89,5.26a10.45,10.45,0,0,1,2.47.69Zm0-8.28H296l-2.26-6.09-.54-2.47h-.06l-.71,2.53Z"/><path class="cls-1" d="M314,59.45H306v-.83q.63-.23,1.28-.4a13,13,0,0,1,1.39-.29V40.83h-4.4l-1.52,4.11H302c-.06-.38-.11-.82-.14-1.31s-.07-1-.1-1.49-.05-1-.07-1.49,0-.92,0-1.31h16.69q0,.58,0,1.29t-.07,1.48l-.09,1.49q0,.73-.13,1.34h-.76l-1.51-4.11H311.4v17.1l1.39.29a7,7,0,0,1,1.25.4Z"/><path class="cls-1" d="M333.35,39.34q0,1.15-.1,2.31T333,44h-.75l-1.18-3.16h-6.26v7.61h4.68l1.12-2.13h.72a48.76,48.76,0,0,1,0,5.8h-.72l-1.12-2.18h-4.68v8h6.61l1.41-3.45h.72q.2,1.21.29,2.44a21.74,21.74,0,0,1,0,2.5H319.74v-.83a9.48,9.48,0,0,1,2.36-.69v-17a11.56,11.56,0,0,1-1.18-.3q-.6-.19-1.18-.42v-.83Z"/><path class="cls-1" d="M339.93,57.47a2.94,2.94,0,0,0,.89.59,4.2,4.2,0,0,0,1.64.24,5.9,5.9,0,0,0,1.72-.24,4.09,4.09,0,0,0,1.39-.72,3.5,3.5,0,0,0,.93-1.15,3.34,3.34,0,0,0,.34-1.54,2.76,2.76,0,0,0-.7-1.93,7.19,7.19,0,0,0-1.75-1.38q-1-.6-2.28-1.18a12.67,12.67,0,0,1-2.28-1.37,7.19,7.19,0,0,1-1.75-1.9,5.07,5.07,0,0,1-.7-2.77,5.16,5.16,0,0,1,.43-2.16A4.51,4.51,0,0,1,339,40.37a5.65,5.65,0,0,1,1.88-1,7.79,7.79,0,0,1,2.44-.36,17.32,17.32,0,0,1,3.2.27,9.42,9.42,0,0,1,2.28.67,10.67,10.67,0,0,1-.07,1.13q-.07.65-.17,1.34t-.21,1.34q-.12.65-.23,1.13h-.75l-1.15-3.94a5.12,5.12,0,0,0-1.32-.34,12,12,0,0,0-1.7-.12,3.4,3.4,0,0,0-2.38.82,2.93,2.93,0,0,0-.9,2.28,2.89,2.89,0,0,0,.71,2A7.25,7.25,0,0,0,342.45,47q1.07.63,2.3,1.22A14.85,14.85,0,0,1,347,49.6a7.19,7.19,0,0,1,1.78,1.84,4.66,4.66,0,0,1,.71,2.64,5.72,5.72,0,0,1-.47,2.36,5,5,0,0,1-1.37,1.81,6.21,6.21,0,0,1-2.18,1.15,9.84,9.84,0,0,1-2.93.4,11.3,11.3,0,0,1-3.25-.43,6.2,6.2,0,0,1-2-.92q0-.49.1-1.18t.17-1.42q.1-.73.21-1.42c.08-.46.15-.85.23-1.18h.75Z"/><path class="cls-1" d="M104.37,31.25H97v-.83a8.35,8.35,0,0,1,2.3-.69v-17a10.18,10.18,0,0,1-1.15-.3Q97.58,12.2,97,12v-.83h7.36V12a10,10,0,0,1-1.12.42,11.85,11.85,0,0,1-1.18.3v17q.6.11,1.21.29a7.25,7.25,0,0,1,1.09.4Z"/><path class="cls-1" d="M106.58,11.13h7.87V12q-.69.26-1.38.45a10,10,0,0,1-1.38.27V29.75h6.61l1.7-4.63h.75q.09.6.16,1.39t.12,1.64q0,.85,0,1.65t0,1.44H106.58v-.83a7.4,7.4,0,0,1,1.26-.46q.57-.14,1.09-.23v-17a10.15,10.15,0,0,1-1.26-.3,8.29,8.29,0,0,1-1.09-.42Z"/><path class="cls-1" d="M123,21.19a13.42,13.42,0,0,1,.62-4.15,9.8,9.8,0,0,1,1.78-3.3,8,8,0,0,1,2.86-2.17,9.94,9.94,0,0,1,7.7,0,8,8,0,0,1,2.86,2.17,9.81,9.81,0,0,1,1.78,3.3,13.43,13.43,0,0,1,.62,4.15,13.43,13.43,0,0,1-.62,4.15,9.79,9.79,0,0,1-1.78,3.3A8,8,0,0,1,136,30.82a9.94,9.94,0,0,1-7.7,0,8,8,0,0,1-2.86-2.17,9.78,9.78,0,0,1-1.78-3.3A13.42,13.42,0,0,1,123,21.19Zm3.07,0a14.85,14.85,0,0,0,.39,3.46,9.1,9.1,0,0,0,1.16,2.83,5.89,5.89,0,0,0,2,1.91,5.33,5.33,0,0,0,2.79.7,4.61,4.61,0,0,0,2.56-.7,5.56,5.56,0,0,0,1.8-1.91,9.79,9.79,0,0,0,1.06-2.83,16,16,0,0,0,.36-3.46,15.44,15.44,0,0,0-.37-3.46,8.88,8.88,0,0,0-1.15-2.83,5.91,5.91,0,0,0-2-1.91,5.34,5.34,0,0,0-2.79-.7,4.91,4.91,0,0,0-2.69.7,5.39,5.39,0,0,0-1.8,1.91,9.22,9.22,0,0,0-1,2.83A18.09,18.09,0,0,0,126.12,21.19Z"/><path class="cls-1" d="M156.78,11.13H163V12a8.89,8.89,0,0,1-2.36,1.15V31.59H159L148.56,15.76l-1.12-2.24h-.09l.26,2.24V29.41a7.45,7.45,0,0,1,2.21,1v.83h-6.21v-.83a8,8,0,0,1,1.11-.56q.59-.24,1.25-.45V12.94q-.57-.23-1.14-.49t-1-.52v-.8h4.86l9.05,13.65L159,27.25h.11L159,24.78V13.12q-.6-.26-1.16-.55a11.85,11.85,0,0,1-1-.6Z"/><path class="cls-1" d="M170.19,31.25h-6.38v-.83a11,11,0,0,1,2.07-.69l7.27-18.94H174l7.27,18.94q.57.11,1.14.26a4.08,4.08,0,0,1,1,.43v.83H176v-.83a12.2,12.2,0,0,1,1.18-.4q.6-.17,1.18-.29l-1.94-5.26h-6.83l-1.89,5.26a10.44,10.44,0,0,1,2.47.69Zm0-8.28H176l-2.26-6.09-.54-2.47h-.06l-.71,2.53Z"/><path class="cls-1" d="M191.26,31.25v-.83a9.53,9.53,0,0,1,2.36-.69v-17q-.66-.14-1.26-.33T191.26,12v-.83h2.93l1.15,0L196.7,11l1.35-.09q.65,0,1.08,0,4.88,0,7.51,2.61t2.63,7.41a13.23,13.23,0,0,1-.65,4.21,9,9,0,0,1-2,3.35,9.13,9.13,0,0,1-3.35,2.21,12.92,12.92,0,0,1-4.78.8q-.43,0-1,0l-1.15-.09-1.22-.09q-.62,0-1.16,0Zm7.47-18.85h-1.44a6.15,6.15,0,0,0-1.09.1V29.93a3.73,3.73,0,0,0,.52,0l.8,0h1.38a7,7,0,0,0,3.36-.75,6.49,6.49,0,0,0,2.26-2,8.53,8.53,0,0,0,1.28-2.89,14.44,14.44,0,0,0,.4-3.45,11.69,11.69,0,0,0-.39-2.92,8.43,8.43,0,0,0-1.26-2.76,6.88,6.88,0,0,0-2.31-2.05A7.08,7.08,0,0,0,198.73,12.4Z"/><path class="cls-1" d="M226.08,25.73h.75q.09.57.16,1.29t.11,1.47q0,.75.06,1.47t0,1.29H211.89V29.78l12-17.15H215l-1.75,4h-.72q-.09-.6-.16-1.32t-.11-1.47q0-.75-.06-1.45t0-1.28h14.68v1.49L215,29.75h9.37Z"/><path class="cls-1" d="M236.39,31.25h-7.27v-.83a12.81,12.81,0,0,1,2.36-.69v-17a7.53,7.53,0,0,1-2.36-.72v-.83h7.27V12a6.2,6.2,0,0,1-1,.43,10.76,10.76,0,0,1-1.12.29v7.5h9v-7.5q-.6-.14-1.14-.32a8.55,8.55,0,0,1-1-.4v-.83h7.27V12a4.71,4.71,0,0,1-1.13.45q-.62.16-1.22.27v17a12.16,12.16,0,0,1,1.26.29,7.23,7.23,0,0,1,1.09.4v.83h-7.27v-.83a10.53,10.53,0,0,1,2.16-.69v-8h-9v8a10.64,10.64,0,0,1,1.12.29,8.37,8.37,0,0,1,1,.4Z"/><path class="cls-1" d="M255.59,31.25h-6.38v-.83a11,11,0,0,1,2.07-.69l7.27-18.94h.83l7.27,18.94q.58.11,1.14.26a4.08,4.08,0,0,1,1,.43v.83h-7.41v-.83a12.2,12.2,0,0,1,1.18-.4q.6-.17,1.18-.29l-1.94-5.26H255l-1.89,5.26a10.45,10.45,0,0,1,2.47.69Zm0-8.28h5.77l-2.26-6.09-.54-2.47h-.06l-.71,2.53Z"/><path class="cls-1" d="M292.83,31.25h-7.07v-.83a10.86,10.86,0,0,1,1.15-.39l1.18-.3V16.8l.12-3.36H288L287,16.51l-5.89,14.74h-.75l-5.6-14.74-1-3.36h-.26l0,3.65V29.72q.54.11,1.09.29t1.09.4v.83h-6v-.83q.55-.23,1.14-.42a10.5,10.5,0,0,1,1.19-.3v-17a10.3,10.3,0,0,1-1.19-.3q-.59-.19-1.16-.42v-.83h5.89l5,13.13,1,3h0l1-3,5.17-13.07h5.14V12q-.52.23-1.06.42a8.81,8.81,0,0,1-1.12.3V29.75q.6.11,1.13.27a7.32,7.32,0,0,1,1,.39Z"/><path class="cls-1" d="M311.24,29.87a10.61,10.61,0,0,1-1.28.62,16.25,16.25,0,0,1-1.55.55q-.82.24-1.64.4a8.13,8.13,0,0,1-1.54.16A13,13,0,0,1,301.1,31a8,8,0,0,1-3.13-1.9,8.51,8.51,0,0,1-2-3.23,13.75,13.75,0,0,1-.7-4.65,12.56,12.56,0,0,1,.82-4.8,8.92,8.92,0,0,1,2.18-3.23,8.33,8.33,0,0,1,3.1-1.81,11.49,11.49,0,0,1,3.55-.56,17.83,17.83,0,0,1,3.2.24,8.68,8.68,0,0,1,2.28.73q0,.43,0,1.06t-.09,1.32q-.06.69-.14,1.36T310,16.71h-.75l-1.49-4.14a2.83,2.83,0,0,0-1.06-.23q-.74-.06-1.46-.06a7.08,7.08,0,0,0-2.72.53,6,6,0,0,0-2.25,1.64,8.25,8.25,0,0,0-1.53,2.79,12.27,12.27,0,0,0-.57,4,11.36,11.36,0,0,0,.56,3.68,8.54,8.54,0,0,0,1.55,2.8,6.9,6.9,0,0,0,2.32,1.8,6.63,6.63,0,0,0,2.88.63,5.39,5.39,0,0,0,1.12-.11,8.39,8.39,0,0,0,1-.27,4.5,4.5,0,0,0,.76-.33,2.14,2.14,0,0,0,.42-.29v-5.8a6.76,6.76,0,0,1-1.42-.26q-.68-.2-1.34-.43v-.83h7v.83a3.84,3.84,0,0,1-.69.37,5.91,5.91,0,0,1-1.09.32Z"/><path class="cls-1" d="M319.89,31.25h-6.38v-.83a11,11,0,0,1,2.07-.69l7.27-18.94h.83L331,29.72q.58.11,1.14.26a4.08,4.08,0,0,1,1,.43v.83h-7.41v-.83a12.2,12.2,0,0,1,1.18-.4q.6-.17,1.18-.29l-1.94-5.26h-6.83l-1.89,5.26a10.45,10.45,0,0,1,2.47.69Zm0-8.28h5.77l-2.26-6.09-.54-2.47h-.06l-.71,2.53Z"/><path class="cls-1" d="M339.09,29.72l1.26.3a10.11,10.11,0,0,1,1.18.39v.83H334v-.83a7.16,7.16,0,0,1,1.21-.43l1.15-.26v-17a11,11,0,0,1-1.32-.33q-.58-.19-1-.39v-.83h2.53q1.15,0,2.52-.12t2.66-.11a10.52,10.52,0,0,1,2.63.32,5.78,5.78,0,0,1,2.12,1,4.75,4.75,0,0,1,1.4,1.75,5.93,5.93,0,0,1,.5,2.56A5.37,5.37,0,0,1,347.23,20a6.14,6.14,0,0,1-3,2q1.23,2,2.59,3.88t2.82,3.82l1.56.83v.72h-3.5l-1.09-.8q-.8-1-1.47-2t-1.24-2q-.57-1-1.08-2t-1-2.17h-2.71Zm2-17.33q-.69,0-1.14,0a5.18,5.18,0,0,0-.82.11v8.54h2.07a4.08,4.08,0,0,0,3.15-1.26,4.68,4.68,0,0,0,1.16-3.31,3.76,3.76,0,0,0-1.24-3.11A4.91,4.91,0,0,0,341,12.4Z"/><path class="cls-1" d="M352.07,21.19a13.42,13.42,0,0,1,.62-4.15,9.79,9.79,0,0,1,1.78-3.3,8,8,0,0,1,2.86-2.17,9.94,9.94,0,0,1,7.7,0,8,8,0,0,1,2.86,2.17,9.81,9.81,0,0,1,1.78,3.3,13.45,13.45,0,0,1,.62,4.15,13.45,13.45,0,0,1-.62,4.15,9.79,9.79,0,0,1-1.78,3.3A8,8,0,0,1,365,30.82a9.94,9.94,0,0,1-7.7,0,8,8,0,0,1-2.86-2.17,9.77,9.77,0,0,1-1.78-3.3A13.42,13.42,0,0,1,352.07,21.19Zm3.07,0a14.85,14.85,0,0,0,.39,3.46,9.1,9.1,0,0,0,1.16,2.83,5.9,5.9,0,0,0,2,1.91,5.33,5.33,0,0,0,2.79.7,4.61,4.61,0,0,0,2.56-.7,5.56,5.56,0,0,0,1.8-1.91,9.79,9.79,0,0,0,1.06-2.83,16,16,0,0,0,.36-3.46,15.47,15.47,0,0,0-.37-3.46,8.9,8.9,0,0,0-1.15-2.83,5.92,5.92,0,0,0-2-1.91,5.34,5.34,0,0,0-2.79-.7,4.91,4.91,0,0,0-2.69.7,5.38,5.38,0,0,0-1.8,1.91,9.22,9.22,0,0,0-1,2.83A18.09,18.09,0,0,0,355.15,21.19Z"/><path class="cls-1" d="M386.3,12.69q-.69-.14-1.29-.33L383.82,12v-.83h6.46V12a7.46,7.46,0,0,1-2.07.72l-6.49,18.56-1.58.34-7.33-18.91q-.58-.14-1.12-.33L370.64,12v-.83h7.61V12q-.49.2-1.09.39t-1.26.33l4.91,13.13.6,2.3h.06l.58-2.36Z"/><path class="cls-1" d="M393.71,31.25h-6.38v-.83a11,11,0,0,1,2.07-.69l7.27-18.94h.83l7.27,18.94q.57.11,1.13.26a4.07,4.07,0,0,1,1,.43v.83h-7.41v-.83a12.2,12.2,0,0,1,1.18-.4q.6-.17,1.18-.29L400,24.47h-6.83l-1.89,5.26a10.43,10.43,0,0,1,2.47.69Zm0-8.28h5.77l-2.26-6.09-.54-2.47h-.06l-.71,2.53Z"/><rect class="cls-1" x="105.08" y="50.39" width="39.78" height="1.24"/><rect class="cls-1" x="357.23" y="50.39" width="39.78" height="1.24"/><path class="cls-1" d="M0,37.48c.66,0,1.32,0,2,0a.87.87,0,0,0,1-.69q3.75-10,7.54-20c.19-.5.41-1,1-1.06s1.14.19,1.46,1l3.24,8.59c1.47,3.89,2.94,7.77,4.39,11.66.14.38.31.53.72.51.69,0,1.39,0,2.15,0a10.37,10.37,0,0,1-1.8,3.38,12,12,0,0,1-10.89,4.91c-5-.42-8.48-3.11-10.55-7.65C.18,38,.09,37.78,0,37.6ZM11.77,20.16,5.24,37.46H18.3Z"/><path class="cls-1" d="M16.51,61c0-.88,0-1.72,0-2.55a2.2,2.2,0,0,1,2.06-2c1.35-.06,2.71,0,4.06,0h.86c.08-.46.13-.89.24-1.31a6.92,6.92,0,0,1,4-4.86.65.65,0,0,0,.46-.7q0-13.29,0-26.59a1.18,1.18,0,0,0-.39-.78,4.58,4.58,0,0,1-1.64-3.4H35a4.07,4.07,0,0,1-1.47,3.22,1.5,1.5,0,0,0-.58,1.32q0,13,0,26.05a.85.85,0,0,0,.57.93A6.93,6.93,0,0,1,37.63,56l0,.37h2c1,0,2,0,3,0a2.21,2.21,0,0,1,2,2c0,.83,0,1.67,0,2.55Z"/><path class="cls-1" d="M61.12,37.5a12.35,12.35,0,0,1-23.37,0c.65,0,1.28,0,1.91,0a.83.83,0,0,0,1-.66q3.75-10,7.53-20c.19-.5.4-1,1-1.08s1.17.18,1.49,1l2.76,7.31Q55.85,30.53,58.27,37c.15.39.33.56.76.53C59.72,37.47,60.41,37.5,61.12,37.5ZM49.43,20.16,42.89,37.48H56Z"/><path class="cls-1" d="M27.4,8.67l1.72-1.14c-1.47-1.34-1.67-2.37-.71-4.15C28.9,2.48,29.49,1.62,30,.75c.15-.23.33-.45.55-.75.36.51.71,1,1,1.44.43.67.86,1.34,1.23,2,.89,1.71.68,2.74-.76,4l1.74,1.16A7.72,7.72,0,0,1,39.5,6.93a13.52,13.52,0,0,1,4.62,1.33c1,.48,2.08,1,3.11,1.51A.68.68,0,0,0,48,9.71a2.35,2.35,0,0,1,3.39.65,2.37,2.37,0,1,1-4.15,2.26.88.88,0,0,0-.32-.39c-1.75-.82-3.48-1.68-5.26-2.4a6.9,6.9,0,0,0-4.1-.44,5.19,5.19,0,0,0-2.5,1.32,1,1,0,0,0-.26.66,4.29,4.29,0,0,1-3.77,4.47,4.21,4.21,0,0,1-4.68-3.69,1.14,1.14,0,0,1,0-.35c.22-1-.51-1.36-1.17-1.76a6.15,6.15,0,0,0-5.69-.2c-1.79.69-3.52,1.58-5.26,2.4a.88.88,0,0,0-.32.39,2.37,2.37,0,1,1-4.15-2.25,2.35,2.35,0,0,1,3.39-.66.69.69,0,0,0,.81.07c1.51-.71,3-1.49,4.55-2.08a13.19,13.19,0,0,1,3.36-.75A7.4,7.4,0,0,1,27.4,8.67Z"/></g></g></svg>