<svg xmlns="http://www.w3.org/2000/svg" viewBox="0 0 248.03 50.16"><defs><style>.cls-1{fill:#1c2c58;}</style></defs><title>dzhamgarova-logo</title><g id="Layer_2" data-name="Layer 2"><g id="Layer_1-2" data-name="Layer 1"><path class="cls-1" d="M60.11,49.81l-1.52-1a13.08,13.08,0,0,1-2-1.65,6.94,6.94,0,0,1-1,1.08,7.23,7.23,0,0,1-1.42,1,8.43,8.43,0,0,1-1.82.69,8.73,8.73,0,0,1-2.18.26,7.85,7.85,0,0,1-2.76-.46,6.46,6.46,0,0,1-2.1-1.24,5.59,5.59,0,0,1-1.34-1.78,4.86,4.86,0,0,1-.47-2.1A6.07,6.07,0,0,1,44,42a8.46,8.46,0,0,1,1.24-2,9.5,9.5,0,0,1,1.49-1.44l1.29-1A8.54,8.54,0,0,1,46.6,35.5,5.48,5.48,0,0,1,46,33.2a3.73,3.73,0,0,1,.29-1.42,3.51,3.51,0,0,1,.85-1.24,4.34,4.34,0,0,1,1.38-.86,4.93,4.93,0,0,1,1.85-.33,5.21,5.21,0,0,1,3.06.82,2.72,2.72,0,0,1,1.16,2.37,4.68,4.68,0,0,1-.33,1.77,6.64,6.64,0,0,1-.85,1.51,8.51,8.51,0,0,1-1.16,1.26q-.65.58-1.28,1.06a37.77,37.77,0,0,0,2.73,3q1.55,1.55,3.28,3.1a6.75,6.75,0,0,0,.57-1.06,13.3,13.3,0,0,0,.65-1.75,16.69,16.69,0,0,0,.49-2.2,10.43,10.43,0,0,0,.1-2.37,5.09,5.09,0,0,1-1.7-.69v-.75H63v.75a5.26,5.26,0,0,1-1.9.69A24,24,0,0,1,60.4,40a24.64,24.64,0,0,1-.83,2.43q-.43,1-.82,1.78t-.62,1.08q1.09.89,2.14,1.65a26.85,26.85,0,0,0,2.34,1.51l1.58.69v.72ZM55.6,46.28q-.86-.78-1.88-1.83t-2-2.14q-.95-1.09-1.75-2.1t-1.26-1.67a8.59,8.59,0,0,0-1.83,2.34,5.94,5.94,0,0,0-.56,2.66,5.56,5.56,0,0,0,.36,2,5,5,0,0,0,1,1.62,4.47,4.47,0,0,0,1.53,1.08,4.84,4.84,0,0,0,1.94.39,5.17,5.17,0,0,0,2.43-.59A5.76,5.76,0,0,0,55.6,46.28ZM48.18,33.1a3.39,3.39,0,0,0,.2,1.1,6.53,6.53,0,0,0,.53,1.15q.33.57.72,1.11t.76,1a7.22,7.22,0,0,0,1.68-2,4.41,4.41,0,0,0,.5-2.66A2.61,2.61,0,0,0,52,31.25a2,2,0,0,0-1.64-.63,2.28,2.28,0,0,0-1,.21,1.88,1.88,0,0,0-.68.57,2.15,2.15,0,0,0-.36.8A4,4,0,0,0,48.18,33.1Z"/><path class="cls-1" d="M78.41,49.81H72V49a11.06,11.06,0,0,1,2.07-.69l7.27-18.93h.83l7.27,18.93q.57.12,1.14.26a4.11,4.11,0,0,1,1,.43v.83H84.24V49a12.19,12.19,0,0,1,1.18-.4q.6-.17,1.18-.29L84.66,43H77.83l-1.89,5.26a10.44,10.44,0,0,1,2.47.69Zm0-8.28h5.77l-2.26-6.09L81.37,33h-.06L80.6,35.5Z"/><path class="cls-1" d="M100.13,46.54a2,2,0,0,0-.5-1.37,6,6,0,0,0-1.28-1q-.78-.49-1.65-.95A10.31,10.31,0,0,1,95,42.1a5.61,5.61,0,0,1-1.28-1.42,3.67,3.67,0,0,1-.5-2,3,3,0,0,1,.36-1.44,3.63,3.63,0,0,1,1-1.13A4.69,4.69,0,0,1,96,35.37a5.34,5.34,0,0,1,1.72-.27,15.28,15.28,0,0,1,2.54.17,12.31,12.31,0,0,1,1.91.49q-.12.92-.27,1.85a16.71,16.71,0,0,1-.45,1.91h-.72l-1.09-2.93a2.7,2.7,0,0,0-.78-.19q-.43,0-.89,0a2.07,2.07,0,0,0-.91.19,2.25,2.25,0,0,0-.66.47,2,2,0,0,0-.42.66,2.06,2.06,0,0,0-.14.75,1.93,1.93,0,0,0,.5,1.34,5.68,5.68,0,0,0,1.28,1q.78.47,1.65.93a12.67,12.67,0,0,1,1.65,1,5.31,5.31,0,0,1,1.28,1.34,3.24,3.24,0,0,1,.5,1.83,3.64,3.64,0,0,1-.42,1.75A4,4,0,0,1,101.15,49a5.63,5.63,0,0,1-1.7.85,6.83,6.83,0,0,1-2.05.3,11.15,11.15,0,0,1-2.27-.22A16.21,16.21,0,0,1,93,49.32a13.31,13.31,0,0,1,.26-2,14.17,14.17,0,0,1,.52-1.85h.72l1.26,3.13a1.42,1.42,0,0,0,.76.26l.82,0a3,3,0,0,0,2-.69A2.15,2.15,0,0,0,100.13,46.54Z"/><path class="cls-1" d="M112.58,46.54a2,2,0,0,0-.5-1.37,6,6,0,0,0-1.28-1q-.78-.49-1.65-.95a10.31,10.31,0,0,1-1.65-1.08,5.61,5.61,0,0,1-1.28-1.42,3.67,3.67,0,0,1-.5-2,3,3,0,0,1,.36-1.44,3.63,3.63,0,0,1,1-1.13,4.69,4.69,0,0,1,1.41-.75,5.34,5.34,0,0,1,1.72-.27,15.28,15.28,0,0,1,2.54.17,12.31,12.31,0,0,1,1.91.49q-.12.92-.27,1.85a16.71,16.71,0,0,1-.45,1.91h-.72l-1.09-2.93a2.7,2.7,0,0,0-.78-.19q-.43,0-.89,0a2.07,2.07,0,0,0-.91.19,2.25,2.25,0,0,0-.66.47,2,2,0,0,0-.42.66,2.06,2.06,0,0,0-.14.75,1.93,1.93,0,0,0,.5,1.34,5.68,5.68,0,0,0,1.28,1q.78.47,1.65.93a12.67,12.67,0,0,1,1.65,1,5.31,5.31,0,0,1,1.28,1.34,3.24,3.24,0,0,1,.5,1.83,3.64,3.64,0,0,1-.42,1.75A4,4,0,0,1,113.6,49a5.63,5.63,0,0,1-1.7.85,6.83,6.83,0,0,1-2.05.3,11.15,11.15,0,0,1-2.27-.22,16.21,16.21,0,0,1-2.15-.62,13.31,13.31,0,0,1,.26-2,14.17,14.17,0,0,1,.52-1.85h.72l1.26,3.13a1.42,1.42,0,0,0,.76.26l.82,0a3,3,0,0,0,2-.69A2.15,2.15,0,0,0,112.58,46.54Z"/><path class="cls-1" d="M117.72,42.63a9.93,9.93,0,0,1,.47-3.2,6.49,6.49,0,0,1,1.36-2.36,5.86,5.86,0,0,1,2.14-1.47,7.37,7.37,0,0,1,2.77-.5,7.89,7.89,0,0,1,3.07.55,5.43,5.43,0,0,1,2.11,1.54,6.39,6.39,0,0,1,1.21,2.37,11.35,11.35,0,0,1,.39,3.07,7.83,7.83,0,0,1-1.84,5.57,6.46,6.46,0,0,1-4.94,2,7.69,7.69,0,0,1-3-.53,5.45,5.45,0,0,1-2.1-1.52,6.57,6.57,0,0,1-1.25-2.38A10.75,10.75,0,0,1,117.72,42.63Zm2.76,0a11.71,11.71,0,0,0,.24,2.44,6.11,6.11,0,0,0,.78,2,3.87,3.87,0,0,0,1.39,1.34,4.13,4.13,0,0,0,2.07.49,3,3,0,0,0,2.54-1.52,8.88,8.88,0,0,0,1-4.74,11.7,11.7,0,0,0-.24-2.46,6.36,6.36,0,0,0-.76-2,3.93,3.93,0,0,0-1.32-1.34,3.64,3.64,0,0,0-1.92-.49,3.16,3.16,0,0,0-2.73,1.52A8.58,8.58,0,0,0,120.48,42.63Z"/><path class="cls-1" d="M144.7,47.8A4.16,4.16,0,0,1,143,49.48a5.31,5.31,0,0,1-2.72.68,7.5,7.5,0,0,1-2.95-.53,5.47,5.47,0,0,1-2.08-1.52A6.57,6.57,0,0,1,134,45.72a10.75,10.75,0,0,1-.42-3.09A8,8,0,0,1,135.39,37a6.27,6.27,0,0,1,4.86-1.94,11.77,11.77,0,0,1,2.51.24,7.76,7.76,0,0,1,1.88.65,21.28,21.28,0,0,1-.32,2.13,9.21,9.21,0,0,1-.57,2H143l-1.21-3.42a1.48,1.48,0,0,0-.46-.22,3.66,3.66,0,0,0-.86-.07,3.54,3.54,0,0,0-3,1.42q-1.06,1.42-1.06,4.81a7.55,7.55,0,0,0,.3,2.13,5.69,5.69,0,0,0,.92,1.85,4.55,4.55,0,0,0,1.55,1.31,4.61,4.61,0,0,0,2.17.49,4.8,4.8,0,0,0,3-1Z"/><path class="cls-1" d="M153.38,49.81H147v-.72a6.1,6.1,0,0,1,.89-.39q.46-.16,1-.3V37.11l-1.9-.23v-.75a14.27,14.27,0,0,1,1.81-.6q1-.26,2-.43h.72V48.4q.57.14,1,.3a5,5,0,0,1,.86.39Zm-5-19.25a1.59,1.59,0,0,1,.5-1.24,1.91,1.91,0,0,1,1.34-.46,1.85,1.85,0,0,1,1.32.46,1.62,1.62,0,0,1,.49,1.24,1.57,1.57,0,0,1-.49,1.22,1.89,1.89,0,0,1-1.32.45,1.94,1.94,0,0,1-1.34-.45A1.55,1.55,0,0,1,148.35,30.56Z"/><path class="cls-1" d="M166.25,46q0,.63,0,1.09t.06,1l2,.29V49a10.64,10.64,0,0,1-1.59.66,12.59,12.59,0,0,1-1.68.43h-.72a4.41,4.41,0,0,1-.34-1.45q-.06-.79-.09-1.74h-.14a4,4,0,0,1-.45,1.16,3.92,3.92,0,0,1-.86,1,4.29,4.29,0,0,1-2.89,1,4,4,0,0,1-2.86-1.06,3.69,3.69,0,0,1-1.11-2.79,4,4,0,0,1,.53-2.17,3.59,3.59,0,0,1,1.57-1.34,8.93,8.93,0,0,1,2.56-.7q1.52-.22,3.53-.33a16.56,16.56,0,0,0,.07-2.23,5.36,5.36,0,0,0-.32-1.7,2.37,2.37,0,0,0-.8-1.09,2.31,2.31,0,0,0-1.39-.39q-.4,0-.9,0a3.34,3.34,0,0,0-1,.24l-1.35,3.45h-.75q-.29-.86-.5-1.78a11,11,0,0,1-.27-1.81,9.71,9.71,0,0,1,2.43-1,11,11,0,0,1,3-.37,5.52,5.52,0,0,1,2.34.42,3.31,3.31,0,0,1,1.34,1.08,3.68,3.68,0,0,1,.6,1.47,9.14,9.14,0,0,1,.14,1.61q0,1.72-.07,3.32T166.25,46Zm-5.55,2.33a2.67,2.67,0,0,0,1.26-.29,3.37,3.37,0,0,0,.92-.69,4.21,4.21,0,0,0,.6-.82,3.8,3.8,0,0,0,.32-.7v-3a17.57,17.57,0,0,0-2.73.17,4.6,4.6,0,0,0-1.67.55,2,2,0,0,0-.83.93,3.35,3.35,0,0,0-.23,1.28A2.69,2.69,0,0,0,159,47.7,2.25,2.25,0,0,0,160.7,48.38Z"/><path class="cls-1" d="M169.41,36.17a7.45,7.45,0,0,1,2.3-1V32.72a6.68,6.68,0,0,1,.88-.56,10.27,10.27,0,0,1,1-.47h.72v3.76h4.31v1.49h-4.31v8.29a4.1,4.1,0,0,0,.55,2.43,1.93,1.93,0,0,0,1.64.71q.52,0,1.29-.07a5.27,5.27,0,0,0,1.32-.27l.2.43a3.66,3.66,0,0,1-.65.55,7.41,7.41,0,0,1-.95.55,6.67,6.67,0,0,1-1.16.43,4.88,4.88,0,0,1-1.29.17,3.42,3.42,0,0,1-2.63-1,4.53,4.53,0,0,1-.91-3.15v-9.1h-2.3Z"/><path class="cls-1" d="M192.45,47.8a2.87,2.87,0,0,1-.72.92,5.21,5.21,0,0,1-1.12.75,6.74,6.74,0,0,1-1.38.5,6.28,6.28,0,0,1-1.52.19,7.83,7.83,0,0,1-3-.53,5.65,5.65,0,0,1-2.16-1.52,6.7,6.7,0,0,1-1.31-2.37,10.06,10.06,0,0,1-.45-3.1,8.23,8.23,0,0,1,1.7-5.6,6.06,6.06,0,0,1,4.8-1.93,7.35,7.35,0,0,1,2,.27,4.47,4.47,0,0,1,3,2.59,6.31,6.31,0,0,1,.47,2.6c0,.33,0,.66,0,1a9.77,9.77,0,0,1-.16,1.08h-9a8.13,8.13,0,0,0,.3,2.26,5.35,5.35,0,0,0,.9,1.82,4.23,4.23,0,0,0,1.52,1.22,4.89,4.89,0,0,0,2.16.45,7.57,7.57,0,0,0,2-.29,3.89,3.89,0,0,0,1.55-.75Zm-5.26-11.44a3,3,0,0,0-2.5,1.11,7.3,7.3,0,0,0-1,3.89H190c0-.17,0-.34,0-.5s0-.32,0-.47a5.44,5.44,0,0,0-.69-2.93A2.37,2.37,0,0,0,187.19,36.37Z"/><path class="cls-1" d="M202.57,46.54a2,2,0,0,0-.5-1.37,6,6,0,0,0-1.28-1q-.78-.49-1.65-.95a10.31,10.31,0,0,1-1.65-1.08,5.61,5.61,0,0,1-1.28-1.42,3.67,3.67,0,0,1-.5-2,3,3,0,0,1,.36-1.44,3.63,3.63,0,0,1,1-1.13,4.69,4.69,0,0,1,1.41-.75,5.34,5.34,0,0,1,1.72-.27,15.28,15.28,0,0,1,2.54.17,12.31,12.31,0,0,1,1.91.49q-.12.92-.27,1.85a16.71,16.71,0,0,1-.45,1.91h-.72l-1.09-2.93a2.7,2.7,0,0,0-.78-.19q-.43,0-.89,0a2.07,2.07,0,0,0-.91.19,2.25,2.25,0,0,0-.66.47,2,2,0,0,0-.42.66,2.06,2.06,0,0,0-.14.75,1.93,1.93,0,0,0,.5,1.34,5.68,5.68,0,0,0,1.28,1q.78.47,1.65.93a12.67,12.67,0,0,1,1.65,1,5.31,5.31,0,0,1,1.28,1.34,3.24,3.24,0,0,1,.5,1.83,3.64,3.64,0,0,1-.42,1.75A4,4,0,0,1,203.59,49a5.63,5.63,0,0,1-1.7.85,6.83,6.83,0,0,1-2.05.3,11.15,11.15,0,0,1-2.27-.22,16.21,16.21,0,0,1-2.15-.62,13.31,13.31,0,0,1,.26-2,14.17,14.17,0,0,1,.52-1.85h.72l1.26,3.13a1.42,1.42,0,0,0,.76.26l.82,0a3,3,0,0,0,2-.69A2.15,2.15,0,0,0,202.57,46.54Z"/><path class="cls-1" d="M7.36,21.61H0v-.83a8.35,8.35,0,0,1,2.3-.69V3a10.39,10.39,0,0,1-1.15-.3Q.57,2.56,0,2.33V1.49H7.36v.83a10.22,10.22,0,0,1-1.12.42A12.12,12.12,0,0,1,5.06,3v17q.6.12,1.21.29a7.25,7.25,0,0,1,1.09.4Z"/><path class="cls-1" d="M16.29,21.61H9.91v-.72a9.49,9.49,0,0,1,1.9-.69V2L9.63,1.78V1a9.8,9.8,0,0,1,1.87-.6Q12.61.17,13.68,0h.72V20.2a9.5,9.5,0,0,1,1.9.69Z"/><path class="cls-1" d="M18.56,14.42a9.93,9.93,0,0,1,.47-3.2A6.49,6.49,0,0,1,20.4,8.86,5.86,5.86,0,0,1,22.54,7.4a7.37,7.37,0,0,1,2.77-.5,7.89,7.89,0,0,1,3.07.55A5.43,5.43,0,0,1,30.5,9a6.39,6.39,0,0,1,1.21,2.37,11.35,11.35,0,0,1,.39,3.07A7.83,7.83,0,0,1,30.26,20a6.46,6.46,0,0,1-4.94,2,7.69,7.69,0,0,1-3-.53,5.45,5.45,0,0,1-2.1-1.52A6.57,6.57,0,0,1,19,17.51,10.75,10.75,0,0,1,18.56,14.42Zm2.76,0a11.71,11.71,0,0,0,.24,2.44,6.11,6.11,0,0,0,.78,2,3.87,3.87,0,0,0,1.39,1.34,4.13,4.13,0,0,0,2.07.49,3,3,0,0,0,2.54-1.52,8.88,8.88,0,0,0,1-4.74A11.7,11.7,0,0,0,29.09,12a6.36,6.36,0,0,0-.76-2A3.93,3.93,0,0,0,27,8.65a3.64,3.64,0,0,0-1.92-.49,3.16,3.16,0,0,0-2.73,1.52A8.58,8.58,0,0,0,21.32,14.42Z"/><path class="cls-1" d="M49.85,21.61H43.67v-.72a10.47,10.47,0,0,1,1.7-.69V13.39a7.81,7.81,0,0,0-.63-3.45,2.34,2.34,0,0,0-2.3-1.26,3.43,3.43,0,0,0-1.34.26,3.63,3.63,0,0,0-1.09.7,4.88,4.88,0,0,0-.82,1,5.55,5.55,0,0,0-.55,1.16V20.2a5.1,5.1,0,0,1,1.72.69v.72H34.16v-.72a9.57,9.57,0,0,1,1.9-.69V8.91l-1.9-.23V7.93a13.13,13.13,0,0,1,1.72-.57q1-.26,2-.46h.72v3.22h0a6.38,6.38,0,0,1,1.74-2.27,4.14,4.14,0,0,1,2.74-.95,7.12,7.12,0,0,1,2.05.27,3.18,3.18,0,0,1,1.51,1A4.61,4.61,0,0,1,47.64,10,11.49,11.49,0,0,1,48,12.93V20.2a5,5,0,0,1,1.9.69Z"/><path class="cls-1" d="M62.12,17.84q0,.63,0,1.09t.06,1l2,.29v.6a10.64,10.64,0,0,1-1.59.66,12.59,12.59,0,0,1-1.68.43H60.2a4.41,4.41,0,0,1-.34-1.45q-.06-.79-.09-1.74h-.14a4,4,0,0,1-.45,1.16,3.92,3.92,0,0,1-.86,1,4.29,4.29,0,0,1-2.89,1,4,4,0,0,1-2.86-1.06,3.69,3.69,0,0,1-1.11-2.79A4,4,0,0,1,52,15.93a3.59,3.59,0,0,1,1.57-1.34,8.93,8.93,0,0,1,2.56-.7q1.52-.22,3.53-.33a16.56,16.56,0,0,0,.07-2.23,5.36,5.36,0,0,0-.32-1.7,2.37,2.37,0,0,0-.8-1.09,2.31,2.31,0,0,0-1.39-.39q-.4,0-.9,0a3.34,3.34,0,0,0-1,.24L54,11.9h-.75q-.29-.86-.5-1.78a11,11,0,0,1-.27-1.81,9.71,9.71,0,0,1,2.43-1,11,11,0,0,1,3-.37,5.52,5.52,0,0,1,2.34.42,3.31,3.31,0,0,1,1.34,1.08,3.68,3.68,0,0,1,.6,1.47,9.14,9.14,0,0,1,.14,1.61q0,1.72-.07,3.32T62.12,17.84Zm-5.55,2.33a2.67,2.67,0,0,0,1.26-.29,3.37,3.37,0,0,0,.92-.69,4.21,4.21,0,0,0,.6-.82,3.8,3.8,0,0,0,.32-.7v-3a17.57,17.57,0,0,0-2.73.17,4.6,4.6,0,0,0-1.67.55,2,2,0,0,0-.83.93,3.35,3.35,0,0,0-.23,1.28,2.69,2.69,0,0,0,.63,1.91A2.25,2.25,0,0,0,56.58,20.17Z"/><path class="cls-1" d="M72.67,21.61v-.83A9.57,9.57,0,0,1,75,20.08V3q-.66-.14-1.26-.33t-1.09-.39V1.49H75.6l1.15,0,1.36-.07,1.35-.09q.65,0,1.08,0,4.88,0,7.51,2.62t2.63,7.41A13.23,13.23,0,0,1,90,15.5a9,9,0,0,1-2,3.35,9.13,9.13,0,0,1-3.35,2.21,12.93,12.93,0,0,1-4.78.8q-.43,0-1,0l-1.15-.09-1.22-.09q-.62,0-1.16,0ZM80.14,2.76H78.7a6.06,6.06,0,0,0-1.09.1V20.29a3.65,3.65,0,0,0,.52,0l.8,0h1.38a7,7,0,0,0,3.36-.75,6.49,6.49,0,0,0,2.26-2,8.53,8.53,0,0,0,1.28-2.89,14.44,14.44,0,0,0,.4-3.45,11.69,11.69,0,0,0-.39-2.92A8.42,8.42,0,0,0,86,5.62a6.89,6.89,0,0,0-2.31-2.05A7.08,7.08,0,0,0,80.14,2.76Z"/><path class="cls-1" d="M104.33,16.69q.2,1.21.3,2.43a19.55,19.55,0,0,1,0,2.49H93.41v-.72L101.6,8.5H96.17L94.9,11.9h-.72a16.52,16.52,0,0,1-.27-2.43q0-1.19,0-2.23h10.8V8L96.46,20.34h5.6l1.55-3.65Z"/><path class="cls-1" d="M122.57,21.61h-6.21v-.72a9.49,9.49,0,0,1,1.72-.69V13.48a8.07,8.07,0,0,0-.63-3.52,2.33,2.33,0,0,0-2.3-1.28,3.24,3.24,0,0,0-1.35.27,4.36,4.36,0,0,0-1.93,1.7,4.67,4.67,0,0,0-.52,1.16V20.2q.46.12.88.26a3.23,3.23,0,0,1,.82.43v.72h-6.18v-.72a8,8,0,0,1,1.9-.69V2l-2.18-.23V1a12.67,12.67,0,0,1,1.94-.6q1.11-.26,2.11-.43h.72V10.14h0a6.31,6.31,0,0,1,1.74-2.3,4.14,4.14,0,0,1,2.74-.95,7.13,7.13,0,0,1,2.05.27,3.19,3.19,0,0,1,1.51,1,4.61,4.61,0,0,1,.92,1.85,11.49,11.49,0,0,1,.32,2.95V20.2l1,.26a3.35,3.35,0,0,1,.92.43Z"/><path class="cls-1" d="M134.84,17.84q0,.63,0,1.09t.06,1l2,.29v.6a10.64,10.64,0,0,1-1.59.66,12.59,12.59,0,0,1-1.68.43h-.72a4.41,4.41,0,0,1-.34-1.45q-.06-.79-.09-1.74h-.14a4,4,0,0,1-.45,1.16,3.92,3.92,0,0,1-.86,1,4.29,4.29,0,0,1-2.89,1,4,4,0,0,1-2.86-1.06,3.69,3.69,0,0,1-1.11-2.79,4,4,0,0,1,.53-2.17,3.59,3.59,0,0,1,1.57-1.34,8.93,8.93,0,0,1,2.56-.7q1.52-.22,3.53-.33a16.56,16.56,0,0,0,.07-2.23,5.36,5.36,0,0,0-.32-1.7,2.37,2.37,0,0,0-.8-1.09,2.31,2.31,0,0,0-1.39-.39q-.4,0-.9,0a3.34,3.34,0,0,0-1,.24l-1.35,3.45h-.75q-.29-.86-.5-1.78a11,11,0,0,1-.27-1.81,9.71,9.71,0,0,1,2.43-1,11,11,0,0,1,3-.37,5.52,5.52,0,0,1,2.34.42,3.31,3.31,0,0,1,1.34,1.08,3.68,3.68,0,0,1,.6,1.47,9.14,9.14,0,0,1,.14,1.61q0,1.72-.07,3.32T134.84,17.84Zm-5.55,2.33a2.67,2.67,0,0,0,1.26-.29,3.37,3.37,0,0,0,.92-.69,4.21,4.21,0,0,0,.6-.82,3.8,3.8,0,0,0,.32-.7v-3a17.57,17.57,0,0,0-2.73.17,4.6,4.6,0,0,0-1.67.55,2,2,0,0,0-.83.93,3.35,3.35,0,0,0-.23,1.28,2.69,2.69,0,0,0,.63,1.91A2.25,2.25,0,0,0,129.3,20.17Z"/><path class="cls-1" d="M153.32,21.61h-6.15v-.72a6.71,6.71,0,0,1,.7-.36,6,6,0,0,1,1-.33V13.56a19.22,19.22,0,0,0-.1-2.07,5.23,5.23,0,0,0-.37-1.54A2.1,2.1,0,0,0,147.6,9a2.48,2.48,0,0,0-1.35-.33,2.63,2.63,0,0,0-1.16.26,3.36,3.36,0,0,0-.95.69,4.61,4.61,0,0,0-.72,1,5.5,5.5,0,0,0-.47,1.15V20.2l.88.3a5.83,5.83,0,0,1,.82.39v.72h-6.18v-.72a7.71,7.71,0,0,1,.89-.37q.49-.17,1-.32V8.91l-1.9-.23V7.93a12.21,12.21,0,0,1,1.88-.65q1-.24,1.88-.39h.72v3.25h0a5.17,5.17,0,0,1,1.57-2.3,4.07,4.07,0,0,1,2.74-.95,6,6,0,0,1,1.32.14,3.29,3.29,0,0,1,1.18.53,3.11,3.11,0,0,1,.92,1.08,5.62,5.62,0,0,1,.55,1.78,5.53,5.53,0,0,1,1.67-2.56,4.28,4.28,0,0,1,2.87-1,5.69,5.69,0,0,1,1.85.27,2.71,2.71,0,0,1,1.31,1,4.68,4.68,0,0,1,.76,1.87,15.14,15.14,0,0,1,.24,3V20.2a6,6,0,0,1,1.9.69v.72h-6.18v-.72a8.35,8.35,0,0,1,1.7-.69V13a15,15,0,0,0-.1-1.84,4.12,4.12,0,0,0-.39-1.37,2.06,2.06,0,0,0-.8-.86,2.73,2.73,0,0,0-1.38-.3,2.59,2.59,0,0,0-2.14.95A6,6,0,0,0,151.45,12V20.2a12.66,12.66,0,0,1,1.87.69Z"/><path class="cls-1" d="M169.47,6.9a9.71,9.71,0,0,1,2.61.3,4.53,4.53,0,0,1,1.78.93,12.15,12.15,0,0,1,3.53-1.67,2.06,2.06,0,0,1,.33.78,4.06,4.06,0,0,1,.1.86l-.37.69h-3a4.7,4.7,0,0,1,.72,2.73,4.29,4.29,0,0,1-1.45,3.36,6.19,6.19,0,0,1-4.24,1.29q-.55,0-.89,0l-.78-.09-.33.58a1.28,1.28,0,0,0-.19.66,1,1,0,0,0,.66.91,8.51,8.51,0,0,0,1.65.59l2.15.53a10.89,10.89,0,0,1,2.17.75,5.14,5.14,0,0,1,1.68,1.24,3,3,0,0,1,.7,2,3.36,3.36,0,0,1-.47,1.87,4.23,4.23,0,0,1-1.39,1.39,7.13,7.13,0,0,1-2.14.86,11.69,11.69,0,0,1-2.74.3,8.58,8.58,0,0,1-4.73-1.06A3.14,3.14,0,0,1,163.23,24a3.43,3.43,0,0,1,.24-1.35,2.92,2.92,0,0,1,.7-1,4.54,4.54,0,0,1,1.15-.76,12.89,12.89,0,0,1,1.58-.62,2.87,2.87,0,0,1-1-.79,1.85,1.85,0,0,1-.42-1.22,2,2,0,0,1,.56-1.31,5.49,5.49,0,0,1,1.13-1,4.36,4.36,0,0,1-2.51-1.64,4.53,4.53,0,0,1-.88-2.73,4.47,4.47,0,0,1,.37-1.82,4.21,4.21,0,0,1,1.09-1.48,5,5,0,0,1,1.78-1A8,8,0,0,1,169.47,6.9Zm4.25,17a1.86,1.86,0,0,0-.62-1.47,4.91,4.91,0,0,0-1.54-.89,14.26,14.26,0,0,0-2-.57q-1.06-.23-2-.52a3.13,3.13,0,0,0-1.78,2.9,2.6,2.6,0,0,0,1.09,2.28,5.5,5.5,0,0,0,3.16.76,6.56,6.56,0,0,0,1.77-.2A3.24,3.24,0,0,0,173,25.7a1.82,1.82,0,0,0,.59-.79A2.76,2.76,0,0,0,173.72,23.93Zm-7.38-12.41a5.25,5.25,0,0,0,.16,1.31,2.88,2.88,0,0,0,.52,1.08,2.51,2.51,0,0,0,1,.73,3.63,3.63,0,0,0,1.49.27,2.76,2.76,0,0,0,2.38-1,4,4,0,0,0,.72-2.41,3.9,3.9,0,0,0-.7-2.46,2.86,2.86,0,0,0-2.4-.91A3,3,0,0,0,167,9,3.94,3.94,0,0,0,166.33,11.52Z"/><path class="cls-1" d="M189.26,17.84q0,.63,0,1.09t.06,1l2,.29v.6a10.64,10.64,0,0,1-1.59.66,12.59,12.59,0,0,1-1.68.43h-.72a4.41,4.41,0,0,1-.34-1.45q-.06-.79-.09-1.74h-.14a4,4,0,0,1-.45,1.16,3.92,3.92,0,0,1-.86,1,4.29,4.29,0,0,1-2.89,1,4,4,0,0,1-2.86-1.06,3.69,3.69,0,0,1-1.11-2.79,4,4,0,0,1,.53-2.17,3.59,3.59,0,0,1,1.57-1.34,8.93,8.93,0,0,1,2.56-.7q1.52-.22,3.53-.33a16.56,16.56,0,0,0,.07-2.23,5.36,5.36,0,0,0-.32-1.7,2.37,2.37,0,0,0-.8-1.09,2.31,2.31,0,0,0-1.39-.39q-.4,0-.9,0a3.34,3.34,0,0,0-1,.24L181.1,11.9h-.75q-.29-.86-.5-1.78a11,11,0,0,1-.27-1.81,9.71,9.71,0,0,1,2.43-1,11,11,0,0,1,3-.37,5.52,5.52,0,0,1,2.34.42,3.31,3.31,0,0,1,1.34,1.08,3.68,3.68,0,0,1,.6,1.47,9.14,9.14,0,0,1,.14,1.61q0,1.72-.07,3.32T189.26,17.84Zm-5.55,2.33a2.67,2.67,0,0,0,1.26-.29,3.37,3.37,0,0,0,.92-.69,4.21,4.21,0,0,0,.6-.82,3.8,3.8,0,0,0,.32-.7v-3a17.57,17.57,0,0,0-2.73.17,4.6,4.6,0,0,0-1.67.55,2,2,0,0,0-.83.93,3.35,3.35,0,0,0-.23,1.28A2.69,2.69,0,0,0,182,19.5,2.25,2.25,0,0,0,183.72,20.17Z"/><path class="cls-1" d="M199,9.4a3.36,3.36,0,0,0-.79.7,4.82,4.82,0,0,0-.85,1.57V20.2a7,7,0,0,1,1.15.22,5.36,5.36,0,0,1,1.15.47v.72h-6.78v-.72a5.26,5.26,0,0,1,1-.43l.92-.26V8.91l-1.9-.23V7.93a12,12,0,0,1,1.9-.65q1-.24,1.87-.39h.72v3h.12a5.15,5.15,0,0,1,.73-1.15,6.23,6.23,0,0,1,1.09-1,4.78,4.78,0,0,1,1.35-.7,3.5,3.5,0,0,1,1.51-.16,5.91,5.91,0,0,1,.36.82q.16.45.3.93V9.4Z"/><path class="cls-1" d="M204.2,14.42a9.93,9.93,0,0,1,.47-3.2A6.49,6.49,0,0,1,206,8.86a5.86,5.86,0,0,1,2.14-1.47A7.37,7.37,0,0,1,211,6.9a7.89,7.89,0,0,1,3.07.55A5.43,5.43,0,0,1,216.14,9a6.39,6.39,0,0,1,1.21,2.37,11.35,11.35,0,0,1,.39,3.07A7.83,7.83,0,0,1,215.9,20,6.46,6.46,0,0,1,211,22a7.69,7.69,0,0,1-3-.53,5.45,5.45,0,0,1-2.1-1.52,6.57,6.57,0,0,1-1.25-2.38A10.75,10.75,0,0,1,204.2,14.42Zm2.76,0a11.71,11.71,0,0,0,.24,2.44,6.11,6.11,0,0,0,.78,2,3.87,3.87,0,0,0,1.39,1.34,4.13,4.13,0,0,0,2.07.49A3,3,0,0,0,214,19.17a8.88,8.88,0,0,0,1-4.74,11.7,11.7,0,0,0-.24-2.46,6.36,6.36,0,0,0-.76-2,3.93,3.93,0,0,0-1.32-1.34,3.64,3.64,0,0,0-1.92-.49A3.16,3.16,0,0,0,208,9.68,8.58,8.58,0,0,0,207,14.42Z"/><path class="cls-1" d="M225.75,22l-5.6-13.28A8.42,8.42,0,0,1,218.63,8V7.24h6V8l-.76.39a5.73,5.73,0,0,1-.88.33l3.32,8.65.57,1.78H227l.43-1.81,3.06-8.62a5.11,5.11,0,0,1-.85-.29,4.91,4.91,0,0,1-.73-.4V7.24h4.88V8a3.67,3.67,0,0,1-.7.37,8.34,8.34,0,0,1-.93.32L227,21.61Z"/><path class="cls-1" d="M245.26,17.84q0,.63,0,1.09t.06,1l2,.29v.6a10.64,10.64,0,0,1-1.59.66,12.59,12.59,0,0,1-1.68.43h-.72a4.41,4.41,0,0,1-.34-1.45q-.06-.79-.09-1.74h-.14a4,4,0,0,1-.45,1.16,3.92,3.92,0,0,1-.86,1,4.29,4.29,0,0,1-2.89,1,4,4,0,0,1-2.86-1.06,3.69,3.69,0,0,1-1.11-2.79,4,4,0,0,1,.53-2.17,3.59,3.59,0,0,1,1.57-1.34,8.93,8.93,0,0,1,2.56-.7q1.52-.22,3.53-.33a16.56,16.56,0,0,0,.07-2.23,5.36,5.36,0,0,0-.32-1.7,2.37,2.37,0,0,0-.8-1.09,2.31,2.31,0,0,0-1.39-.39q-.4,0-.9,0a3.34,3.34,0,0,0-1,.24L237.1,11.9h-.75q-.29-.86-.5-1.78a11,11,0,0,1-.27-1.81,9.71,9.71,0,0,1,2.43-1,11,11,0,0,1,3-.37,5.52,5.52,0,0,1,2.34.42,3.31,3.31,0,0,1,1.34,1.08,3.68,3.68,0,0,1,.6,1.47,9.14,9.14,0,0,1,.14,1.61q0,1.72-.07,3.32T245.26,17.84Zm-5.55,2.33a2.67,2.67,0,0,0,1.26-.29,3.37,3.37,0,0,0,.92-.69,4.21,4.21,0,0,0,.6-.82,3.8,3.8,0,0,0,.32-.7v-3a17.57,17.57,0,0,0-2.73.17,4.6,4.6,0,0,0-1.67.55,2,2,0,0,0-.83.93,3.35,3.35,0,0,0-.23,1.28A2.69,2.69,0,0,0,238,19.5,2.25,2.25,0,0,0,239.72,20.17Z"/><rect class="cls-1" x="0.1" y="40.75" width="39.78" height="1.24"/><rect class="cls-1" x="208.25" y="40.75" width="39.78" height="1.24"/></g></g></svg>