<svg xmlns="http://www.w3.org/2000/svg" viewBox="0 0 141.03 36.57"><defs><style>.cls-1{fill:#1c2c58;}.cls-2{fill:#d2a884;}</style></defs><title>dzhamgarova-logo-v2</title><g id="Layer_2" data-name="Layer 2"><g id="Layer_1-2" data-name="Layer 1"><path class="cls-1" d="M51.5,8.7V.13h1V8.7Z"/><path class="cls-1" d="M54.85,8.7V.13h1V7.8h3.78v.9Z"/><path class="cls-1" d="M68.51,4.41a4.72,4.72,0,0,1-1,3.23,3.66,3.66,0,0,1-2.89,1.18,3.7,3.7,0,0,1-2.92-1.16,4.75,4.75,0,0,1-1-3.27,4.69,4.69,0,0,1,1-3.24A3.73,3.73,0,0,1,64.59,0a3.65,3.65,0,0,1,2.88,1.17A4.71,4.71,0,0,1,68.51,4.41Zm-6.83,0A4.07,4.07,0,0,0,62.43,7a3,3,0,0,0,4.3,0,4.12,4.12,0,0,0,.73-2.64,4.09,4.09,0,0,0-.72-2.62A2.59,2.59,0,0,0,64.59.89a2.64,2.64,0,0,0-2.17.9A4,4,0,0,0,61.69,4.41Z"/><path class="cls-1" d="M77.11,8.7H76L71.29,1.51h0q.09,1.27.09,2.32V8.7h-.92V.13h1.13l4.67,7.16h0q0-.16-.05-1t0-1.23V.13h.93Z"/><path class="cls-1" d="M84.85,8.7,83.79,6H80.35L79.3,8.7h-1L81.68.1h.84l3.37,8.6ZM83.48,5.08l-1-2.65q-.19-.5-.4-1.24a11.1,11.1,0,0,1-.37,1.24l-1,2.65Z"/><path class="cls-1" d="M58.34,18.21a4.32,4.32,0,0,1-1.15,3.24,4.56,4.56,0,0,1-3.31,1.12H51.5V14h2.63a4.2,4.2,0,0,1,3.11,1.11A4.18,4.18,0,0,1,58.34,18.21Zm-1.05,0a3.45,3.45,0,0,0-.84-2.53,3.37,3.37,0,0,0-2.5-.85H52.5v6.84h1.21a3.69,3.69,0,0,0,2.68-.88A3.47,3.47,0,0,0,57.29,18.25Z"/><path class="cls-1" d="M65.44,22.58H59.55V21.8l4.55-6.89H59.69V14h5.62v.78l-4.55,6.88h4.68Z"/><path class="cls-1" d="M73.6,22.58h-1v-4H68.1v4h-1V14h1v3.64h4.51V14h1Z"/><path class="cls-1" d="M81.34,22.58l-1.07-2.72H76.84l-1.05,2.72h-1L78.16,14H79l3.37,8.6ZM80,19,79,16.3q-.19-.5-.4-1.24a11.1,11.1,0,0,1-.37,1.24l-1,2.65Z"/><path class="cls-1" d="M87.34,22.58,84.43,15h0q.08.9.08,2.14v5.45h-.92V14H85l2.71,7.07h0L90.54,14H92v8.57H91V17.06q0-.95.08-2.06h0l-2.93,7.58Z"/><path class="cls-1" d="M98.15,18.09h2.91v4.17a9.36,9.36,0,0,1-1.38.33A10.53,10.53,0,0,1,98,22.7a4,4,0,0,1-3-1.16,4.56,4.56,0,0,1-1.08-3.24A4.9,4.9,0,0,1,94.47,16,3.63,3.63,0,0,1,96,14.42a5,5,0,0,1,2.36-.53,6.45,6.45,0,0,1,2.55.5l-.39.88a5.71,5.71,0,0,0-2.23-.49,3.2,3.2,0,0,0-2.44.93A3.62,3.62,0,0,0,95,18.29a3.7,3.7,0,0,0,.85,2.63,3.26,3.26,0,0,0,2.49.9,7.39,7.39,0,0,0,1.74-.21V19H98.15Z"/><path class="cls-1" d="M108.5,22.58l-1.07-2.72H104l-1.05,2.72h-1l3.39-8.6h.84l3.37,8.6ZM107.13,19l-1-2.65q-.19-.5-.4-1.24a11.1,11.1,0,0,1-.37,1.24l-1,2.65Z"/><path class="cls-1" d="M111.71,19v3.56h-1V14h2.35a3.7,3.7,0,0,1,2.33.6,2.19,2.19,0,0,1,.75,1.82,2.28,2.28,0,0,1-1.72,2.3l2.33,3.85h-1.18L113.49,19Zm0-.86h1.37a2.36,2.36,0,0,0,1.55-.42,1.56,1.56,0,0,0,.49-1.26,1.43,1.43,0,0,0-.5-1.22,2.71,2.71,0,0,0-1.61-.37h-1.29Z"/><path class="cls-1" d="M125.56,18.28a4.72,4.72,0,0,1-1,3.23,3.66,3.66,0,0,1-2.89,1.18,3.7,3.7,0,0,1-2.92-1.16,4.75,4.75,0,0,1-1-3.27,4.69,4.69,0,0,1,1-3.24,3.73,3.73,0,0,1,2.93-1.15A3.65,3.65,0,0,1,124.53,15,4.71,4.71,0,0,1,125.56,18.28Zm-6.83,0a4.07,4.07,0,0,0,.74,2.64,3,3,0,0,0,4.3,0,4.12,4.12,0,0,0,.73-2.64,4.09,4.09,0,0,0-.72-2.62,2.59,2.59,0,0,0-2.14-.89,2.64,2.64,0,0,0-2.17.9A4,4,0,0,0,118.74,18.28Z"/><path class="cls-1" d="M132.37,14h1.07l-3.09,8.57h-1L126.3,14h1.05l2,5.54a15.55,15.55,0,0,1,.54,1.86,15.5,15.5,0,0,1,.55-1.89Z"/><path class="cls-1" d="M140,22.58l-1.07-2.72H135.5l-1.05,2.72h-1l3.39-8.6h.84l3.37,8.6ZM138.63,19l-1-2.65q-.19-.5-.4-1.24a11.1,11.1,0,0,1-.37,1.24l-1,2.65Z"/><path class="cls-1" d="M51,34.23a2.3,2.3,0,0,1,.41-1.35,4.41,4.41,0,0,1,1.46-1.18,7,7,0,0,1-.68-.84,2.88,2.88,0,0,1-.28-.6,2,2,0,0,1-.11-.64,1.71,1.71,0,0,1,.57-1.37,2.38,2.38,0,0,1,1.6-.49,2.16,2.16,0,0,1,1.49.49A1.74,1.74,0,0,1,56,29.61a1.89,1.89,0,0,1-.4,1.16,4.52,4.52,0,0,1-1.32,1.08l2.38,2.29a2.83,2.83,0,0,0,.52-.85,7.32,7.32,0,0,0,.33-1.07h1a5.6,5.6,0,0,1-1.2,2.54l1.75,1.71H57.72l-1.08-1a4.16,4.16,0,0,1-3,1.16,2.83,2.83,0,0,1-2-.62A2.19,2.19,0,0,1,51,34.23Zm2.67,1.46A3.23,3.23,0,0,0,56,34.8l-2.56-2.48a5.67,5.67,0,0,0-.92.66,1.74,1.74,0,0,0-.4.56,1.7,1.7,0,0,0-.13.68,1.38,1.38,0,0,0,.45,1.09A1.76,1.76,0,0,0,53.66,35.7Zm-.91-6.11a1.52,1.52,0,0,0,.21.77,4.67,4.67,0,0,0,.72.88,3.82,3.82,0,0,0,1.05-.81,1.34,1.34,0,0,0,.3-.86,1,1,0,0,0-.3-.74,1.13,1.13,0,0,0-.81-.28,1.25,1.25,0,0,0-.85.28A1,1,0,0,0,52.75,29.59Z"/><path class="cls-1" d="M68.76,36.46,67.7,33.73H64.26l-1.05,2.72h-1l3.39-8.6h.84l3.37,8.6Zm-1.38-3.62-1-2.65q-.19-.5-.4-1.24a11.1,11.1,0,0,1-.37,1.24l-1,2.65Z"/><path class="cls-1" d="M75.81,34.18A2.1,2.1,0,0,1,75,35.94a3.56,3.56,0,0,1-2.23.63,5.58,5.58,0,0,1-2.34-.39v-1a6.17,6.17,0,0,0,1.15.35,6,6,0,0,0,1.23.13,2.48,2.48,0,0,0,1.5-.38,1.24,1.24,0,0,0,.5-1.05,1.35,1.35,0,0,0-.18-.73A1.66,1.66,0,0,0,74,33a8.36,8.36,0,0,0-1.27-.54,4.07,4.07,0,0,1-1.71-1,2.24,2.24,0,0,1-.51-1.53,1.9,1.9,0,0,1,.74-1.58,3.09,3.09,0,0,1,2-.59,5.8,5.8,0,0,1,2.35.47l-.31.87a5.31,5.31,0,0,0-2.06-.45A2,2,0,0,0,72,29a1.12,1.12,0,0,0-.45.94,1.45,1.45,0,0,0,.16.73,1.54,1.54,0,0,0,.55.52,6.88,6.88,0,0,0,1.19.52,4.72,4.72,0,0,1,1.85,1A2,2,0,0,1,75.81,34.18Z"/><path class="cls-1" d="M82.39,34.18a2.1,2.1,0,0,1-.82,1.76,3.56,3.56,0,0,1-2.23.63A5.58,5.58,0,0,1,77,36.18v-1a6.17,6.17,0,0,0,1.15.35,6,6,0,0,0,1.23.13,2.48,2.48,0,0,0,1.5-.38,1.24,1.24,0,0,0,.5-1.05,1.35,1.35,0,0,0-.18-.73,1.66,1.66,0,0,0-.6-.52,8.36,8.36,0,0,0-1.27-.54,4.07,4.07,0,0,1-1.71-1,2.24,2.24,0,0,1-.51-1.53,1.9,1.9,0,0,1,.74-1.58,3.09,3.09,0,0,1,2-.59,5.8,5.8,0,0,1,2.35.47l-.31.87a5.31,5.31,0,0,0-2.06-.45,2,2,0,0,0-1.24.34,1.12,1.12,0,0,0-.45.94,1.45,1.45,0,0,0,.16.73,1.54,1.54,0,0,0,.55.52,6.88,6.88,0,0,0,1.19.52,4.72,4.72,0,0,1,1.85,1A2,2,0,0,1,82.39,34.18Z"/><path class="cls-1" d="M91.58,32.16a4.72,4.72,0,0,1-1,3.23,3.66,3.66,0,0,1-2.89,1.18,3.7,3.7,0,0,1-2.92-1.16,4.75,4.75,0,0,1-1-3.27,4.69,4.69,0,0,1,1-3.24,3.73,3.73,0,0,1,2.93-1.15,3.65,3.65,0,0,1,2.88,1.17A4.71,4.71,0,0,1,91.58,32.16Zm-6.83,0a4.07,4.07,0,0,0,.74,2.64,3,3,0,0,0,4.3,0,4.12,4.12,0,0,0,.73-2.64,4.09,4.09,0,0,0-.72-2.62,2.59,2.59,0,0,0-2.14-.89,2.64,2.64,0,0,0-2.17.9A4,4,0,0,0,84.75,32.16Z"/><path class="cls-1" d="M97.16,28.66a2.8,2.8,0,0,0-2.23.94,3.79,3.79,0,0,0-.82,2.58,3.87,3.87,0,0,0,.79,2.6,2.8,2.8,0,0,0,2.25.92,7.67,7.67,0,0,0,2-.32v.87a6.3,6.3,0,0,1-2.2.33,3.72,3.72,0,0,1-2.92-1.15,4.73,4.73,0,0,1-1-3.26,5.15,5.15,0,0,1,.5-2.32A3.55,3.55,0,0,1,95,28.3a4.33,4.33,0,0,1,2.2-.54,5.31,5.31,0,0,1,2.36.49l-.42.86A4.54,4.54,0,0,0,97.16,28.66Z"/><path class="cls-1" d="M101.06,36.46V27.89h1v8.57Z"/><path class="cls-1" d="M109.79,36.46l-1.07-2.72h-3.43l-1.05,2.72h-1l3.39-8.6h.84l3.37,8.6Zm-1.38-3.62-1-2.65q-.19-.5-.4-1.24a11.1,11.1,0,0,1-.37,1.24l-1,2.65Z"/><path class="cls-1" d="M114.64,36.46h-1V28.77h-2.71v-.88h6.42v.88h-2.71Z"/><path class="cls-1" d="M123.41,36.46h-4.78V27.89h4.78v.88h-3.78v2.76h3.55v.88h-3.55v3.15h3.78Z"/><path class="cls-1" d="M130.15,34.18a2.1,2.1,0,0,1-.82,1.76,3.56,3.56,0,0,1-2.23.63,5.58,5.58,0,0,1-2.34-.39v-1a6.17,6.17,0,0,0,1.15.35,6,6,0,0,0,1.23.13,2.48,2.48,0,0,0,1.5-.38,1.24,1.24,0,0,0,.5-1.05,1.35,1.35,0,0,0-.18-.73,1.66,1.66,0,0,0-.6-.52,8.36,8.36,0,0,0-1.27-.54,4.07,4.07,0,0,1-1.71-1,2.24,2.24,0,0,1-.51-1.53,1.9,1.9,0,0,1,.74-1.58,3.09,3.09,0,0,1,2-.59,5.8,5.8,0,0,1,2.35.47l-.31.87a5.31,5.31,0,0,0-2.06-.45,2,2,0,0,0-1.24.34,1.12,1.12,0,0,0-.45.94,1.45,1.45,0,0,0,.16.73,1.54,1.54,0,0,0,.55.52,6.88,6.88,0,0,0,1.19.52,4.72,4.72,0,0,1,1.85,1A2,2,0,0,1,130.15,34.18Z"/><rect class="cls-1" x="42.83" y="0.05" width="1" height="36.4"/><path class="cls-2" d="M0,36.17V.34H4.17V36.17Z"/><path class="cls-1" d="M35.36,17.91q0,8.87-4.82,13.57T16.69,36.17H6.76V.34h11q8.36,0,13,4.63T35.36,17.91ZM31,18.06q0-7-3.52-10.56T17,3.94H10.93V32.57H16q7.45,0,11.2-3.66T31,18.06Z"/></g></g></svg>