<svg xmlns="http://www.w3.org/2000/svg" viewBox="0 0 406.42 61"><defs><style>.cls-1{fill:#1c2c58;}</style></defs><title>dzhamgarova-logo-ru</title><g id="Layer_2" data-name="Layer 2"><g id="Layer_1-2" data-name="Layer 1"><path class="cls-1" d="M0,37.48H2a.87.87,0,0,0,1-.69q3.75-10,7.54-20c.19-.5.41-1,1-1.06a1.35,1.35,0,0,1,1.46,1l3.24,8.59q2.2,5.83,4.39,11.66c.14.38.31.53.72.51H23.5a10.37,10.37,0,0,1-1.8,3.38,12,12,0,0,1-10.89,4.91c-5-.42-8.48-3.11-10.55-7.65C.18,38,.09,37.78,0,37.6ZM11.77,20.16,5.24,37.46H18.3Z"/><path class="cls-1" d="M16.51,61V58.45a2.2,2.2,0,0,1,2.06-2c1.35-.06,2.71,0,4.06,0h.86c.08-.46.13-.89.24-1.31a6.92,6.92,0,0,1,4-4.86.65.65,0,0,0,.46-.7q0-13.29,0-26.59a1.18,1.18,0,0,0-.39-.78,4.58,4.58,0,0,1-1.64-3.4H35A4.07,4.07,0,0,1,33.53,22a1.5,1.5,0,0,0-.58,1.32v26a.85.85,0,0,0,.57.93A6.93,6.93,0,0,1,37.63,56v.37h5a2.21,2.21,0,0,1,2,2v2.55Z"/><path class="cls-1" d="M61.12,37.5a12.35,12.35,0,0,1-23.37,0h1.91a.83.83,0,0,0,1-.63v0q3.75-10,7.53-20c.19-.5.4-1,1-1.08a1.35,1.35,0,0,1,1.49,1l2.76,7.31L58.27,37c.15.39.33.56.76.53C59.72,37.47,60.41,37.5,61.12,37.5ZM49.43,20.16,42.89,37.48H56Z"/><path class="cls-1" d="M27.4,8.67l1.72-1.14c-1.47-1.34-1.67-2.37-.71-4.15.49-.9,1.08-1.76,1.59-2.63.15-.23.33-.45.55-.75.36.51.71,1,1,1.44.43.67.86,1.34,1.23,2,.89,1.71.68,2.74-.76,4L33.76,8.6A7.72,7.72,0,0,1,39.5,6.93a13.52,13.52,0,0,1,4.62,1.33l3.11,1.51A.68.68,0,0,0,48,9.71a2.35,2.35,0,0,1,3.29.5l.1.15a2.37,2.37,0,1,1-4.15,2.26.88.88,0,0,0-.32-.39c-1.75-.82-3.48-1.68-5.26-2.4a6.9,6.9,0,0,0-4.1-.44,5.19,5.19,0,0,0-2.5,1.32,1,1,0,0,0-.26.66A4.29,4.29,0,0,1,31,15.84a4.21,4.21,0,0,1-4.68-3.68h0a1.14,1.14,0,0,1,0-.35c.22-1-.51-1.36-1.17-1.76a6.15,6.15,0,0,0-5.69-.2c-1.79.69-3.52,1.58-5.26,2.4a.88.88,0,0,0-.32.39,2.36,2.36,0,1,1-.92-3l.16.11a.69.69,0,0,0,.81.07c1.51-.71,3-1.49,4.55-2.08A13.19,13.19,0,0,1,21.87,7,7.4,7.4,0,0,1,27.4,8.67Z"/><path class="cls-1" d="M106.48,29.49H99.21v-.83a8.73,8.73,0,0,1,2.36-.69v-17l-1.18-.32a11.94,11.94,0,0,1-1.18-.4V9.38h7.27v.83a7.36,7.36,0,0,1-1,.4,11.33,11.33,0,0,1-1.18.32V23.4L104,25.55l1.38-2.27,8.42-11.69v-.68q-.66-.14-1.25-.33t-1.08-.38V9.38h7.3v.83a8.46,8.46,0,0,1-1.12.4q-.6.17-1.24.32V28a9.55,9.55,0,0,1,2.36.69v.83h-7.3v-.83q.46-.2,1-.39a8.14,8.14,0,0,1,1.18-.3V15.53l.29-2.16-1.26,2.16-8.53,11.81V28a11.38,11.38,0,0,1,1.25.29,7.51,7.51,0,0,1,1.08.4Z"/><path class="cls-1" d="M125.41,11.07a10.22,10.22,0,0,1-2.93-.86V9.38H137.6v.83a7.55,7.55,0,0,1-2.36.72V28a9.55,9.55,0,0,1,2.36.69v.83h-7.3v-.83a8.35,8.35,0,0,1,1.06-.39l1.12-.3V10.87h-5.37q-.11,4.51-.42,7.48a39,39,0,0,1-.76,4.91,14,14,0,0,1-1,3.09,13,13,0,0,1-1.28,2,3.4,3.4,0,0,1-1.41,1.09,4.2,4.2,0,0,1-1.61.34,3.3,3.3,0,0,1-.42-.65,9.45,9.45,0,0,1-.4-.89,7.17,7.17,0,0,1-.3-.95,5.38,5.38,0,0,1-.14-.85l.43-.72,3.3.6a10.69,10.69,0,0,0,.85-1.9,19.77,19.77,0,0,0,.75-3q.33-1.82.55-4.38T125.41,11.07Z"/><path class="cls-1" d="M140,19.43a13.42,13.42,0,0,1,.62-4.15,9.8,9.8,0,0,1,1.78-3.3,8,8,0,0,1,2.86-2.17,9.94,9.94,0,0,1,7.7,0A8,8,0,0,1,155.77,12a9.81,9.81,0,0,1,1.78,3.3,13.43,13.43,0,0,1,.62,4.15,13.43,13.43,0,0,1-.62,4.15,9.79,9.79,0,0,1-1.78,3.3,8,8,0,0,1-2.86,2.17,9.94,9.94,0,0,1-7.7,0,8,8,0,0,1-2.86-2.17,9.78,9.78,0,0,1-1.78-3.3A13.42,13.42,0,0,1,140,19.43Zm3.07,0a14.85,14.85,0,0,0,.39,3.46,9.1,9.1,0,0,0,1.16,2.83,5.89,5.89,0,0,0,2,1.91,5.33,5.33,0,0,0,2.79.7,4.61,4.61,0,0,0,2.56-.7,5.56,5.56,0,0,0,1.8-1.91,9.79,9.79,0,0,0,1.06-2.83,16,16,0,0,0,.36-3.46,15.44,15.44,0,0,0-.37-3.46,8.88,8.88,0,0,0-1.15-2.83,5.91,5.91,0,0,0-2-1.91,5.34,5.34,0,0,0-2.79-.7,4.91,4.91,0,0,0-2.69.7,5.39,5.39,0,0,0-1.8,1.91,9.22,9.22,0,0,0-1,2.83A18.09,18.09,0,0,0,143,19.43Z"/><path class="cls-1" d="M167.8,29.49h-7.27v-.83a12.81,12.81,0,0,1,2.36-.69v-17a7.53,7.53,0,0,1-2.36-.72V9.38h7.27v.83a6.2,6.2,0,0,1-1,.43,10.76,10.76,0,0,1-1.12.29v7.5h9v-7.5q-.6-.14-1.14-.32a8.55,8.55,0,0,1-1-.4V9.38h7.27v.83a4.72,4.72,0,0,1-1.13.45q-.62.16-1.22.27V28a12.17,12.17,0,0,1,1.26.29,7.25,7.25,0,0,1,1.09.4v.83h-7.27v-.83a10.53,10.53,0,0,1,2.16-.69v-8h-9v8a10.64,10.64,0,0,1,1.12.29,8.37,8.37,0,0,1,1,.4Z"/><path class="cls-1" d="M187,29.49h-6.38v-.83a11,11,0,0,1,2.07-.69L189.95,9h.83L198.05,28q.57.11,1.14.26a4.08,4.08,0,0,1,1,.43v.83h-7.41v-.83a12.2,12.2,0,0,1,1.18-.4q.6-.17,1.18-.29l-1.94-5.26H186.4L184.52,28a10.44,10.44,0,0,1,2.47.69Zm0-8.28h5.77l-2.26-6.09-.54-2.47h-.06l-.71,2.53Z"/><path class="cls-1" d="M226.44,28q0,.57-.06,1.34t-.15,1.57q-.09.8-.19,1.58t-.19,1.35h-.76l-1.23-4.34H209.8l-1.23,4.34h-.74a10.49,10.49,0,0,1-.25-1.32q-.1-.78-.18-1.59t-.13-1.58q-.06-.76-.06-1.34h2.38A16,16,0,0,0,211,24.91a32.89,32.89,0,0,0,1.13-4.14q.47-2.26.76-4.76a43.28,43.28,0,0,0,.29-4.94q-.75-.14-1.48-.34a10.37,10.37,0,0,1-1.45-.52V9.38h15.26v.83q-.49.2-1.06.39a11.54,11.54,0,0,1-1.29.33V28Zm-6,0V10.87h-5.54q-.17,3.53-.56,6.31t-.89,4.88a33.64,33.64,0,0,1-1,3.58q-.53,1.46-1,2.36Z"/><path class="cls-1" d="M239.08,10.93,238,10.58a7,7,0,0,1-.92-.37V9.38h6.67v.83a7.84,7.84,0,0,1-.82.35l-1,.37v8l2-.4,4.83-7.56q-.58-.17-1.08-.36l-1-.36V9.38h6.32v.83a9.93,9.93,0,0,1-1.06.4l-1.09.32-5.23,7.64q.75.95,1.58,2.13l1.74,2.44q.91,1.26,1.9,2.53t2.05,2.41l1.35.69v.72h-3.59l-1-.72a32.89,32.89,0,0,1-3.09-4.27q-1.39-2.28-2.95-4.64h-1.67V28l1,.3a5.88,5.88,0,0,1,.91.39v.83H237v-.83a7.3,7.3,0,0,1,2.07-.69V19.61l-1.72.43q-1.55,2.36-2.87,4.55a31,31,0,0,1-3,4.18l-1,.72H226.9v-.72l1.35-.69q1.06-1.15,2.07-2.39t1.92-2.44q.92-1.21,1.72-2.34l1.46-2.08-5.4-7.9a17.49,17.49,0,0,1-2-.72V9.38h6.35v.83q-.4.2-.89.39a9.31,9.31,0,0,1-1.06.33l4.86,7.73h1.84Z"/><path class="cls-1" d="M260.49,29.49h-6.38v-.83a11,11,0,0,1,2.07-.69L263.45,9h.83L271.55,28q.57.11,1.13.26a4.07,4.07,0,0,1,1,.43v.83h-7.41v-.83a12.2,12.2,0,0,1,1.18-.4q.6-.17,1.18-.29l-1.94-5.26H259.9L258,28a10.43,10.43,0,0,1,2.47.69Zm0-8.28h5.77L264,15.12l-.54-2.47h-.06l-.71,2.53Z"/><path class="cls-1" d="M297.73,29.49h-7.07v-.83a11,11,0,0,1,1.15-.39L293,28V15l.11-3.36h-.23l-.95,3.07L286,29.49h-.75l-5.6-14.74-1-3.36h-.26l0,3.65V28q.55.11,1.09.29t1.09.4v.83h-6v-.83q.54-.23,1.13-.42a10.55,10.55,0,0,1,1.19-.3v-17a10.35,10.35,0,0,1-1.19-.3q-.59-.19-1.16-.42V9.38h5.89l5,13.13,1,3h0l1-3,5.17-13.07h5.14v.83q-.52.23-1.06.42a8.8,8.8,0,0,1-1.12.3V28q.6.11,1.13.27a7.26,7.26,0,0,1,1,.39Z"/><path class="cls-1" d="M304.59,28a17.18,17.18,0,0,1,2.76.69v.83h-7.87v-.83a12.8,12.8,0,0,1,2.36-.69v-17a11.87,11.87,0,0,1-1.18-.3q-.6-.19-1.18-.42V9.38h13.45q0,.57,0,1.32t-.06,1.55q0,.8-.09,1.57c0,.51-.09,1-.14,1.36h-.75l-1.49-4.31h-5.78Z"/><path class="cls-1" d="M317.5,29.49h-6.38v-.83a11,11,0,0,1,2.07-.69L320.45,9h.83L328.56,28q.58.11,1.14.26a4.08,4.08,0,0,1,1,.43v.83h-7.41v-.83a12.2,12.2,0,0,1,1.18-.4q.6-.17,1.18-.29l-1.94-5.26h-6.83L315,28a10.45,10.45,0,0,1,2.47.69Zm0-8.28h5.77L321,15.12l-.54-2.47h-.06l-.71,2.53Z"/><path class="cls-1" d="M336.69,28a9.78,9.78,0,0,1,1.47.27q.69.19,1.29.42v.83h-7.87v-.83a5.5,5.5,0,0,1,1.18-.43l1.18-.26v-17a8.93,8.93,0,0,1-1.24-.3q-.58-.19-1.12-.42V9.38h2.59q1.15,0,2.5-.12t2.59-.11a12.62,12.62,0,0,1,2.76.3,6.85,6.85,0,0,1,2.4,1,5.38,5.38,0,0,1,1.7,1.91,6.18,6.18,0,0,1,.65,3,6,6,0,0,1-.66,2.9,5.79,5.79,0,0,1-1.77,2,7.62,7.62,0,0,1-2.51,1.13,11.69,11.69,0,0,1-2.9.36h-1.09l-.66,0-.46-.06Zm2-17.33q-.69,0-1.12,0a5.86,5.86,0,0,0-.83.11v9.31a1.35,1.35,0,0,0,.42.07l.57,0,.59,0h.46a6.43,6.43,0,0,0,1.9-.27,4.14,4.14,0,0,0,1.57-.88,4.35,4.35,0,0,0,1.08-1.52,5.49,5.49,0,0,0,.4-2.21,4.47,4.47,0,0,0-1.34-3.53A5.39,5.39,0,0,0,338.64,10.64Z"/><path class="cls-1" d="M349.39,19.43a13.42,13.42,0,0,1,.62-4.15,9.81,9.81,0,0,1,1.78-3.3,8,8,0,0,1,2.86-2.17,9.94,9.94,0,0,1,7.7,0A8,8,0,0,1,365.21,12a9.81,9.81,0,0,1,1.78,3.3,13.42,13.42,0,0,1,.62,4.15,13.42,13.42,0,0,1-.62,4.15,9.79,9.79,0,0,1-1.78,3.3,8,8,0,0,1-2.86,2.17,9.94,9.94,0,0,1-7.7,0,8,8,0,0,1-2.86-2.17,9.79,9.79,0,0,1-1.78-3.3A13.42,13.42,0,0,1,349.39,19.43Zm3.07,0a14.85,14.85,0,0,0,.39,3.46A9.1,9.1,0,0,0,354,25.73a5.89,5.89,0,0,0,2,1.91,5.33,5.33,0,0,0,2.79.7,4.61,4.61,0,0,0,2.56-.7,5.56,5.56,0,0,0,1.8-1.91,9.79,9.79,0,0,0,1.06-2.83,16,16,0,0,0,.36-3.46,15.41,15.41,0,0,0-.37-3.46A8.86,8.86,0,0,0,363,13.14a5.91,5.91,0,0,0-2-1.91,5.34,5.34,0,0,0-2.79-.7,4.91,4.91,0,0,0-2.69.7,5.39,5.39,0,0,0-1.8,1.91,9.22,9.22,0,0,0-1,2.83A18.09,18.09,0,0,0,352.46,19.43Z"/><path class="cls-1" d="M370,29.49v-.83a7.56,7.56,0,0,1,2.36-.69v-17a11.87,11.87,0,0,1-1.18-.3q-.6-.19-1.18-.42V9.38h3q.55,0,1,0l1-.06,1.18-.06q.63,0,1.44,0a15.19,15.19,0,0,1,2.34.19,6.73,6.73,0,0,1,2.15.7,4.22,4.22,0,0,1,1.57,1.45,4.41,4.41,0,0,1,.6,2.43,5.05,5.05,0,0,1-.23,1.49,4.67,4.67,0,0,1-.7,1.39A4.84,4.84,0,0,1,382.26,18a5,5,0,0,1-1.7.72v.11a8.06,8.06,0,0,1,1.71.49,5.17,5.17,0,0,1,1.51.93,4.59,4.59,0,0,1,1.08,1.45,4.72,4.72,0,0,1,.42,2.07,5,5,0,0,1-.69,2.67,5.78,5.78,0,0,1-1.8,1.84,7.86,7.86,0,0,1-2.51,1,12.41,12.41,0,0,1-2.84.33q-1,0-2.27-.09t-2.44-.09Zm6.38-11q.49,0,1.16,0t1.11-.1a4.81,4.81,0,0,0,2.17-1.48,3.64,3.64,0,0,0,.85-2.4,3.49,3.49,0,0,0-1.13-2.84,4.57,4.57,0,0,0-3-.95q-.89,0-1.52,0t-1,.09v7.7Zm1.29,9.65a5.83,5.83,0,0,0,1.94-.32,4.7,4.7,0,0,0,1.55-.88,4.05,4.05,0,0,0,1-1.35,4,4,0,0,0,.37-1.71,3.74,3.74,0,0,0-.45-1.91,3.32,3.32,0,0,0-1.21-1.21,5.21,5.21,0,0,0-1.75-.62,12,12,0,0,0-2.05-.17H374.9v7.93a5.57,5.57,0,0,0,1,.17Q376.43,28.17,377.63,28.17Z"/><path class="cls-1" d="M393.18,29.49H386.8v-.83a11,11,0,0,1,2.07-.69L396.14,9H397L404.24,28q.57.11,1.13.26a4.07,4.07,0,0,1,1,.43v.83H399v-.83a12.2,12.2,0,0,1,1.18-.4q.6-.17,1.18-.29l-1.94-5.26h-6.83L390.71,28a10.43,10.43,0,0,1,2.47.69Zm0-8.28h5.77l-2.26-6.09-.54-2.47h-.06l-.71,2.53Z"/><path class="cls-1" d="M164.15,44.18h6.09v.75a8,8,0,0,1-.73.34q-.42.17-1,.34v7.87l-.32,2.67h.14L169.46,54l6.15-9.83h3.88v.75a6,6,0,0,1-1.9.69V57.14q.55.14,1,.3a4,4,0,0,1,.86.39v.72H173.4v-.72a6.75,6.75,0,0,1,1.72-.69V48.92l.29-2.27h-.14l-1.09,2.16-6.09,9.74h-3.94v-.72a9.68,9.68,0,0,1,.95-.39l.95-.3V45.62a4.66,4.66,0,0,1-1.9-.69Z"/><path class="cls-1" d="M195.7,58.55h-7.27v-.83a5.5,5.5,0,0,1,1-.4,9.58,9.58,0,0,1,1.35-.29V40a11.59,11.59,0,0,1-1.18-.3q-.6-.19-1.18-.42v-.83h19v.83a5.31,5.31,0,0,1-1.15.45q-.6.16-1.21.27V57a8.2,8.2,0,0,1,2.36.69v.83h-7.27v-.83a6.56,6.56,0,0,1,2.15-.69V39.93h-8.73V57a10.47,10.47,0,0,1,2.16.69Z"/><path class="cls-1" d="M214.6,58.55h-6.38v-.83a10.93,10.93,0,0,1,2.07-.69l7.27-18.94h.83L225.66,57q.57.11,1.13.26a4,4,0,0,1,1,.43v.83h-7.41v-.83a12.2,12.2,0,0,1,1.18-.4q.6-.17,1.18-.29l-1.94-5.26H214L212.13,57a10.43,10.43,0,0,1,2.47.69Zm0-8.28h5.77l-2.26-6.09-.54-2.47h-.06l-.71,2.53Z"/><path class="cls-1" d="M233.79,57a9.78,9.78,0,0,1,1.47.27q.69.19,1.29.42v.83h-7.87v-.83a5.44,5.44,0,0,1,1.18-.43L231,57V40a8.79,8.79,0,0,1-1.24-.3q-.58-.19-1.12-.42v-.83h2.59q1.15,0,2.5-.12t2.59-.11a12.62,12.62,0,0,1,2.76.3,6.85,6.85,0,0,1,2.4,1,5.38,5.38,0,0,1,1.7,1.91,6.17,6.17,0,0,1,.65,3,6,6,0,0,1-.66,2.9,5.79,5.79,0,0,1-1.77,2,7.61,7.61,0,0,1-2.51,1.13,11.66,11.66,0,0,1-2.9.36h-1.09l-.66,0-.46-.06Zm2-17.33q-.69,0-1.12,0a5.85,5.85,0,0,0-.83.12v9.31a1.35,1.35,0,0,0,.42.07l.57,0,.59,0h.46a6.45,6.45,0,0,0,1.9-.27,4.15,4.15,0,0,0,1.57-.88,4.35,4.35,0,0,0,1.08-1.52,5.5,5.5,0,0,0,.4-2.21,4.47,4.47,0,0,0-1.34-3.53A5.39,5.39,0,0,0,235.75,39.7Z"/><path class="cls-1" d="M257.9,58.55h-8.07v-.83q.63-.23,1.28-.4A13,13,0,0,1,252.5,57V39.93h-4.4L246.58,44h-.72q-.09-.57-.14-1.31t-.1-1.49q0-.76-.07-1.49t0-1.31h16.69c0,.38,0,.81,0,1.29s0,1-.07,1.48L262,42.7q0,.73-.13,1.34h-.76l-1.51-4.11h-4.37V57l1.39.29a7,7,0,0,1,1.25.4Z"/><path class="cls-1" d="M270.86,58.55h-7.27v-.83a12.73,12.73,0,0,1,2.36-.69V40a7.52,7.52,0,0,1-2.36-.72v-.83h7.27v.83a6.19,6.19,0,0,1-1,.43,10.75,10.75,0,0,1-1.12.29v7.5h9V40q-.6-.14-1.14-.32a8.35,8.35,0,0,1-1-.4v-.83h7.27v.83a4.69,4.69,0,0,1-1.13.45q-.62.16-1.22.27V57a12.05,12.05,0,0,1,1.26.29,7.27,7.27,0,0,1,1.09.4v.83h-7.27v-.83a10.46,10.46,0,0,1,2.16-.69V49h-9v8a10.51,10.51,0,0,1,1.12.29,8.35,8.35,0,0,1,1,.4Z"/><path class="cls-1" d="M298.13,38.44q0,1.15-.1,2.31t-.22,2.34h-.75l-1.18-3.16h-6.26v7.61h4.68l1.12-2.13h.72a48.76,48.76,0,0,1,0,5.8h-.72L294.31,49h-4.68v8h6.61l1.41-3.45h.72q.2,1.21.29,2.44a22,22,0,0,1,0,2.5H284.51v-.83a9.49,9.49,0,0,1,2.36-.69V40a11.61,11.61,0,0,1-1.18-.3q-.6-.19-1.18-.42v-.83Z"/><path class="cls-1" d="M306.35,57a9.78,9.78,0,0,1,1.47.27q.69.19,1.29.42v.83h-7.87v-.83a5.44,5.44,0,0,1,1.18-.43l1.18-.26V40a8.79,8.79,0,0,1-1.24-.3q-.58-.19-1.12-.42v-.83h2.59q1.15,0,2.5-.12t2.59-.11a12.62,12.62,0,0,1,2.76.3,6.85,6.85,0,0,1,2.4,1,5.38,5.38,0,0,1,1.7,1.91,6.17,6.17,0,0,1,.65,3,6,6,0,0,1-.66,2.9,5.79,5.79,0,0,1-1.77,2,7.61,7.61,0,0,1-2.51,1.13,11.66,11.66,0,0,1-2.9.36h-1.09l-.66,0-.46-.06Zm2-17.33q-.69,0-1.12,0a5.85,5.85,0,0,0-.83.12v9.31a1.35,1.35,0,0,0,.42.07l.57,0,.59,0h.46a6.45,6.45,0,0,0,1.9-.27,4.15,4.15,0,0,0,1.57-.88,4.35,4.35,0,0,0,1.08-1.52,5.5,5.5,0,0,0,.4-2.21A4.47,4.47,0,0,0,312,40.88,5.39,5.39,0,0,0,308.3,39.7Z"/><path class="cls-1" d="M318.36,58.55v-.83a8.35,8.35,0,0,1,2.36-.69V40l-1.18-.32a11.69,11.69,0,0,1-1.18-.4v-.83H326v.83a11,11,0,0,1-1.18.42,10.64,10.64,0,0,1-1.35.3v6.58l1.26-.13q.75-.07,1.32-.07a13.72,13.72,0,0,1,2.7.26,6.16,6.16,0,0,1,2.27.92,4.76,4.76,0,0,1,1.57,1.81,6.41,6.41,0,0,1,.59,2.93,5.88,5.88,0,0,1-.66,2.89,6,6,0,0,1-1.72,2,7.2,7.2,0,0,1-2.41,1.13,10.6,10.6,0,0,1-2.73.36h-.56l-.93,0-1.09,0h-4.71Zm7.07-10.69h-1.13a3.15,3.15,0,0,0-.82.13v9a1.35,1.35,0,0,0,.42.07l.57,0h1a4.65,4.65,0,0,0,3.3-1.21,4.8,4.8,0,0,0,1.29-3.68A4.31,4.31,0,0,0,328.93,49,4.91,4.91,0,0,0,325.42,47.86Zm15.52,10.69h-7.3v-.83a5.82,5.82,0,0,1,1.12-.43q.54-.14,1.12-.26V40l-1.11-.29a5.67,5.67,0,0,1-1.13-.43v-.83h7.3v.83a9.31,9.31,0,0,1-2.3.72V57a8.81,8.81,0,0,1,1.26.29,8.27,8.27,0,0,1,1,.4Z"/><rect class="cls-1" x="112.07" y="49.89" width="39.78" height="1.24"/><rect class="cls-1" x="354.92" y="49.27" width="39.78" height="1.24"/></g></g></svg>