<svg xmlns="http://www.w3.org/2000/svg" viewBox="0 0 148.44 147.76"><defs><style>.cls-1{fill:#3397d3;}</style></defs><title>external-site</title><g id="Layer_2" data-name="Layer 2"><g id="Layer_1-2" data-name="Layer 1"><path class="cls-1" d="M82.88,17.6v8.85H76.33c-20.65,0-41.31.08-62-.07-4,0-5.56,1.07-5.54,5.35q.21,51,0,101.94c0,3.85,1.12,5.26,5.12,5.25q51.47-.18,102.94,0c4.14,0,5-1.66,5-5.37-.13-20.65-.07-41.31-.07-62,0-2.13,0-4.25,0-6.64h8.61c.1,1.5.28,2.95.28,4.39q0,32,0,64c0,10.62-3.84,14.45-14.37,14.45q-51.47,0-102.94,0C4.25,147.74,0,143.54,0,134.28Q0,82.81,0,31.34c0-9.69,4-13.69,13.6-13.71q32.23-.06,64.46,0Z"/><path class="cls-1" d="M131.94,8.49H88.27V0h60.17V59.6h-8.51V15L62.07,93l-5.92-6.83L132.63,9.89Z"/></g></g></svg>