<svg xmlns="http://www.w3.org/2000/svg" viewBox="0 0 211.18 211.18"><defs><style>.cls-1{fill:#fff;}.cls-2{fill:#1c2c58;}</style></defs><title>logo-circl-inv</title><g id="Layer_2" data-name="Layer 2"><g id="Layer_1-2" data-name="Layer 1"><circle class="cls-1" cx="105.59" cy="105.59" r="105.59"/><path class="cls-2" d="M37.52,117.18c1.46,0,2.93-.07,4.39.06a1.93,1.93,0,0,0,2.28-1.53Q52.53,93.38,61,71.08c.42-1.12.92-2.13,2.25-2.36,1.55-.27,2.55.42,3.25,2.27q3.62,9.56,7.22,19.14c3.27,8.66,6.55,17.31,9.78,26,.31.84.68,1.18,1.6,1.13,1.54-.09,3.1,0,4.79,0a23.1,23.1,0,0,1-4,7.53c-6.17,7.85-14.31,11.78-24.26,10.94-11.1-.94-18.9-6.92-23.5-17.05-.18-.4-.38-.79-.57-1.18ZM63.73,78.58,49.19,117.12H78.28Z"/><path class="cls-2" d="M74.29,169.5c0-2-.08-3.82,0-5.68a4.9,4.9,0,0,1,4.58-4.56c3-.14,6-.08,9-.1h1.92c.18-1,.29-2,.52-2.91a15.41,15.41,0,0,1,9-10.82,1.45,1.45,0,0,0,1-1.56q0-29.61-.06-59.23a2.62,2.62,0,0,0-.88-1.73,10.2,10.2,0,0,1-3.66-7.58h19.63a9.07,9.07,0,0,1-3.27,7.17,3.35,3.35,0,0,0-1.29,2.94q0,29,0,58a1.9,1.9,0,0,0,1.27,2.08c5.41,2.53,8.38,6.89,9.15,12.79l.11.82c1.47,0,2.92,0,4.37,0,2.26,0,4.53,0,6.78.11a4.92,4.92,0,0,1,4.45,4.55c.1,1.85,0,3.72,0,5.67Z"/><path class="cls-2" d="M173.66,117.21c-2.71,9-12.82,19-26.92,18.58-13.12-.39-22.63-10-25.14-18.58,1.44,0,2.86-.09,4.26,0a1.85,1.85,0,0,0,2.19-1.46q8.34-22.33,16.78-44.63c.42-1.11.89-2.15,2.2-2.41,1.58-.32,2.6.4,3.33,2.32q3.08,8.14,6.14,16.28,5.42,14.35,10.82,28.71c.33.87.73,1.25,1.69,1.19C170.55,117.14,172.09,117.21,173.66,117.21Zm-26-38.63-14.55,38.58h29.11Z"/><path class="cls-2" d="M98.55,53l3.83-2.54c-3.27-3-3.72-5.27-1.57-9.24,1.1-2,2.41-3.92,3.65-5.87.33-.52.73-1,1.23-1.67.81,1.14,1.58,2.14,2.26,3.2,1,1.49,1.91,3,2.73,4.56,2,3.82,1.52,6.1-1.7,9L112.85,53a17.2,17.2,0,0,1,12.67-3.92,30.11,30.11,0,0,1,10.29,3c2.33,1.08,4.63,2.22,6.93,3.37a1.52,1.52,0,0,0,1.8-.14,5.22,5.22,0,0,1,7.55,1.44,5.27,5.27,0,1,1-9.24,5,2,2,0,0,0-.71-.88c-3.89-1.82-7.74-3.73-11.72-5.35a15.37,15.37,0,0,0-9.12-1,11.56,11.56,0,0,0-5.57,2.94,2.11,2.11,0,0,0-.58,1.47,9.55,9.55,0,0,1-8.4,10A9.38,9.38,0,0,1,96.32,60.7a2.55,2.55,0,0,1-.11-.79c.5-2.22-1.14-3-2.6-3.92-4.13-2.52-8.47-2.07-12.68-.44-4,1.55-7.83,3.52-11.72,5.34a2,2,0,0,0-.71.87,5.27,5.27,0,1,1-9.25-5,5.23,5.23,0,0,1,7.55-1.46,1.54,1.54,0,0,0,1.8.15c3.36-1.59,6.68-3.31,10.15-4.62a29.37,29.37,0,0,1,7.48-1.68C90,48.77,93.74,49.4,98.55,53Z"/></g></g></svg>