<svg xmlns="http://www.w3.org/2000/svg" viewBox="0 0 30 89"><defs><style>.cls-1{fill:#fff;}</style></defs><title>scroll-down-icon-wh</title><g id="Layer_2" data-name="Layer 2"><g id="Layer_1-2" data-name="Layer 1"><circle class="cls-1" cx="15" cy="12.5" r="3"/><path class="cls-1" d="M15,0A15,15,0,0,0,0,15V40a15,15,0,1,0,30,0V15A15,15,0,0,0,15,0ZM28,40A13,13,0,1,1,2,40V15a13,13,0,1,1,26,0Z"/><path class="cls-1" d="M28.29,59.29,15,72.59,1.71,59.29A1,1,0,0,0,.29,60.71l14,14a1,1,0,0,0,1.41,0l14-14a1,1,0,0,0-1.41-1.41Z"/><path class="cls-1" d="M28.29,73.29,15,86.59,1.71,73.29A1,1,0,0,0,.29,74.71l14,14a1,1,0,0,0,1.41,0l14-14a1,1,0,0,0-1.41-1.41Z"/></g></g></svg>