<svg xmlns="http://www.w3.org/2000/svg" viewBox="0 0 819 296"><defs><style>.cls-1{fill:#1c2c58;}.cls-2{fill:#fff;}</style></defs><title>testimonial</title><g id="Layer_2" data-name="Layer 2"><g id="Layer_1-2" data-name="Layer 1"><rect class="cls-1" width="819" height="296"/><path class="cls-2" d="M192.77,93.58H185v-1.2a7,7,0,0,1,1.09-.55,7.23,7.23,0,0,1,1.15-.36l8.12-20.3h2.33l7.9,20.3a8.16,8.16,0,0,1,1.26.36,5.47,5.47,0,0,1,1.1.55v1.2h-9.85v-1.2q.6-.28,1.29-.54a9.06,9.06,0,0,1,1.32-.38l-1.83-5h-7l-1.86,5a7.53,7.53,0,0,1,2.74.91Zm-.13-9.16h5.57l-2-6-.6-2.71h-.06l-.69,2.77Z"/><path class="cls-2" d="M206.81,78.63a8.22,8.22,0,0,1,2.52-1.1V75a6.17,6.17,0,0,1,1.24-.55,13.43,13.43,0,0,1,2.22-.58h1.07v4H218v2h-4.15V88a5.29,5.29,0,0,0,.49,2.69,1.79,1.79,0,0,0,1.62.75,11.58,11.58,0,0,0,1.27-.08,5.48,5.48,0,0,0,1.31-.3l.22,1a4,4,0,0,1-.83.6,10.07,10.07,0,0,1-1.26.6,10.17,10.17,0,0,1-1.54.47,7.89,7.89,0,0,1-1.75.19,4,4,0,0,1-3.05-1.07,4.91,4.91,0,0,1-1-3.45V79.89h-2.52Z"/><path class="cls-2" d="M219.37,78.63a8.22,8.22,0,0,1,2.52-1.1V75a6.17,6.17,0,0,1,1.24-.55,13.43,13.43,0,0,1,2.22-.58h1.07v4h4.15v2h-4.15V88a5.29,5.29,0,0,0,.49,2.69,1.79,1.79,0,0,0,1.62.75,11.58,11.58,0,0,0,1.27-.08,5.48,5.48,0,0,0,1.31-.3l.22,1a4,4,0,0,1-.83.6,10.07,10.07,0,0,1-1.26.6,10.17,10.17,0,0,1-1.54.47,7.89,7.89,0,0,1-1.75.19,4,4,0,0,1-3.05-1.07,4.91,4.91,0,0,1-1-3.45V79.89h-2.52Z"/><path class="cls-2" d="M232.65,85.72a9.6,9.6,0,0,1,.58-3.45,7,7,0,0,1,4.3-4.23,10.1,10.1,0,0,1,3.49-.57,10.55,10.55,0,0,1,3.79.61,7,7,0,0,1,2.61,1.7,6.6,6.6,0,0,1,1.5,2.61,11.2,11.2,0,0,1,.47,3.32,9.84,9.84,0,0,1-.57,3.45,7,7,0,0,1-1.65,2.6,7.23,7.23,0,0,1-2.64,1.64,11.35,11.35,0,0,1-7.22,0,7.13,7.13,0,0,1-2.61-1.7A6.78,6.78,0,0,1,233.15,89,10.54,10.54,0,0,1,232.65,85.72Zm4.88,0a17.83,17.83,0,0,0,.17,2.6,6,6,0,0,0,.61,2,3.25,3.25,0,0,0,1.2,1.27,3.72,3.72,0,0,0,2,.46,2.46,2.46,0,0,0,1.26-.33,2.72,2.72,0,0,0,1-1.07,6.23,6.23,0,0,0,.61-2,18.2,18.2,0,0,0,.21-3,17.9,17.9,0,0,0-.17-2.61,6.32,6.32,0,0,0-.6-2,3.22,3.22,0,0,0-1.15-1.27,3.36,3.36,0,0,0-1.83-.46,2.89,2.89,0,0,0-1.42.33,2.64,2.64,0,0,0-1,1.07,6.2,6.2,0,0,0-.61,2A18.22,18.22,0,0,0,237.52,85.72Z"/><path class="cls-2" d="M259.49,81.47a4.37,4.37,0,0,0-.88.63,3.82,3.82,0,0,0-.91,1.45v8.08a7.73,7.73,0,0,1,1.26.24,5.88,5.88,0,0,1,1.26.52v1.2h-9.13v-1.2a5.75,5.75,0,0,1,1.07-.47q.5-.16,1-.29V80.05l-2.08-.25V78.6a8.17,8.17,0,0,1,1.24-.41q.74-.19,1.53-.33t1.53-.24l1.24-.16h1.07v4.19h.13a7.31,7.31,0,0,1,.74-1.45,7.61,7.61,0,0,1,1.15-1.38,5.63,5.63,0,0,1,1.45-1,3.45,3.45,0,0,1,1.64-.35,4,4,0,0,1,.6,1.24q.25.8.41,1.53v1.23Z"/><path class="cls-2" d="M283.82,93.58h-8.34v-1.2q.41-.22.8-.39c.26-.12.57-.24.93-.36V84.22a7,7,0,0,0-.57-3.11,2.06,2.06,0,0,0-2-1.12,3,3,0,0,0-2.06.77,4.75,4.75,0,0,0-1.31,2.1v8.77a5.63,5.63,0,0,1,.9.3,6,6,0,0,1,.83.46v1.2h-8.34v-1.2a10.51,10.51,0,0,1,2.08-.76V80.05l-2.08-.25V78.6a6.69,6.69,0,0,1,1.07-.36q.66-.17,1.43-.33t1.57-.27c.54-.07,1-.13,1.46-.17h1.07v3.24h0a6.29,6.29,0,0,1,2-2.28,5.32,5.32,0,0,1,3.21-1,7.48,7.48,0,0,1,2.2.3,3.59,3.59,0,0,1,1.65,1.06,5.1,5.1,0,0,1,1,2,12.1,12.1,0,0,1,.36,3.23v7.54a5.5,5.5,0,0,1,2.08.76Z"/><path class="cls-2" d="M299.49,90.94a4,4,0,0,1-.8,1.09,5.62,5.62,0,0,1-1.35,1,8.38,8.38,0,0,1-1.86.69,9.29,9.29,0,0,1-2.28.27,9.59,9.59,0,0,1-3.46-.58,6.61,6.61,0,0,1-2.52-1.67,7.19,7.19,0,0,1-1.53-2.6,10.4,10.4,0,0,1-.52-3.4,8.31,8.31,0,0,1,2.11-6.14,7.91,7.91,0,0,1,5.85-2.11,9.92,9.92,0,0,1,3,.44,5.23,5.23,0,0,1,2.33,1.45A5.59,5.59,0,0,1,299.76,82a10.49,10.49,0,0,1,0,4h-9.66a6.08,6.08,0,0,0,1.27,4A4.52,4.52,0,0,0,295,91.44a7.94,7.94,0,0,0,2.16-.31,4.93,4.93,0,0,0,1.75-.82ZM293,79.26a2.67,2.67,0,0,0-1.11.22,2,2,0,0,0-.84.8,5.14,5.14,0,0,0-.58,1.57,16.75,16.75,0,0,0-.31,2.5h5a8.86,8.86,0,0,0-.28-3.78A1.88,1.88,0,0,0,293,79.26Z"/><path class="cls-2" d="M302.29,79.8a4.86,4.86,0,0,1-.87-.31,8.71,8.71,0,0,1-.8-.44v-1.2h8.28V79a6.88,6.88,0,0,1-1.79.79l3.18,7.92.54,2h.06l.5-2.05,2.46-7.89a4.42,4.42,0,0,1-1.73-.76v-1.2h6.07V79a6.27,6.27,0,0,1-1.79.76l-5.13,13.78a21,21,0,0,1-1.51,3.29,10.28,10.28,0,0,1-1.51,2,4.57,4.57,0,0,1-1.51,1.05,6.22,6.22,0,0,1-1.51.39,3,3,0,0,1-.57-.71,6.06,6.06,0,0,1-.44-.91,8.6,8.6,0,0,1-.31-1,5.49,5.49,0,0,1-.16-.94l.41-.76H308a5.81,5.81,0,0,0,.49-.94,15.46,15.46,0,0,0,.49-1.51Z"/><path class="cls-2" d="M326.46,78.63a8.22,8.22,0,0,1,2.52-1.1V75a6.17,6.17,0,0,1,1.24-.55,13.43,13.43,0,0,1,2.22-.58h1.07v4h4.15v2h-4.15V88a5.29,5.29,0,0,0,.49,2.69,1.79,1.79,0,0,0,1.62.75,11.58,11.58,0,0,0,1.27-.08,5.48,5.48,0,0,0,1.31-.3l.22,1a4,4,0,0,1-.83.6,10.07,10.07,0,0,1-1.26.6,10.17,10.17,0,0,1-1.54.47A7.89,7.89,0,0,1,333,94,4,4,0,0,1,330,92.9a4.91,4.91,0,0,1-1-3.45V79.89h-2.52Z"/><path class="cls-2" d="M358.53,93.58h-8.34v-1.2q.38-.22.79-.41a6.93,6.93,0,0,1,.94-.35V85.26a11.32,11.32,0,0,0-.52-4,2,2,0,0,0-2-1.28,2.94,2.94,0,0,0-2.14.87,5,5,0,0,0-1.26,2v8.77a7.12,7.12,0,0,1,.9.29,4,4,0,0,1,.83.47v1.2h-8.34v-1.2a8.77,8.77,0,0,1,2.08-.76V72.5l-2.39-.25v-1.2a10,10,0,0,1,1.21-.38q.74-.19,1.56-.33t1.64-.25l1.45-.17H346V81h0a5.71,5.71,0,0,1,.85-1.37,6.53,6.53,0,0,1,1.21-1.13,5.93,5.93,0,0,1,1.46-.77,4.89,4.89,0,0,1,1.67-.28,7.76,7.76,0,0,1,2.25.3,3.48,3.48,0,0,1,1.65,1.06,5.06,5.06,0,0,1,1,2,12.64,12.64,0,0,1,.35,3.23v7.54q.53.13,1.07.28a3.67,3.67,0,0,1,1,.47Z"/><path class="cls-2" d="M373.7,89c0,.46,0,.86,0,1.2s0,.69.08,1.07l2.17.31v1.1a6.36,6.36,0,0,1-1,.38q-.65.19-1.35.36c-.47.12-.94.21-1.4.28L371,93.9h-1.07a4.59,4.59,0,0,1-.38-1.45q-.06-.72-.09-1.76h-.16a4,4,0,0,1-.54,1.21,4.29,4.29,0,0,1-1,1,4.87,4.87,0,0,1-1.37.74,5.19,5.19,0,0,1-1.76.28,5.67,5.67,0,0,1-1.92-.31,4.84,4.84,0,0,1-1.54-.88,4,4,0,0,1-1-1.37,4.19,4.19,0,0,1-.38-1.81,4.55,4.55,0,0,1,.54-2.33,4,4,0,0,1,1.68-1.5,10,10,0,0,1,3-.87,42.13,42.13,0,0,1,4.39-.41,9.63,9.63,0,0,0-.22-4,2,2,0,0,0-2-1.26,5,5,0,0,0-1.79.32l-1.48,3.78H362.4a7.1,7.1,0,0,1-.49-.87q-.24-.49-.44-1a10.54,10.54,0,0,1-.35-1.12,8.56,8.56,0,0,1-.2-1.1A9.53,9.53,0,0,1,364,77.94a16.44,16.44,0,0,1,4-.47,9.08,9.08,0,0,1,2.93.39,4.42,4.42,0,0,1,1.78,1.07,3.71,3.71,0,0,1,.9,1.59,7.31,7.31,0,0,1,.25,2q0,1.89-.08,3.42T373.7,89Zm-7.08,2.42a2.36,2.36,0,0,0,1.13-.25,3.12,3.12,0,0,0,.8-.6,2.52,2.52,0,0,0,.5-.75,7.2,7.2,0,0,0,.27-.72V86a17.48,17.48,0,0,0-2.42.19,3.75,3.75,0,0,0-1.48.52,1.88,1.88,0,0,0-.74.91,3.85,3.85,0,0,0-.21,1.34,2.77,2.77,0,0,0,.57,1.86A2,2,0,0,0,366.62,91.44Z"/><path class="cls-2" d="M376.69,78.63a8.22,8.22,0,0,1,2.52-1.1V75a6.17,6.17,0,0,1,1.24-.55,13.43,13.43,0,0,1,2.22-.58h1.07v4h4.15v2h-4.15V88a5.29,5.29,0,0,0,.49,2.69,1.79,1.79,0,0,0,1.62.75,11.58,11.58,0,0,0,1.27-.08,5.48,5.48,0,0,0,1.31-.3l.22,1a4,4,0,0,1-.83.6,10.07,10.07,0,0,1-1.26.6,10.17,10.17,0,0,1-1.54.47,7.89,7.89,0,0,1-1.75.19,4,4,0,0,1-3.05-1.07,4.91,4.91,0,0,1-1-3.45V79.89h-2.52Z"/><path class="cls-2" d="M403.79,94,398.85,79.8l-.87-.33a4.47,4.47,0,0,1-.8-.43v-1.2h8V79q-.44.25-.88.46a5.45,5.45,0,0,1-.91.33l2.17,8.08.41,2.43H406l.57-2.52L409.89,78l1.54-.19,3.59,10,.66,2.49h.06l.5-2.46,1.89-8a4,4,0,0,1-.8-.25,5.35,5.35,0,0,1-.93-.5v-1.2h6.07V79a6.27,6.27,0,0,1-1.79.76l-4.37,13.78-3,.38-2.71-7.77-.6-2.61H410l-.72,2.61-2.52,7.4Z"/><path class="cls-2" d="M423.14,85.72a9.6,9.6,0,0,1,.58-3.45A7,7,0,0,1,428,78a10.1,10.1,0,0,1,3.49-.57,10.55,10.55,0,0,1,3.79.61,7,7,0,0,1,2.61,1.7,6.6,6.6,0,0,1,1.5,2.61,11.2,11.2,0,0,1,.47,3.32,9.84,9.84,0,0,1-.57,3.45,7,7,0,0,1-1.65,2.6A7.23,7.23,0,0,1,435,93.39a11.35,11.35,0,0,1-7.22,0,7.13,7.13,0,0,1-2.61-1.7A6.78,6.78,0,0,1,423.65,89,10.54,10.54,0,0,1,423.14,85.72Zm4.88,0a17.83,17.83,0,0,0,.17,2.6,6,6,0,0,0,.61,2,3.25,3.25,0,0,0,1.2,1.27,3.72,3.72,0,0,0,2,.46,2.46,2.46,0,0,0,1.26-.33,2.72,2.72,0,0,0,1-1.07,6.23,6.23,0,0,0,.61-2,18.2,18.2,0,0,0,.21-3,17.9,17.9,0,0,0-.17-2.61,6.32,6.32,0,0,0-.6-2,3.22,3.22,0,0,0-1.15-1.27,3.36,3.36,0,0,0-1.83-.46,2.89,2.89,0,0,0-1.42.33,2.64,2.64,0,0,0-1,1.07,6.2,6.2,0,0,0-.61,2A18.22,18.22,0,0,0,428,85.72Z"/><path class="cls-2" d="M450,81.47a4.37,4.37,0,0,0-.88.63,3.82,3.82,0,0,0-.91,1.45v8.08a7.73,7.73,0,0,1,1.26.24,5.88,5.88,0,0,1,1.26.52v1.2h-9.13v-1.2a5.75,5.75,0,0,1,1.07-.47q.5-.16,1-.29V80.05l-2.08-.25V78.6a8.17,8.17,0,0,1,1.24-.41q.74-.19,1.53-.33t1.53-.24l1.24-.16h1.07v4.19h.13a7.31,7.31,0,0,1,.74-1.45,7.61,7.61,0,0,1,1.15-1.38,5.63,5.63,0,0,1,1.45-1,3.45,3.45,0,0,1,1.64-.35,4,4,0,0,1,.6,1.24q.25.8.41,1.53v1.23Z"/><path class="cls-2" d="M464.56,77.85h7.36V79q-.6.25-1.12.44a7.74,7.74,0,0,1-1.15.32q-.47.63-1,1.25t-1.1,1.19l-1.05,1.09-.91.93q.47.63,1.1,1.52L468,87.67q.72,1,1.53,2t1.62,1.94l1.6.76v1.2h-5.32l-.85-.75q-.73-1-1.27-1.83t-1-1.64l-.85-1.53-.82-1.46-1-.31v5.57a4.45,4.45,0,0,1,1,.29,10.05,10.05,0,0,1,.94.47v1.2H455v-1.2a10.35,10.35,0,0,1,2.08-.76V72.5l-2.39-.25v-1.2a8.19,8.19,0,0,1,1.2-.38q.75-.19,1.6-.33l1.67-.25,1.38-.17h1.07V84.68h.82a19.42,19.42,0,0,0,1.94-2.44q.9-1.33,1.59-2.44a3.66,3.66,0,0,1-.74-.32,7.31,7.31,0,0,1-.68-.44Z"/><path class="cls-2" d="M481.84,90.15a2,2,0,0,0-.58-1.42,6.77,6.77,0,0,0-1.45-1.1q-.87-.5-1.89-1A10.72,10.72,0,0,1,476,85.45a6.28,6.28,0,0,1-1.45-1.59,4.07,4.07,0,0,1-.58-2.23,3.39,3.39,0,0,1,.44-1.71,4.07,4.07,0,0,1,1.2-1.31,5.92,5.92,0,0,1,1.81-.83,8.33,8.33,0,0,1,2.28-.3,17.66,17.66,0,0,1,3.16.27,12,12,0,0,1,2.57.74,11.56,11.56,0,0,1-.5,2.16q-.38,1.15-.72,2.09h-1.07l-1.32-3.21a2.9,2.9,0,0,0-.79-.2,7.85,7.85,0,0,0-.91,0,1.78,1.78,0,0,0-1.92,1.79,1.87,1.87,0,0,0,.58,1.37,7,7,0,0,0,1.45,1.09q.87.5,1.89,1A12.06,12.06,0,0,1,484,85.67a6.07,6.07,0,0,1,1.45,1.53,3.74,3.74,0,0,1,.58,2.11,4,4,0,0,1-1.76,3.41A8,8,0,0,1,479.57,94a16.16,16.16,0,0,1-3.12-.31,11.25,11.25,0,0,1-2.77-.88,7.13,7.13,0,0,1,.53-2.3,16,16,0,0,1,1-2.08h1.07l1.54,3.43a1.58,1.58,0,0,0,.77.3,7.34,7.34,0,0,0,.8,0,2.82,2.82,0,0,0,1.67-.54A1.71,1.71,0,0,0,481.84,90.15Z"/><path class="cls-2" d="M118.07,85.21q-4.2,5.95-5.57,8.38-6.64-4.18-6.64-9,0-3.74,6.35-12.12t7.33-12.12a7,7,0,0,1,5.08,2.42A7.49,7.49,0,0,1,127,68q0,2.87-2.34,7.05A118.7,118.7,0,0,1,118.07,85.21Zm-19,0q-4.2,5.95-5.57,8.38-6.64-4.18-6.64-9,0-3.74,6.35-12.12t7.33-12.12a7,7,0,0,1,5.08,2.42A7.49,7.49,0,0,1,107.94,68q0,2.87-2.34,7.05A118.9,118.9,0,0,1,99,85.21Z"/><path class="cls-2" d="M190,147.76V133.48h1.66v14.28Z"/><path class="cls-2" d="M196.92,147.76h-1.62v-15.2h1.62Z"/><path class="cls-2" d="M209.59,142.39a5.9,5.9,0,0,1-1.32,4.09,4.64,4.64,0,0,1-3.64,1.47,4.82,4.82,0,0,1-2.55-.67,4.45,4.45,0,0,1-1.72-1.93,6.74,6.74,0,0,1-.61-2.95,5.9,5.9,0,0,1,1.31-4.08,4.63,4.63,0,0,1,3.63-1.46,4.53,4.53,0,0,1,3.57,1.49A5.88,5.88,0,0,1,209.59,142.39Zm-8.15,0a5.08,5.08,0,0,0,.82,3.13,3.26,3.26,0,0,0,4.83,0,5.06,5.06,0,0,0,.83-3.13,5,5,0,0,0-.83-3.1,2.9,2.9,0,0,0-2.44-1.06,2.85,2.85,0,0,0-2.4,1A5,5,0,0,0,201.44,142.39Z"/><path class="cls-2" d="M219.76,147.76v-6.92a2.79,2.79,0,0,0-.6-2,2.43,2.43,0,0,0-1.87-.64,3.08,3.08,0,0,0-2.46.91,4.59,4.59,0,0,0-.78,3v5.62h-1.62v-10.7h1.32l.26,1.46h.08a3.31,3.31,0,0,1,1.4-1.23,4.53,4.53,0,0,1,2-.43,4.06,4.06,0,0,1,2.91.93,4,4,0,0,1,1,3v7Z"/><path class="cls-2" d="M231.29,147.76l-.32-1.52h-.08a4.5,4.5,0,0,1-1.6,1.36,4.87,4.87,0,0,1-2,.36,3.57,3.57,0,0,1-2.5-.82,3,3,0,0,1-.9-2.33q0-3.24,5.19-3.4l1.82-.06v-.66a2.71,2.71,0,0,0-.54-1.86,2.23,2.23,0,0,0-1.73-.6,7.06,7.06,0,0,0-3,.82l-.5-1.24a7.65,7.65,0,0,1,1.73-.67,7.49,7.49,0,0,1,1.89-.24,4.08,4.08,0,0,1,2.84.85,3.55,3.55,0,0,1,.92,2.72v7.3Zm-3.66-1.14a3.29,3.29,0,0,0,2.38-.83,3.07,3.07,0,0,0,.86-2.32v-1l-1.62.07a5.9,5.9,0,0,0-2.79.6,1.81,1.81,0,0,0-.85,1.66,1.67,1.67,0,0,0,.53,1.34A2.21,2.21,0,0,0,227.63,146.61Z"/><path class="cls-2" d="M247.61,147.76l-.32-1.52h-.08a4.5,4.5,0,0,1-1.6,1.36,4.87,4.87,0,0,1-2,.36,3.57,3.57,0,0,1-2.5-.82,3,3,0,0,1-.9-2.33q0-3.24,5.19-3.4l1.82-.06v-.66a2.71,2.71,0,0,0-.54-1.86,2.23,2.23,0,0,0-1.73-.6,7.06,7.06,0,0,0-3,.82l-.5-1.24a7.65,7.65,0,0,1,1.73-.67,7.49,7.49,0,0,1,1.89-.24,4.08,4.08,0,0,1,2.84.85,3.55,3.55,0,0,1,.92,2.72v7.3Zm-3.66-1.14a3.29,3.29,0,0,0,2.38-.83,3.07,3.07,0,0,0,.86-2.32v-1l-1.62.07a5.9,5.9,0,0,0-2.79.6,1.81,1.81,0,0,0-.85,1.66,1.67,1.67,0,0,0,.53,1.34A2.21,2.21,0,0,0,243.95,146.61Z"/><path class="cls-2" d="M259.47,147.76v-6.92a2.79,2.79,0,0,0-.6-2,2.43,2.43,0,0,0-1.87-.64,3.08,3.08,0,0,0-2.46.91,4.59,4.59,0,0,0-.78,3v5.62h-1.62v-10.7h1.32l.26,1.46h.08a3.31,3.31,0,0,1,1.4-1.23,4.53,4.53,0,0,1,2-.43,4.06,4.06,0,0,1,2.91.93,4,4,0,0,1,1,3v7Z"/><path class="cls-2" d="M271.71,146.32h-.09a3.81,3.81,0,0,1-3.36,1.63,4,4,0,0,1-3.27-1.44,6.32,6.32,0,0,1-1.17-4.08,6.43,6.43,0,0,1,1.17-4.11,3.94,3.94,0,0,1,3.26-1.46,3.89,3.89,0,0,1,3.34,1.58h.13l-.07-.77,0-.75v-4.36h1.62v15.2h-1.32Zm-3.24.27a3,3,0,0,0,2.41-.9,4.57,4.57,0,0,0,.75-2.92v-.34a5.37,5.37,0,0,0-.76-3.25,2.88,2.88,0,0,0-2.42-1,2.48,2.48,0,0,0-2.18,1.11,5.51,5.51,0,0,0-.76,3.13,5.29,5.29,0,0,0,.75,3.1A2.55,2.55,0,0,0,268.47,146.59Z"/><path class="cls-2" d="M289.2,147.76v-6.92a2.79,2.79,0,0,0-.6-2,2.43,2.43,0,0,0-1.87-.64,3.06,3.06,0,0,0-2.47.92,4.65,4.65,0,0,0-.78,3v5.6h-1.62v-15.2h1.62v4.6a10.07,10.07,0,0,1-.08,1.38h.1a3.31,3.31,0,0,1,1.36-1.22,4.43,4.43,0,0,1,2-.44,4.13,4.13,0,0,1,2.94.93,3.93,3.93,0,0,1,1,3v7Z"/><path class="cls-2" d="M298.67,148a4.92,4.92,0,0,1-3.75-1.45,5.59,5.59,0,0,1-1.37-4,6.2,6.2,0,0,1,1.27-4.11,4.23,4.23,0,0,1,3.42-1.52,4,4,0,0,1,3.18,1.32,5.07,5.07,0,0,1,1.17,3.49v1h-7.37a4.24,4.24,0,0,0,1,2.86,3.29,3.29,0,0,0,2.54,1,8.63,8.63,0,0,0,3.42-.72v1.45a8.62,8.62,0,0,1-1.63.53A9.14,9.14,0,0,1,298.67,148Zm-.44-9.74a2.65,2.65,0,0,0-2.06.84,3.87,3.87,0,0,0-.9,2.32h5.6a3.56,3.56,0,0,0-.68-2.35A2.41,2.41,0,0,0,298.23,138.22Z"/><path class="cls-2" d="M310.26,136.86a6.34,6.34,0,0,1,1.28.12l-.22,1.5a5.52,5.52,0,0,0-1.17-.15,2.85,2.85,0,0,0-2.22,1.05A3.85,3.85,0,0,0,307,142v5.74h-1.62v-10.7h1.34l.19,2H307a4.72,4.72,0,0,1,1.44-1.61A3.23,3.23,0,0,1,310.26,136.86Z"/><path class="cls-2" d="M322.19,146.61a5.34,5.34,0,0,0,.83-.06,5.26,5.26,0,0,0,.63-.13v1.24a3,3,0,0,1-.78.21,5.79,5.79,0,0,1-.92.08q-3.11,0-3.11-3.27v-6.37h-1.53v-.78l1.53-.67.68-2.29h.94v2.48h3.11v1.26h-3.11v6.3a2.17,2.17,0,0,0,.46,1.48A1.6,1.6,0,0,0,322.19,146.61Z"/><path class="cls-2" d="M330.31,148a4.92,4.92,0,0,1-3.75-1.45,5.59,5.59,0,0,1-1.37-4,6.2,6.2,0,0,1,1.27-4.11,4.23,4.23,0,0,1,3.42-1.52,4,4,0,0,1,3.18,1.32,5.07,5.07,0,0,1,1.17,3.49v1h-7.37a4.24,4.24,0,0,0,1,2.86,3.29,3.29,0,0,0,2.54,1,8.63,8.63,0,0,0,3.42-.72v1.45a8.62,8.62,0,0,1-1.63.53A9.14,9.14,0,0,1,330.31,148Zm-.44-9.74a2.65,2.65,0,0,0-2.06.84,3.87,3.87,0,0,0-.9,2.32h5.6a3.56,3.56,0,0,0-.68-2.35A2.41,2.41,0,0,0,329.87,138.22Z"/><path class="cls-2" d="M343.6,147.76l-.32-1.52h-.08a4.5,4.5,0,0,1-1.6,1.36,4.87,4.87,0,0,1-2,.36,3.57,3.57,0,0,1-2.5-.82,3,3,0,0,1-.9-2.33q0-3.24,5.19-3.4l1.82-.06v-.66a2.71,2.71,0,0,0-.54-1.86,2.23,2.23,0,0,0-1.73-.6,7.06,7.06,0,0,0-3,.82l-.5-1.24a7.65,7.65,0,0,1,1.73-.67,7.49,7.49,0,0,1,1.89-.24,4.08,4.08,0,0,1,2.84.85,3.55,3.55,0,0,1,.92,2.72v7.3Zm-3.66-1.14a3.29,3.29,0,0,0,2.38-.83,3.07,3.07,0,0,0,.86-2.32v-1l-1.62.07a5.9,5.9,0,0,0-2.79.6,1.81,1.81,0,0,0-.85,1.66,1.67,1.67,0,0,0,.53,1.34A2.21,2.21,0,0,0,339.93,146.61Z"/><path class="cls-2" d="M361.78,147.76v-7a2.89,2.89,0,0,0-.55-1.92,2.11,2.11,0,0,0-1.7-.64,2.74,2.74,0,0,0-2.24.87,4.13,4.13,0,0,0-.72,2.68v6H355v-7a2.89,2.89,0,0,0-.55-1.92,2.13,2.13,0,0,0-1.71-.64,2.65,2.65,0,0,0-2.23.91,4.94,4.94,0,0,0-.71,3v5.62h-1.62v-10.7h1.32l.26,1.46h.08a3.19,3.19,0,0,1,1.29-1.22,4,4,0,0,1,1.87-.44q2.51,0,3.28,1.82h.08a3.41,3.41,0,0,1,1.39-1.33,4.31,4.31,0,0,1,2.07-.49,3.62,3.62,0,0,1,2.72.93,4.17,4.17,0,0,1,.9,3v7Z"/><path class="cls-2" d="M375.39,146.61a5.34,5.34,0,0,0,.83-.06,5.26,5.26,0,0,0,.63-.13v1.24a3,3,0,0,1-.78.21,5.79,5.79,0,0,1-.92.08q-3.11,0-3.11-3.27v-6.37h-1.53v-.78l1.53-.67.68-2.29h.94v2.48h3.11v1.26h-3.11v6.3a2.17,2.17,0,0,0,.46,1.48A1.6,1.6,0,0,0,375.39,146.61Z"/><path class="cls-2" d="M388.23,142.39a5.9,5.9,0,0,1-1.32,4.09,4.64,4.64,0,0,1-3.64,1.47,4.82,4.82,0,0,1-2.55-.67,4.45,4.45,0,0,1-1.72-1.93,6.74,6.74,0,0,1-.61-2.95,5.9,5.9,0,0,1,1.31-4.08,4.63,4.63,0,0,1,3.63-1.46,4.53,4.53,0,0,1,3.57,1.49A5.88,5.88,0,0,1,388.23,142.39Zm-8.15,0a5.08,5.08,0,0,0,.82,3.13,3.26,3.26,0,0,0,4.83,0,5.06,5.06,0,0,0,.83-3.13,5,5,0,0,0-.83-3.1,2.9,2.9,0,0,0-2.44-1.06,2.85,2.85,0,0,0-2.4,1A5,5,0,0,0,380.08,142.39Z"/><path class="cls-2" d="M400.31,142.39a5.9,5.9,0,0,1-1.32,4.09,4.64,4.64,0,0,1-3.64,1.47,4.82,4.82,0,0,1-2.55-.67,4.45,4.45,0,0,1-1.72-1.93,6.74,6.74,0,0,1-.61-2.95,5.9,5.9,0,0,1,1.31-4.08,4.63,4.63,0,0,1,3.63-1.46,4.53,4.53,0,0,1,3.57,1.49A5.88,5.88,0,0,1,400.31,142.39Zm-8.15,0a5.08,5.08,0,0,0,.82,3.13,3.26,3.26,0,0,0,4.83,0,5.06,5.06,0,0,0,.83-3.13,5,5,0,0,0-.83-3.1,2.9,2.9,0,0,0-2.44-1.06,2.85,2.85,0,0,0-2.4,1A5,5,0,0,0,392.16,142.39Z"/><path class="cls-2" d="M404.76,142.28a19,19,0,0,1,1.28-1.56l3.46-3.66h1.92l-4.34,4.56,4.64,6.14h-2L406,142.7l-1.22,1.05v4h-1.6v-15.2h1.6v8.06q0,.54-.08,1.66Z"/><path class="cls-2" d="M432.49,147.76v-7a2.89,2.89,0,0,0-.55-1.92,2.11,2.11,0,0,0-1.7-.64,2.74,2.74,0,0,0-2.24.87,4.13,4.13,0,0,0-.72,2.68v6h-1.62v-7a2.89,2.89,0,0,0-.55-1.92,2.13,2.13,0,0,0-1.71-.64,2.65,2.65,0,0,0-2.23.91,4.94,4.94,0,0,0-.71,3v5.62h-1.62v-10.7h1.32l.26,1.46h.08a3.19,3.19,0,0,1,1.29-1.22,4,4,0,0,1,1.87-.44q2.51,0,3.28,1.82H427a3.41,3.41,0,0,1,1.39-1.33,4.31,4.31,0,0,1,2.07-.49,3.62,3.62,0,0,1,2.72.93,4.17,4.17,0,0,1,.9,3v7Z"/><path class="cls-2" d="M442,148a4.92,4.92,0,0,1-3.75-1.45,5.59,5.59,0,0,1-1.37-4,6.2,6.2,0,0,1,1.27-4.11,4.23,4.23,0,0,1,3.42-1.52,4,4,0,0,1,3.18,1.32,5.07,5.07,0,0,1,1.17,3.49v1h-7.37a4.24,4.24,0,0,0,1,2.86,3.29,3.29,0,0,0,2.54,1,8.63,8.63,0,0,0,3.42-.72v1.45a8.62,8.62,0,0,1-1.63.53A9.14,9.14,0,0,1,442,148Zm-.44-9.74a2.65,2.65,0,0,0-2.06.84,3.87,3.87,0,0,0-.9,2.32h5.6a3.56,3.56,0,0,0-.68-2.35A2.41,2.41,0,0,0,441.53,138.22Z"/><path class="cls-2" d="M460.45,147.76l-.32-1.52h-.08a4.5,4.5,0,0,1-1.6,1.36,4.87,4.87,0,0,1-2,.36,3.57,3.57,0,0,1-2.5-.82,3,3,0,0,1-.9-2.33q0-3.24,5.19-3.4l1.82-.06v-.66a2.71,2.71,0,0,0-.54-1.86,2.23,2.23,0,0,0-1.73-.6,7.06,7.06,0,0,0-3,.82l-.5-1.24a7.65,7.65,0,0,1,1.73-.67,7.49,7.49,0,0,1,1.89-.24,4.08,4.08,0,0,1,2.84.85,3.55,3.55,0,0,1,.92,2.72v7.3Zm-3.66-1.14a3.29,3.29,0,0,0,2.38-.83,3.07,3.07,0,0,0,.86-2.32v-1l-1.62.07a5.9,5.9,0,0,0-2.79.6,1.81,1.81,0,0,0-.85,1.66,1.67,1.67,0,0,0,.53,1.34A2.21,2.21,0,0,0,456.79,146.61Z"/><path class="cls-2" d="M466.61,147.76H465v-15.2h1.62Z"/><path class="cls-2" d="M471.67,147.76h-1.62v-15.2h1.62Z"/><path class="cls-2" d="M483.76,146.61a5.34,5.34,0,0,0,.83-.06,5.26,5.26,0,0,0,.63-.13v1.24a3,3,0,0,1-.78.21,5.79,5.79,0,0,1-.92.08q-3.11,0-3.11-3.27v-6.37h-1.53v-.78l1.53-.67.68-2.29H482v2.48h3.11v1.26H482v6.3a2.17,2.17,0,0,0,.46,1.48A1.6,1.6,0,0,0,483.76,146.61Z"/><path class="cls-2" d="M494.69,147.76v-6.92a2.79,2.79,0,0,0-.6-2,2.43,2.43,0,0,0-1.87-.64,3.06,3.06,0,0,0-2.47.92,4.65,4.65,0,0,0-.78,3v5.6h-1.62v-15.2H489v4.6a10.07,10.07,0,0,1-.08,1.38h.1a3.31,3.31,0,0,1,1.36-1.22,4.43,4.43,0,0,1,2-.44,4.13,4.13,0,0,1,2.94.93,3.93,3.93,0,0,1,1,3v7Z"/><path class="cls-2" d="M504.16,148a4.92,4.92,0,0,1-3.75-1.45,5.59,5.59,0,0,1-1.37-4,6.2,6.2,0,0,1,1.27-4.11,4.23,4.23,0,0,1,3.42-1.52,4,4,0,0,1,3.18,1.32,5.07,5.07,0,0,1,1.17,3.49v1h-7.37a4.24,4.24,0,0,0,1,2.86,3.29,3.29,0,0,0,2.54,1,8.63,8.63,0,0,0,3.42-.72v1.45a8.62,8.62,0,0,1-1.63.53A9.14,9.14,0,0,1,504.16,148Zm-.44-9.74a2.65,2.65,0,0,0-2.06.84,3.87,3.87,0,0,0-.9,2.32h5.6a3.56,3.56,0,0,0-.68-2.35A2.41,2.41,0,0,0,503.72,138.22Z"/><path class="cls-2" d="M524.8,147.76l-2-6.28q-.19-.58-.69-2.62h-.08q-.39,1.71-.68,2.64l-2,6.26h-1.87l-2.92-10.7h1.7l1.58,6.14a24.81,24.81,0,0,1,.62,2.84h.08q.11-.56.35-1.44t.42-1.4l2-6.14H523l1.91,6.14a20.74,20.74,0,0,1,.74,2.82h.08a10.35,10.35,0,0,1,.21-1.08q.17-.73,2-7.88h1.68l-3,10.7Z"/><path class="cls-2" d="M538.2,147.76l-.32-1.52h-.08a4.5,4.5,0,0,1-1.6,1.36,4.87,4.87,0,0,1-2,.36,3.57,3.57,0,0,1-2.5-.82,3,3,0,0,1-.9-2.33q0-3.24,5.19-3.4l1.82-.06v-.66a2.71,2.71,0,0,0-.54-1.86,2.23,2.23,0,0,0-1.73-.6,7.06,7.06,0,0,0-3,.82l-.5-1.24a7.65,7.65,0,0,1,1.73-.67,7.49,7.49,0,0,1,1.89-.24,4.08,4.08,0,0,1,2.84.85,3.55,3.55,0,0,1,.92,2.72v7.3Zm-3.66-1.14a3.29,3.29,0,0,0,2.38-.83,3.07,3.07,0,0,0,.86-2.32v-1l-1.62.07a5.9,5.9,0,0,0-2.79.6,1.81,1.81,0,0,0-.85,1.66,1.67,1.67,0,0,0,.53,1.34A2.21,2.21,0,0,0,534.53,146.61Z"/><path class="cls-2" d="M541,137.05h1.74l2.34,6.1a23.25,23.25,0,0,1,1,3h.08q.13-.5.53-1.7t2.65-7.42h1.74l-4.6,12.19a6.09,6.09,0,0,1-1.6,2.56,3.39,3.39,0,0,1-2.24.76,6.54,6.54,0,0,1-1.46-.17v-1.3a5.65,5.65,0,0,0,1.2.12,2.48,2.48,0,0,0,2.38-1.87l.6-1.52Z"/><path class="cls-2" d="M562.83,138.31h-2.72v9.44h-1.62v-9.44h-1.91v-.73l1.91-.59v-.6q0-3.94,3.45-3.95a7.11,7.11,0,0,1,2,.34l-.42,1.3a5.35,5.35,0,0,0-1.6-.3,1.56,1.56,0,0,0-1.36.61,3.41,3.41,0,0,0-.44,2v.69h2.72Z"/><path class="cls-2" d="M569.67,136.86a6.34,6.34,0,0,1,1.28.12l-.22,1.5a5.52,5.52,0,0,0-1.17-.15,2.85,2.85,0,0,0-2.22,1.05,3.85,3.85,0,0,0-.92,2.63v5.74h-1.62v-10.7h1.34l.19,2h.08a4.72,4.72,0,0,1,1.44-1.61A3.23,3.23,0,0,1,569.67,136.86Z"/><path class="cls-2" d="M582.19,142.39a5.9,5.9,0,0,1-1.32,4.09,4.64,4.64,0,0,1-3.64,1.47,4.82,4.82,0,0,1-2.55-.67,4.45,4.45,0,0,1-1.72-1.93,6.74,6.74,0,0,1-.61-2.95,5.9,5.9,0,0,1,1.31-4.08,4.63,4.63,0,0,1,3.63-1.46,4.53,4.53,0,0,1,3.57,1.49A5.88,5.88,0,0,1,582.19,142.39Zm-8.15,0a5.08,5.08,0,0,0,.82,3.13,3.26,3.26,0,0,0,4.83,0,5.06,5.06,0,0,0,.83-3.13,5,5,0,0,0-.83-3.1,2.9,2.9,0,0,0-2.44-1.06,2.85,2.85,0,0,0-2.4,1A5,5,0,0,0,574,142.39Z"/><path class="cls-2" d="M598.67,147.76v-7a2.89,2.89,0,0,0-.55-1.92,2.11,2.11,0,0,0-1.7-.64,2.74,2.74,0,0,0-2.24.87,4.13,4.13,0,0,0-.72,2.68v6h-1.62v-7a2.89,2.89,0,0,0-.55-1.92,2.13,2.13,0,0,0-1.71-.64,2.65,2.65,0,0,0-2.23.91,4.94,4.94,0,0,0-.71,3v5.62H585v-10.7h1.32l.26,1.46h.08A3.19,3.19,0,0,1,588,137.3a4,4,0,0,1,1.87-.44q2.51,0,3.28,1.82h.08a3.41,3.41,0,0,1,1.39-1.33,4.31,4.31,0,0,1,2.07-.49,3.62,3.62,0,0,1,2.72.93,4.17,4.17,0,0,1,.9,3v7Z"/><path class="cls-2" d="M615.41,147.76l-.32-1.52H615a4.5,4.5,0,0,1-1.6,1.36,4.87,4.87,0,0,1-2,.36,3.57,3.57,0,0,1-2.5-.82,3,3,0,0,1-.9-2.33q0-3.24,5.19-3.4l1.82-.06v-.66a2.71,2.71,0,0,0-.54-1.86,2.23,2.23,0,0,0-1.73-.6,7.06,7.06,0,0,0-3,.82l-.5-1.24a7.65,7.65,0,0,1,1.73-.67,7.49,7.49,0,0,1,1.89-.24,4.08,4.08,0,0,1,2.84.85,3.55,3.55,0,0,1,.92,2.72v7.3Zm-3.66-1.14a3.29,3.29,0,0,0,2.38-.83,3.07,3.07,0,0,0,.86-2.32v-1l-1.62.07a5.9,5.9,0,0,0-2.79.6,1.81,1.81,0,0,0-.85,1.66,1.67,1.67,0,0,0,.53,1.34A2.21,2.21,0,0,0,611.75,146.61Z"/><path class="cls-2" d="M625.39,133.48h4a7.61,7.61,0,0,1,4.11.85,3,3,0,0,1,1.27,2.69,3.1,3.1,0,0,1-.71,2.09,3.41,3.41,0,0,1-2.07,1.07v.1q3.25.56,3.25,3.42a3.67,3.67,0,0,1-1.29,3,5.51,5.51,0,0,1-3.62,1.07h-5Zm1.66,6.11h2.73a4.45,4.45,0,0,0,2.53-.55,2.13,2.13,0,0,0,.77-1.86,1.88,1.88,0,0,0-.86-1.73,5.37,5.37,0,0,0-2.73-.53h-2.44Zm0,1.41v5.34h3a4.24,4.24,0,0,0,2.6-.67,2.47,2.47,0,0,0,.87-2.09,2.22,2.22,0,0,0-.89-2,4.77,4.77,0,0,0-2.72-.62Z"/><path class="cls-2" d="M643.37,147.76h-1.58V137.58q0-1.27.08-2.4l-.46.43q-.25.22-2.32,1.9l-.86-1.11,3.78-2.92h1.37Z"/><path class="cls-2" d="M655,133.48l-5.32,14.28H648l5.32-14.28Z"/><path class="cls-2" d="M657.13,133.48h4a7.61,7.61,0,0,1,4.11.85,3,3,0,0,1,1.27,2.69,3.1,3.1,0,0,1-.71,2.09,3.41,3.41,0,0,1-2.07,1.07v.1q3.25.56,3.25,3.42a3.67,3.67,0,0,1-1.29,3,5.51,5.51,0,0,1-3.62,1.07h-5Zm1.66,6.11h2.73a4.45,4.45,0,0,0,2.53-.55,2.13,2.13,0,0,0,.77-1.86,1.88,1.88,0,0,0-.86-1.73,5.37,5.37,0,0,0-2.73-.53h-2.44Zm0,1.41v5.34h3a4.24,4.24,0,0,0,2.6-.67,2.47,2.47,0,0,0,.87-2.09,2.22,2.22,0,0,0-.89-2,4.77,4.77,0,0,0-2.72-.62Z"/><path class="cls-2" d="M678.49,147.76H669.1v-1.4l3.76-3.78a27.69,27.69,0,0,0,2.27-2.48,6.36,6.36,0,0,0,.82-1.45,4.13,4.13,0,0,0,.27-1.51,2.4,2.4,0,0,0-.69-1.81,2.65,2.65,0,0,0-1.92-.67,4.83,4.83,0,0,0-1.68.29,6.72,6.72,0,0,0-1.77,1.06l-.86-1.1a6.58,6.58,0,0,1,4.3-1.64,4.54,4.54,0,0,1,3.15,1,3.54,3.54,0,0,1,1.14,2.77,5.35,5.35,0,0,1-.76,2.69,17,17,0,0,1-2.85,3.36l-3.12,3.06v.08h7.34Z"/><path class="cls-2" d="M198.12,157.48h1.79l-5.15,14.28h-1.64L188,157.48h1.76l3.28,9.24a25.91,25.91,0,0,1,.9,3.1,25.77,25.77,0,0,1,.92-3.15Z"/><path class="cls-2" d="M201.49,158.15a1.08,1.08,0,0,1,.27-.82,1,1,0,0,1,1.36,0,1.06,1.06,0,0,1,.28.81,1.08,1.08,0,0,1-.28.82,1,1,0,0,1-1.36,0A1.1,1.1,0,0,1,201.49,158.15Zm1.76,13.6h-1.62v-10.7h1.62Z"/><path class="cls-2" d="M213.59,168.84a2.68,2.68,0,0,1-1.11,2.3,5.24,5.24,0,0,1-3.12.81,6.8,6.8,0,0,1-3.32-.67v-1.5a8,8,0,0,0,1.66.62,6.93,6.93,0,0,0,1.7.22,3.86,3.86,0,0,0,2-.41,1.4,1.4,0,0,0,.14-2.3,8.53,8.53,0,0,0-2.11-1,11.49,11.49,0,0,1-2.12-1,2.9,2.9,0,0,1-.94-.94,2.46,2.46,0,0,1-.31-1.26,2.4,2.4,0,0,1,1.06-2.07,5,5,0,0,1,2.92-.76,8.54,8.54,0,0,1,3.38.7l-.58,1.32a7.76,7.76,0,0,0-2.92-.66,3.36,3.36,0,0,0-1.74.36,1.12,1.12,0,0,0-.59,1,1.21,1.21,0,0,0,.22.73,2.17,2.17,0,0,0,.71.58,15.66,15.66,0,0,0,1.88.79,7,7,0,0,1,2.57,1.4A2.46,2.46,0,0,1,213.59,168.84Z"/><path class="cls-2" d="M222.8,171.76l-.32-1.52h-.08a4.5,4.5,0,0,1-1.6,1.36,4.87,4.87,0,0,1-2,.36,3.57,3.57,0,0,1-2.5-.82,3,3,0,0,1-.9-2.33q0-3.24,5.19-3.4l1.82-.06v-.66a2.71,2.71,0,0,0-.54-1.86,2.23,2.23,0,0,0-1.73-.6,7.06,7.06,0,0,0-3,.82l-.5-1.24a7.65,7.65,0,0,1,1.73-.67,7.49,7.49,0,0,1,1.89-.24,4.08,4.08,0,0,1,2.84.85,3.55,3.55,0,0,1,.92,2.72v7.3Zm-3.66-1.14a3.29,3.29,0,0,0,2.38-.83,3.07,3.07,0,0,0,.86-2.32v-1l-1.62.07a5.9,5.9,0,0,0-2.79.6,1.81,1.81,0,0,0-.85,1.66,1.67,1.67,0,0,0,.53,1.34A2.21,2.21,0,0,0,219.14,170.61Z"/><path class="cls-2" d="M236,170.61a5.34,5.34,0,0,0,.83-.06,5.26,5.26,0,0,0,.63-.13v1.24a3,3,0,0,1-.78.21,5.79,5.79,0,0,1-.92.08q-3.11,0-3.11-3.27v-6.37h-1.53v-.78l1.53-.67.68-2.29h.94v2.48h3.11v1.26h-3.11v6.3a2.17,2.17,0,0,0,.46,1.48A1.6,1.6,0,0,0,236,170.61Z"/><path class="cls-2" d="M248.84,166.39a5.9,5.9,0,0,1-1.32,4.09,4.64,4.64,0,0,1-3.64,1.47,4.82,4.82,0,0,1-2.55-.67,4.45,4.45,0,0,1-1.72-1.93,6.74,6.74,0,0,1-.61-2.95,5.9,5.9,0,0,1,1.31-4.08,4.63,4.63,0,0,1,3.63-1.46,4.53,4.53,0,0,1,3.57,1.49A5.88,5.88,0,0,1,248.84,166.39Zm-8.15,0a5.08,5.08,0,0,0,.82,3.13,3.26,3.26,0,0,0,4.83,0,5.06,5.06,0,0,0,.83-3.13,5,5,0,0,0-.83-3.1,2.9,2.9,0,0,0-2.44-1.06,2.85,2.85,0,0,0-2.4,1A5,5,0,0,0,240.69,166.39Z"/><path class="cls-2" d="M263.46,171.76l-.32-1.52h-.08a4.5,4.5,0,0,1-1.6,1.36,4.87,4.87,0,0,1-2,.36,3.57,3.57,0,0,1-2.5-.82,3,3,0,0,1-.9-2.33q0-3.24,5.19-3.4l1.82-.06v-.66a2.71,2.71,0,0,0-.54-1.86,2.23,2.23,0,0,0-1.73-.6,7.06,7.06,0,0,0-3,.82l-.5-1.24a7.65,7.65,0,0,1,1.73-.67,7.49,7.49,0,0,1,1.89-.24,4.08,4.08,0,0,1,2.84.85,3.55,3.55,0,0,1,.92,2.72v7.3Zm-3.66-1.14a3.29,3.29,0,0,0,2.38-.83,3.07,3.07,0,0,0,.86-2.32v-1l-1.62.07a5.9,5.9,0,0,0-2.79.6,1.81,1.81,0,0,0-.85,1.66,1.67,1.67,0,0,0,.53,1.34A2.21,2.21,0,0,0,259.8,170.61Z"/><path class="cls-2" d="M278.18,172a4.64,4.64,0,0,1-1.91-.39,3.59,3.59,0,0,1-1.45-1.19h-.12a14.36,14.36,0,0,1,.12,1.78v4.4H273.2V161.05h1.32l.22,1.46h.08a3.77,3.77,0,0,1,1.46-1.27,4.42,4.42,0,0,1,1.9-.39,4,4,0,0,1,3.29,1.46,7.75,7.75,0,0,1,0,8.18A4,4,0,0,1,278.18,172Zm-.23-9.72a2.87,2.87,0,0,0-2.37.91,4.67,4.67,0,0,0-.75,2.89v.36a5.36,5.36,0,0,0,.75,3.23,2.86,2.86,0,0,0,2.41,1,2.51,2.51,0,0,0,2.17-1.12,5.32,5.32,0,0,0,.79-3.1,5.12,5.12,0,0,0-.79-3.07A2.59,2.59,0,0,0,277.94,162.23Z"/><path class="cls-2" d="M290,172a4.92,4.92,0,0,1-3.75-1.45,5.59,5.59,0,0,1-1.37-4,6.2,6.2,0,0,1,1.27-4.11,4.23,4.23,0,0,1,3.42-1.52,4,4,0,0,1,3.18,1.32,5.07,5.07,0,0,1,1.17,3.49v1h-7.37a4.24,4.24,0,0,0,1,2.86,3.29,3.29,0,0,0,2.54,1,8.63,8.63,0,0,0,3.42-.72v1.45a8.62,8.62,0,0,1-1.63.53A9.14,9.14,0,0,1,290,172Zm-.44-9.74a2.65,2.65,0,0,0-2.06.84,3.87,3.87,0,0,0-.9,2.32h5.6a3.56,3.56,0,0,0-.68-2.35A2.41,2.41,0,0,0,289.53,162.22Z"/><path class="cls-2" d="M301.55,160.86a6.34,6.34,0,0,1,1.28.12l-.22,1.5a5.52,5.52,0,0,0-1.17-.15,2.85,2.85,0,0,0-2.22,1.05,3.85,3.85,0,0,0-.92,2.63v5.74h-1.62v-10.7H298l.19,2h.08a4.72,4.72,0,0,1,1.44-1.61A3.23,3.23,0,0,1,301.55,160.86Z"/><path class="cls-2" d="M318.48,171.76v-7a2.89,2.89,0,0,0-.55-1.92,2.11,2.11,0,0,0-1.7-.64,2.74,2.74,0,0,0-2.24.87,4.13,4.13,0,0,0-.72,2.68v6h-1.62v-7a2.89,2.89,0,0,0-.55-1.92,2.13,2.13,0,0,0-1.71-.64,2.65,2.65,0,0,0-2.23.91,4.94,4.94,0,0,0-.71,3v5.62h-1.62v-10.7h1.32l.26,1.46h.08a3.19,3.19,0,0,1,1.29-1.22,4,4,0,0,1,1.87-.44q2.51,0,3.28,1.82H313a3.41,3.41,0,0,1,1.39-1.33,4.31,4.31,0,0,1,2.07-.49,3.62,3.62,0,0,1,2.72.93,4.17,4.17,0,0,1,.9,3v7Z"/><path class="cls-2" d="M330,171.76l-.32-1.52h-.08a4.5,4.5,0,0,1-1.6,1.36,4.87,4.87,0,0,1-2,.36,3.57,3.57,0,0,1-2.5-.82,3,3,0,0,1-.9-2.33q0-3.24,5.19-3.4l1.82-.06v-.66a2.71,2.71,0,0,0-.54-1.86,2.23,2.23,0,0,0-1.73-.6,7.06,7.06,0,0,0-3,.82l-.5-1.24a7.65,7.65,0,0,1,1.73-.67,7.49,7.49,0,0,1,1.89-.24,4.08,4.08,0,0,1,2.84.85,3.55,3.55,0,0,1,.92,2.72v7.3Zm-3.66-1.14a3.29,3.29,0,0,0,2.38-.83,3.07,3.07,0,0,0,.86-2.32v-1l-1.62.07a5.9,5.9,0,0,0-2.79.6,1.81,1.81,0,0,0-.85,1.66,1.67,1.67,0,0,0,.53,1.34A2.21,2.21,0,0,0,326.36,170.61Z"/><path class="cls-2" d="M341.89,171.76v-6.92a2.79,2.79,0,0,0-.6-2,2.43,2.43,0,0,0-1.87-.64,3.08,3.08,0,0,0-2.46.91,4.59,4.59,0,0,0-.78,3v5.62h-1.62v-10.7h1.32l.26,1.46h.08a3.31,3.31,0,0,1,1.4-1.23,4.53,4.53,0,0,1,2-.43,4.06,4.06,0,0,1,2.91.93,4,4,0,0,1,1,3v7Z"/><path class="cls-2" d="M351.36,172a4.92,4.92,0,0,1-3.75-1.45,5.59,5.59,0,0,1-1.37-4,6.2,6.2,0,0,1,1.27-4.11,4.23,4.23,0,0,1,3.42-1.52,4,4,0,0,1,3.18,1.32,5.07,5.07,0,0,1,1.17,3.49v1h-7.37a4.24,4.24,0,0,0,1,2.86,3.29,3.29,0,0,0,2.54,1,8.63,8.63,0,0,0,3.42-.72v1.45a8.62,8.62,0,0,1-1.63.53A9.14,9.14,0,0,1,351.36,172Zm-.44-9.74a2.65,2.65,0,0,0-2.06.84,3.87,3.87,0,0,0-.9,2.32h5.6a3.56,3.56,0,0,0-.68-2.35A2.41,2.41,0,0,0,350.92,162.22Z"/><path class="cls-2" d="M365.38,171.76v-6.92a2.79,2.79,0,0,0-.6-2,2.43,2.43,0,0,0-1.87-.64,3.08,3.08,0,0,0-2.46.91,4.59,4.59,0,0,0-.78,3v5.62h-1.62v-10.7h1.32l.26,1.46h.08a3.31,3.31,0,0,1,1.4-1.23,4.53,4.53,0,0,1,2-.43,4.06,4.06,0,0,1,2.91.93,4,4,0,0,1,1,3v7Z"/><path class="cls-2" d="M373.79,170.61a5.34,5.34,0,0,0,.83-.06,5.26,5.26,0,0,0,.63-.13v1.24a3,3,0,0,1-.78.21,5.79,5.79,0,0,1-.92.08q-3.11,0-3.11-3.27v-6.37h-1.53v-.78l1.53-.67.68-2.29h.94v2.48h3.11v1.26h-3.11v6.3a2.17,2.17,0,0,0,.46,1.48A1.6,1.6,0,0,0,373.79,170.61Z"/><path class="cls-2" d="M389.11,164.28H394v6.94a15.59,15.59,0,0,1-2.3.55,17.51,17.51,0,0,1-2.71.19,6.58,6.58,0,0,1-5-1.93,7.6,7.6,0,0,1-1.81-5.41,8.17,8.17,0,0,1,.89-3.9,6,6,0,0,1,2.57-2.56,8.34,8.34,0,0,1,3.94-.88,10.76,10.76,0,0,1,4.26.84l-.64,1.46a9.51,9.51,0,0,0-3.72-.82,5.33,5.33,0,0,0-4.07,1.55,6,6,0,0,0-1.46,4.31,6.16,6.16,0,0,0,1.41,4.38,5.43,5.43,0,0,0,4.15,1.49,12.34,12.34,0,0,0,2.9-.34v-4.39h-3.19Z"/><path class="cls-2" d="M402,160.86a6.34,6.34,0,0,1,1.28.12l-.22,1.5a5.52,5.52,0,0,0-1.17-.15,2.85,2.85,0,0,0-2.22,1.05,3.85,3.85,0,0,0-.92,2.63v5.74h-1.62v-10.7h1.34l.19,2h.08a4.72,4.72,0,0,1,1.44-1.61A3.23,3.23,0,0,1,402,160.86Z"/><path class="cls-2" d="M409.84,172a4.92,4.92,0,0,1-3.75-1.45,5.59,5.59,0,0,1-1.37-4,6.2,6.2,0,0,1,1.27-4.11,4.23,4.23,0,0,1,3.42-1.52,4,4,0,0,1,3.18,1.32,5.07,5.07,0,0,1,1.17,3.49v1H406.4a4.24,4.24,0,0,0,1,2.86,3.29,3.29,0,0,0,2.54,1,8.63,8.63,0,0,0,3.42-.72v1.45a8.62,8.62,0,0,1-1.63.53A9.14,9.14,0,0,1,409.84,172Zm-.44-9.74a2.65,2.65,0,0,0-2.06.84,3.87,3.87,0,0,0-.9,2.32H412a3.56,3.56,0,0,0-.68-2.35A2.41,2.41,0,0,0,409.4,162.22Z"/><path class="cls-2" d="M421.06,172a4.92,4.92,0,0,1-3.75-1.45,5.59,5.59,0,0,1-1.37-4,6.2,6.2,0,0,1,1.27-4.11,4.23,4.23,0,0,1,3.42-1.52,4,4,0,0,1,3.18,1.32,5.07,5.07,0,0,1,1.17,3.49v1h-7.37a4.24,4.24,0,0,0,1,2.86,3.29,3.29,0,0,0,2.54,1,8.63,8.63,0,0,0,3.42-.72v1.45a8.62,8.62,0,0,1-1.63.53A9.14,9.14,0,0,1,421.06,172Zm-.44-9.74a2.65,2.65,0,0,0-2.06.84,3.87,3.87,0,0,0-.9,2.32h5.6a3.56,3.56,0,0,0-.68-2.35A2.41,2.41,0,0,0,420.62,162.22Z"/><path class="cls-2" d="M435.08,171.76v-6.92a2.79,2.79,0,0,0-.6-2,2.43,2.43,0,0,0-1.87-.64,3.08,3.08,0,0,0-2.46.91,4.59,4.59,0,0,0-.78,3v5.62h-1.62v-10.7h1.32l.26,1.46h.08a3.31,3.31,0,0,1,1.4-1.23,4.53,4.53,0,0,1,2-.43,4.06,4.06,0,0,1,2.91.93,4,4,0,0,1,1,3v7Z"/><path class="cls-2" d="M451.58,158.76a4.67,4.67,0,0,0-3.72,1.57,6.32,6.32,0,0,0-1.36,4.29,6.45,6.45,0,0,0,1.31,4.33,4.67,4.67,0,0,0,3.75,1.53,12.78,12.78,0,0,0,3.41-.54v1.46a10.49,10.49,0,0,1-3.66.56,6.19,6.19,0,0,1-4.87-1.91,7.88,7.88,0,0,1-1.71-5.44,8.59,8.59,0,0,1,.83-3.87,5.92,5.92,0,0,1,2.38-2.56,7.21,7.21,0,0,1,3.67-.9,8.85,8.85,0,0,1,3.93.82l-.7,1.43A7.57,7.57,0,0,0,451.58,158.76Z"/><path class="cls-2" d="M464.43,171.76l-.32-1.52H464a4.5,4.5,0,0,1-1.6,1.36,4.87,4.87,0,0,1-2,.36,3.57,3.57,0,0,1-2.5-.82,3,3,0,0,1-.9-2.33q0-3.24,5.19-3.4l1.82-.06v-.66a2.71,2.71,0,0,0-.54-1.86,2.23,2.23,0,0,0-1.73-.6,7.06,7.06,0,0,0-3,.82l-.5-1.24a7.65,7.65,0,0,1,1.73-.67,7.49,7.49,0,0,1,1.89-.24,4.08,4.08,0,0,1,2.84.85,3.55,3.55,0,0,1,.92,2.72v7.3Zm-3.66-1.14a3.29,3.29,0,0,0,2.38-.83,3.07,3.07,0,0,0,.86-2.32v-1l-1.62.07a5.9,5.9,0,0,0-2.79.6,1.81,1.81,0,0,0-.85,1.66,1.67,1.67,0,0,0,.53,1.34A2.21,2.21,0,0,0,460.76,170.61Z"/><path class="cls-2" d="M473.85,160.86a6.34,6.34,0,0,1,1.28.12l-.22,1.5a5.52,5.52,0,0,0-1.17-.15,2.85,2.85,0,0,0-2.22,1.05,3.85,3.85,0,0,0-.92,2.63v5.74H469v-10.7h1.34l.19,2h.08a4.72,4.72,0,0,1,1.44-1.61A3.23,3.23,0,0,1,473.85,160.86Z"/><path class="cls-2" d="M484.42,170.32h-.09A3.81,3.81,0,0,1,481,172a4,4,0,0,1-3.27-1.44,6.32,6.32,0,0,1-1.17-4.08,6.43,6.43,0,0,1,1.17-4.11,3.94,3.94,0,0,1,3.26-1.46,3.89,3.89,0,0,1,3.34,1.58h.13l-.07-.77,0-.75v-4.36h1.62v15.2h-1.32Zm-3.24.27a3,3,0,0,0,2.41-.9,4.57,4.57,0,0,0,.75-2.92v-.34a5.37,5.37,0,0,0-.76-3.25,2.88,2.88,0,0,0-2.42-1,2.48,2.48,0,0,0-2.18,1.11,5.51,5.51,0,0,0-.76,3.13,5.29,5.29,0,0,0,.75,3.1A2.55,2.55,0,0,0,481.17,170.59Z"/><path class="cls-2" d="M498,170.61a5.34,5.34,0,0,0,.83-.06,5.26,5.26,0,0,0,.63-.13v1.24a3,3,0,0,1-.78.21,5.79,5.79,0,0,1-.92.08q-3.11,0-3.11-3.27v-6.37h-1.53v-.78l1.53-.67.68-2.29h.94v2.48h3.11v1.26h-3.11v6.3a2.17,2.17,0,0,0,.46,1.48A1.6,1.6,0,0,0,498,170.61Z"/><path class="cls-2" d="M509,171.76v-6.92a2.79,2.79,0,0,0-.6-2,2.43,2.43,0,0,0-1.87-.64,3.06,3.06,0,0,0-2.47.92,4.65,4.65,0,0,0-.78,3v5.6h-1.62v-15.2h1.62v4.6a10.07,10.07,0,0,1-.08,1.38h.1a3.31,3.31,0,0,1,1.36-1.22,4.43,4.43,0,0,1,2-.44,4.13,4.13,0,0,1,2.94.93,3.93,3.93,0,0,1,1,3v7Z"/><path class="cls-2" d="M520.5,171.76l-.32-1.52h-.08a4.5,4.5,0,0,1-1.6,1.36,4.87,4.87,0,0,1-2,.36,3.57,3.57,0,0,1-2.5-.82,3,3,0,0,1-.9-2.33q0-3.24,5.19-3.4l1.82-.06v-.66a2.71,2.71,0,0,0-.54-1.86,2.23,2.23,0,0,0-1.73-.6,7.06,7.06,0,0,0-3,.82l-.5-1.24a7.65,7.65,0,0,1,1.73-.67,7.49,7.49,0,0,1,1.89-.24,4.08,4.08,0,0,1,2.84.85,3.55,3.55,0,0,1,.92,2.72v7.3Zm-3.66-1.14a3.29,3.29,0,0,0,2.38-.83,3.07,3.07,0,0,0,.86-2.32v-1l-1.62.07a5.9,5.9,0,0,0-2.79.6,1.81,1.81,0,0,0-.85,1.66,1.67,1.67,0,0,0,.53,1.34A2.21,2.21,0,0,0,516.84,170.61Z"/><path class="cls-2" d="M528.5,170.61a5.34,5.34,0,0,0,.83-.06,5.26,5.26,0,0,0,.63-.13v1.24a3,3,0,0,1-.78.21,5.79,5.79,0,0,1-.92.08q-3.11,0-3.11-3.27v-6.37h-1.53v-.78l1.53-.67.68-2.29h.94v2.48h3.11v1.26h-3.11v6.3a2.17,2.17,0,0,0,.46,1.48A1.6,1.6,0,0,0,528.5,170.61Z"/><path class="cls-2" d="M537.54,171.76V157.48h1.66v14.28Z"/><path class="cls-2" d="M552.35,172a4.57,4.57,0,0,1-3.6-1.43,5.88,5.88,0,0,1-1.27-4,6.07,6.07,0,0,1,1.29-4.15,4.66,4.66,0,0,1,3.69-1.46A7.34,7.34,0,0,1,554,161a5.08,5.08,0,0,1,1.21.39l-.5,1.38a7.64,7.64,0,0,0-1.17-.36,5.21,5.21,0,0,0-1.12-.14q-3.26,0-3.26,4.16a5,5,0,0,0,.8,3,2.77,2.77,0,0,0,2.36,1.05,7.22,7.22,0,0,0,2.74-.58v1.44A5.85,5.85,0,0,1,552.35,172Z"/><path class="cls-2" d="M564.17,171.76l-.32-1.52h-.08a4.5,4.5,0,0,1-1.6,1.36,4.87,4.87,0,0,1-2,.36,3.57,3.57,0,0,1-2.5-.82,3,3,0,0,1-.9-2.33q0-3.24,5.19-3.4l1.82-.06v-.66a2.71,2.71,0,0,0-.54-1.86,2.23,2.23,0,0,0-1.73-.6,7.06,7.06,0,0,0-3,.82l-.5-1.24a7.65,7.65,0,0,1,1.73-.67,7.49,7.49,0,0,1,1.89-.24,4.08,4.08,0,0,1,2.84.85,3.55,3.55,0,0,1,.92,2.72v7.3Zm-3.66-1.14a3.29,3.29,0,0,0,2.38-.83,3.07,3.07,0,0,0,.86-2.32v-1l-1.62.07a5.9,5.9,0,0,0-2.79.6,1.81,1.81,0,0,0-.85,1.66,1.67,1.67,0,0,0,.53,1.34A2.21,2.21,0,0,0,560.51,170.61Z"/><path class="cls-2" d="M573.6,160.86a6.34,6.34,0,0,1,1.28.12l-.22,1.5a5.52,5.52,0,0,0-1.17-.15,2.85,2.85,0,0,0-2.22,1.05,3.85,3.85,0,0,0-.92,2.63v5.74h-1.62v-10.7h1.34l.19,2h.08a4.72,4.72,0,0,1,1.44-1.61A3.23,3.23,0,0,1,573.6,160.86Z"/><path class="cls-2" d="M581.76,160.86A6.34,6.34,0,0,1,583,161l-.22,1.5a5.52,5.52,0,0,0-1.17-.15,2.85,2.85,0,0,0-2.22,1.05,3.85,3.85,0,0,0-.92,2.63v5.74h-1.62v-10.7h1.34l.19,2h.08a4.72,4.72,0,0,1,1.44-1.61A3.23,3.23,0,0,1,581.76,160.86Z"/><path class="cls-2" d="M583.34,161.05h1.74l2.34,6.1a23.25,23.25,0,0,1,1,3h.08q.13-.5.53-1.7t2.65-7.42h1.74l-4.6,12.19a6.09,6.09,0,0,1-1.6,2.56,3.39,3.39,0,0,1-2.24.76,6.54,6.54,0,0,1-1.46-.17v-1.3a5.65,5.65,0,0,0,1.2.12,2.48,2.48,0,0,0,2.38-1.87l.6-1.52Z"/><path class="cls-2" d="M600.18,158.15a1.08,1.08,0,0,1,.27-.82,1,1,0,0,1,1.36,0,1.06,1.06,0,0,1,.28.81,1.08,1.08,0,0,1-.28.82,1,1,0,0,1-1.36,0A1.1,1.1,0,0,1,600.18,158.15Zm1.76,13.6h-1.62v-10.7h1.62Z"/><path class="cls-2" d="M612.7,171.76v-6.92a2.79,2.79,0,0,0-.6-2,2.43,2.43,0,0,0-1.87-.64,3.08,3.08,0,0,0-2.46.91,4.59,4.59,0,0,0-.78,3v5.62h-1.62v-10.7h1.32l.26,1.46H607a3.31,3.31,0,0,1,1.4-1.23,4.53,4.53,0,0,1,2-.43,4.06,4.06,0,0,1,2.91.93,4,4,0,0,1,1,3v7Z"/><path class="cls-2" d="M636.49,171.76v-7a2.89,2.89,0,0,0-.55-1.92,2.11,2.11,0,0,0-1.7-.64,2.74,2.74,0,0,0-2.24.87,4.13,4.13,0,0,0-.72,2.68v6h-1.62v-7a2.89,2.89,0,0,0-.55-1.92,2.13,2.13,0,0,0-1.71-.64,2.65,2.65,0,0,0-2.23.91,4.94,4.94,0,0,0-.71,3v5.62h-1.62v-10.7h1.32l.26,1.46h.08a3.19,3.19,0,0,1,1.29-1.22,4,4,0,0,1,1.87-.44q2.51,0,3.28,1.82H631a3.41,3.41,0,0,1,1.39-1.33,4.31,4.31,0,0,1,2.07-.49,3.62,3.62,0,0,1,2.72.93,4.17,4.17,0,0,1,.9,3v7Z"/><path class="cls-2" d="M639.75,161.05h1.74l2.34,6.1a23.25,23.25,0,0,1,1,3h.08q.13-.5.53-1.7t2.65-7.42h1.74l-4.6,12.19a6.09,6.09,0,0,1-1.6,2.56,3.39,3.39,0,0,1-2.24.76,6.54,6.54,0,0,1-1.46-.17v-1.3a5.65,5.65,0,0,0,1.2.12,2.48,2.48,0,0,0,2.38-1.87l.6-1.52Z"/><path class="cls-2" d="M198.46,195.76l-2-6.28q-.19-.58-.69-2.62h-.08q-.39,1.71-.68,2.64l-2,6.26h-1.87l-2.92-10.7h1.7l1.58,6.14a24.81,24.81,0,0,1,.62,2.84h.08q.11-.56.35-1.44t.42-1.4l2-6.14h1.76l1.91,6.14a20.74,20.74,0,0,1,.74,2.82h.08a10.35,10.35,0,0,1,.21-1.08q.17-.73,2-7.88h1.68l-3,10.7Z"/><path class="cls-2" d="M211.86,195.76l-.32-1.52h-.08a4.5,4.5,0,0,1-1.6,1.36,4.87,4.87,0,0,1-2,.36,3.57,3.57,0,0,1-2.5-.82,3,3,0,0,1-.9-2.33q0-3.24,5.19-3.4l1.82-.06v-.66a2.71,2.71,0,0,0-.54-1.86,2.23,2.23,0,0,0-1.73-.6,7.06,7.06,0,0,0-3,.82l-.5-1.24a7.65,7.65,0,0,1,1.73-.67,7.49,7.49,0,0,1,1.89-.24,4.08,4.08,0,0,1,2.84.85,3.55,3.55,0,0,1,.92,2.72v7.3Zm-3.66-1.14a3.29,3.29,0,0,0,2.38-.83,3.07,3.07,0,0,0,.86-2.32v-1l-1.62.07a5.9,5.9,0,0,0-2.79.6,1.81,1.81,0,0,0-.85,1.66,1.67,1.67,0,0,0,.53,1.34A2.21,2.21,0,0,0,208.2,194.61Z"/><path class="cls-2" d="M218,195.76H216.4v-15.2H218Z"/><path class="cls-2" d="M223.08,195.76h-1.62v-15.2h1.62Z"/><path class="cls-2" d="M231,196a4.92,4.92,0,0,1-3.75-1.45,5.59,5.59,0,0,1-1.37-4,6.2,6.2,0,0,1,1.27-4.11,4.23,4.23,0,0,1,3.42-1.52,4,4,0,0,1,3.18,1.32,5.07,5.07,0,0,1,1.17,3.49v1H227.6a4.24,4.24,0,0,0,1,2.86,3.29,3.29,0,0,0,2.54,1,8.63,8.63,0,0,0,3.42-.72v1.45a8.62,8.62,0,0,1-1.63.53A9.14,9.14,0,0,1,231,196Zm-.44-9.74a2.65,2.65,0,0,0-2.06.84,3.87,3.87,0,0,0-.9,2.32h5.6a3.56,3.56,0,0,0-.68-2.35A2.41,2.41,0,0,0,230.6,186.22Z"/><path class="cls-2" d="M241.19,194.61a5.34,5.34,0,0,0,.83-.06,5.26,5.26,0,0,0,.63-.13v1.24a3,3,0,0,1-.78.21,5.79,5.79,0,0,1-.92.08q-3.11,0-3.11-3.27v-6.37h-1.53v-.78l1.53-.67.68-2.29h.94v2.48h3.11v1.26h-3.11v6.3a2.17,2.17,0,0,0,.46,1.48A1.6,1.6,0,0,0,241.19,194.61Z"/><path class="cls-2" d="M257.32,195.76v-6.92a2.79,2.79,0,0,0-.6-2,2.43,2.43,0,0,0-1.87-.64,3.08,3.08,0,0,0-2.46.91,4.59,4.59,0,0,0-.78,3v5.62H250v-10.7h1.32l.26,1.46h.08a3.31,3.31,0,0,1,1.4-1.23,4.53,4.53,0,0,1,2-.43,4.06,4.06,0,0,1,2.91.93,4,4,0,0,1,1,3v7Z"/><path class="cls-2" d="M271.51,190.39a5.9,5.9,0,0,1-1.32,4.09,4.64,4.64,0,0,1-3.64,1.47,4.82,4.82,0,0,1-2.55-.67,4.45,4.45,0,0,1-1.72-1.93,6.74,6.74,0,0,1-.61-2.95,5.9,5.9,0,0,1,1.31-4.08,4.63,4.63,0,0,1,3.63-1.46,4.53,4.53,0,0,1,3.57,1.49A5.88,5.88,0,0,1,271.51,190.39Zm-8.15,0a5.08,5.08,0,0,0,.82,3.13,3.26,3.26,0,0,0,4.83,0,5.06,5.06,0,0,0,.83-3.13,5,5,0,0,0-.83-3.1,2.9,2.9,0,0,0-2.44-1.06,2.85,2.85,0,0,0-2.4,1A5,5,0,0,0,263.35,190.39Z"/><path class="cls-2" d="M283.09,195.76l-2-6.28q-.19-.58-.69-2.62h-.08q-.39,1.71-.68,2.64l-2,6.26h-1.87l-2.92-10.7h1.7l1.58,6.14a24.81,24.81,0,0,1,.62,2.84h.08q.11-.56.35-1.44t.42-1.4l2-6.14h1.76l1.91,6.14A20.74,20.74,0,0,1,284,194H284a10.35,10.35,0,0,1,.21-1.08q.17-.73,2-7.88H288l-3,10.7Z"/><path class="cls-2" d="M289.67,194.72a1.46,1.46,0,0,1,.3-1,1.08,1.08,0,0,1,.85-.34,1.16,1.16,0,0,1,.88.34,1.39,1.39,0,0,1,.32,1,1.37,1.37,0,0,1-.32,1,1.28,1.28,0,0,1-1.7,0A1.34,1.34,0,0,1,289.67,194.72Z"/><path class="cls-2" d="M645.78,238.76H638.2l3-14.28h7.58l-.42,2h-5.26l-.82,3.86h4.9l-.4,2h-4.92l-.94,4.45h5.26Z"/><path class="cls-2" d="M650.29,238.76,649,228h2.27l.54,5.84q.14,1.55.14,2.9H652q.27-.72.68-1.61t.63-1.29l3-5.84h2.44L653,238.76Z"/><path class="cls-2" d="M668.93,228l-.3,1.34-1.87.32A3,3,0,0,1,667,231a3.94,3.94,0,0,1-1.16,3,4.32,4.32,0,0,1-3.12,1.11,4.64,4.64,0,0,1-.9-.08q-1.08.39-1.08,1a.51.51,0,0,0,.31.51,3.41,3.41,0,0,0,.89.21l1.24.16a4.69,4.69,0,0,1,2.46.85,2.29,2.29,0,0,1,.74,1.83,3.41,3.41,0,0,1-1.47,3,7.18,7.18,0,0,1-4.19,1,5.47,5.47,0,0,1-3.07-.73,2.3,2.3,0,0,1-1.09-2,2.47,2.47,0,0,1,.68-1.74,5.23,5.23,0,0,1,2.18-1.24,1.37,1.37,0,0,1-.74-1.24,1.67,1.67,0,0,1,.45-1.17,4.6,4.6,0,0,1,1.43-1,2.67,2.67,0,0,1-1.32-2.46,4.12,4.12,0,0,1,1.2-3.09,4.32,4.32,0,0,1,3.16-1.17,6.44,6.44,0,0,1,1.56.2Zm-8,10.63a3.28,3.28,0,0,0-1.68.69,1.64,1.64,0,0,0-.59,1.28,1.17,1.17,0,0,0,.54,1,2.93,2.93,0,0,0,1.66.38,4.93,4.93,0,0,0,2.49-.53,1.66,1.66,0,0,0,.9-1.51.88.88,0,0,0-.44-.78,3.79,3.79,0,0,0-1.54-.4Zm2.64-9.29a1.75,1.75,0,0,0-1.11.38,2.44,2.44,0,0,0-.74,1,3.74,3.74,0,0,0-.26,1.42,1.52,1.52,0,0,0,.35,1.07,1.28,1.28,0,0,0,1,.38,1.68,1.68,0,0,0,1.1-.38,2.49,2.49,0,0,0,.72-1,4,4,0,0,0,.26-1.46Q664.87,229.29,663.57,229.29Z"/><path class="cls-2" d="M673.19,239a4,4,0,0,1-3-1.08,4.1,4.1,0,0,1-1.08-3,8.59,8.59,0,0,1,.76-3.6,6.18,6.18,0,0,1,2.05-2.57,4.92,4.92,0,0,1,2.9-.91,3.79,3.79,0,0,1,2.45.71,2.43,2.43,0,0,1,.87,2,3.11,3.11,0,0,1-1.63,2.78,8.89,8.89,0,0,1-4.63,1h-.42l0,.3v.28a2.45,2.45,0,0,0,.55,1.7,2.1,2.1,0,0,0,1.65.62A5.36,5.36,0,0,0,675,237a10,10,0,0,0,1.64-.63v1.83a9.06,9.06,0,0,1-1.72.61A7.86,7.86,0,0,1,673.19,239Zm1.48-9.43a2.46,2.46,0,0,0-1.76.84,4.85,4.85,0,0,0-1.19,2.22H672a6.47,6.47,0,0,0,2.87-.52,1.62,1.62,0,0,0,1-1.48,1,1,0,0,0-.31-.78A1.36,1.36,0,0,0,674.67,229.52Z"/><path class="cls-2" d="M685.54,238.76l1.39-6.56a7.38,7.38,0,0,0,.18-1.28,1.12,1.12,0,0,0-1.26-1.28,2.19,2.19,0,0,0-1.39.56,5,5,0,0,0-1.23,1.61,9.12,9.12,0,0,0-.82,2.38l-1,4.58h-2.3l2.3-10.8h1.8l-.21,2h.09a5.84,5.84,0,0,1,1.67-1.67,3.52,3.52,0,0,1,1.87-.52,2.69,2.69,0,0,1,2,.74,2.91,2.91,0,0,1,.72,2.11,9.25,9.25,0,0,1-.22,1.77l-1.34,6.38Z"/><path class="cls-2" d="M691.46,228h2.27l.62,5.19q.09.6.16,1.7t.07,1.77h.06q.84-2.1,1.32-3.06L698.8,228h2.48l-6.72,12.5a7,7,0,0,1-1.91,2.36,4,4,0,0,1-2.43.75,5.09,5.09,0,0,1-1.4-.19v-1.84a6,6,0,0,0,1.22.16,2.18,2.18,0,0,0,1.31-.42,4.83,4.83,0,0,0,1.21-1.52l.5-.9Z"/><path class="cls-2" d="M713.16,231h5l-1.53,7.19a12.87,12.87,0,0,1-2.13.57,13.71,13.71,0,0,1-2.33.18,5.31,5.31,0,0,1-4-1.43,5.5,5.5,0,0,1-1.41-4,11,11,0,0,1,1-4.72,7.75,7.75,0,0,1,2.83-3.32,7.51,7.51,0,0,1,4.17-1.18,10.51,10.51,0,0,1,2.08.2,8.61,8.61,0,0,1,2,.68l-.88,2a7.36,7.36,0,0,0-3.26-.84,4.77,4.77,0,0,0-2.8.88,5.93,5.93,0,0,0-2,2.52,8.85,8.85,0,0,0-.73,3.64,3.8,3.8,0,0,0,.87,2.71,3.24,3.24,0,0,0,2.47.92,7,7,0,0,0,2.1-.32l.78-3.62h-2.71Z"/><path class="cls-2" d="M719.47,237.84a1.8,1.8,0,0,1,.46-1.29,1.68,1.68,0,0,1,1.28-.48,1.22,1.22,0,0,1,.87.31,1.18,1.18,0,0,1,.33.9,1.79,1.79,0,0,1-.46,1.26,1.58,1.58,0,0,1-1.22.5,1.21,1.21,0,0,1-1-.35A1.24,1.24,0,0,1,719.47,237.84Z"/></g></g></svg>